<?xml version="1.0" encoding="UTF-8" standalone="no"?>
<!DOCTYPE svg PUBLIC "-//W3C//DTD SVG 1.1//EN" "http://www.w3.org/Graphics/SVG/1.1/DTD/svg11.dtd">
<svg width="100%" height="100%" viewBox="0 0 1024 1024" version="1.1" xmlns="http://www.w3.org/2000/svg" xmlns:xlink="http://www.w3.org/1999/xlink" xml:space="preserve" xmlns:serif="http://www.serif.com/" style="fill-rule:evenodd;clip-rule:evenodd;stroke-linejoin:round;stroke-miterlimit:2;">
    <g transform="matrix(-1.81302,0,0,1.81302,1087.78,-98.6022)">
        <clipPath id="_clip1">
            <rect x="35.179" y="54.386" width="564.802" height="564.802"/>
        </clipPath>
        <g clip-path="url(#_clip1)">
            <path d="M643.003,812L643,898.997L640,898.997L639,897.997L621,897.997L620,896.997L613,896.997L612,895.997L610,895.997L605,900.997L604,900.997L602,902.997L601,902.997L599,904.997L598,904.997L596,906.997L595,906.997L594,907.997L593,907.997L592,908.997L591,908.997L590,909.997L589,909.997L588,910.997L587,910.997L586,911.997L585,911.997L584,912.997L582,912.997L581,913.997L579,913.997L578,914.997L576,914.997L575,915.997L572,915.997L571,916.997L568,916.997L567,917.997L563,917.997L562,918.997L556,918.997L555,919.997L547,919.997L546,920.997L531,920.997L530,921.997L434,921.997L433,920.997L387,920.997L386,919.997L350,919.997L349,918.997L319,918.997L318,917.997L313,917.997L312,916.997L311,916.997L310,915.997L309,915.997L304.003,911L304.003,910L303.003,909L303.003,906L302.003,905L302.003,900L303.003,899L303.003,894L304.003,893L304.003,891L305.003,890L305.003,888L306.003,887L306.003,886L307.003,885L307.003,884L308.003,883L308.003,882L309.003,881L309.003,879L310.003,878L310.003,877L311.003,876L311.003,874L312.003,873L312.003,871L313.003,870L313.003,868L314.003,867L314.003,865L315.003,864L315.003,861L316.003,860L316.003,856L317.003,855L317.003,848L318.003,847L318.003,824L317.003,823L317.003,815L316.003,814L316.003,809L315.003,808L315.003,804L314.003,803L314.003,800L313.003,799L313.003,795L312.003,794L312.003,791L311.003,790L311.003,787L310.003,786L310.003,784L309.003,783L309.003,780L308.003,779L308.003,777L307.003,776L307.003,773L306.003,772L306.003,770L305.003,769L305.003,767L304.003,766L304.003,764L303.003,763L303.003,760L302.003,759L302.003,757L301.003,756L301.003,754L300.003,753L300.003,750L299.003,749L299.003,747L298.003,746L298.003,744L297.003,743L297.003,740L296.003,739L296.003,737L295.003,736L295.003,733L294.003,732L294.003,730L293.003,729L293.003,726L292.003,725L292.003,722L291.003,721L291.003,718L290.003,717L290.003,714L289.003,713L289.003,710L288.003,709L288.003,705L287.003,704L287.003,700L286.003,699L286.003,694L285.003,693L285.003,687L284.003,686L284.003,677L283.003,676L283.003,648L284.003,647L284.003,637L285.003,636L285.003,631L286.003,630L286.003,625L287.003,624L287.003,620L288.003,619L288.003,615L289.003,614L289.003,611L290.003,610L290.003,607L291.003,606L291.003,604L292.003,603L292.003,600L293.003,599L293.003,597L294.003,596L294.003,594L295.003,593L295.003,591L296.003,590L296.003,588L297.003,587L297.003,586L298.003,585L298.003,583L299.003,582L299.003,580L300.003,579L300.003,578L301.003,577L301.003,575L302.003,574L302.003,573L303.003,572L303.003,570L304.003,569L304.003,568L305.003,567L305.003,566L306.003,565L306.003,563L307.003,562L307.003,561L308.003,560L308.003,559L309.003,558L309.003,557L310.003,556L310.003,554L311.003,553L311.003,552L312.003,551L312.003,550L313.003,549L313.003,548L314.003,547L314.003,546L315.003,545L315.003,543L316.003,542L316.003,541L317.003,540L317.003,539L318.003,538L318.003,537L319.003,536L319.003,535L320.003,534L320.003,533L321.003,532L321.003,530L322.003,529L322.003,528L323.003,527L323.003,526L324.003,525L324.003,524L325.003,523L325.003,522L326.003,521L326.003,520L327.003,519L327.003,518L328.003,517L328.003,515L329.003,514L329.003,513L330.003,512L330.003,510L331.003,509L331.003,508L332.003,507L332.003,505L333.003,504L333.003,502L334.003,501L334.003,498L335.003,497L335.003,493L336.003,492L336.003,483L335.003,482L335.003,481L334.003,480L334.003,479L332,476.997L331,476.997L329,474.997L326,474.997L325,473.997L320,473.997L319,472.997L314,472.997L313,471.997L307,471.997L306,470.997L301,470.997L300,469.997L295,469.997L294,468.997L289,468.997L288,467.997L283,467.997L282,466.997L278,466.997L277,465.997L273,465.997L272,464.997L268,464.997L267,463.997L263,463.997L262,462.997L258,462.997L257,461.997L254,461.997L253,460.997L250,460.997L249,459.997L246,459.997L245,458.997L242,458.997L241,457.997L239,457.997L238,456.997L235,456.997L234,455.997L232,455.997L231,454.997L229,454.997L228,453.997L226,453.997L225,452.997L224,452.997L223,451.997L221,451.997L220,450.997L218,450.997L217,449.997L216,449.997L215,448.997L214,448.997L213,447.997L211,447.997L210,446.997L209,446.997L208,445.997L207,445.997L206,444.997L205,444.997L204,443.997L203,443.997L202,442.997L201,442.997L200,441.997L199,441.997L198,440.997L197,440.997L196,439.997L195,439.997L193,437.997L192,437.997L190,435.997L189,435.997L188,434.997L187,434.997L184,431.997L183,431.997L179,427.997L178,427.997L167.003,417L167.003,416L164.003,413L164.003,412L162.003,410L162.003,409L161.003,408L161.003,407L160.003,406L160.003,405L159.003,404L159.003,402L158.003,401L158.003,399L157.003,398L157.003,392L158.003,391L158.003,390L161,387.003L163,387.003L164,386.003L169,386.003L170,385.003L175,385.003L176,384.003L179,384.003L180,383.003L182,383.003L183,382.003L185,382.003L186,381.003L187,381.003L188,380.003L189,380.003L190,379.003L191,379.003L192,378.003L193,378.003L194,377.003L195,377.003L197,375.003L198,375.003L200,373.003L201,373.003L214.003,360L214.003,359L217.003,356L217.003,355L219.003,353L219.003,352L221.003,350L221.003,349L222.003,348L222.003,347L223.003,346L223.003,345L224.003,344L224.003,343L225.003,342L225.003,341L226.003,340L226.003,339L227.003,338L227.003,337L228.003,336L228.003,334L229.003,333L229.003,332L230.003,331L230.003,329L231.003,328L231.003,327L232.003,326L232.003,324L233.003,323L233.003,321L234.003,320L234.003,318L235.003,317L235.003,315L236.003,314L236.003,312L237.003,311L237.003,308L238.003,307L238.003,305L239.003,304L239.003,302L240.003,301L240.003,298L241.003,297L241.003,295L242.003,294L242.003,293L243.003,292L243.003,290L244.003,289L244.003,287L245.003,286L245.003,285L246.003,284L246.003,282L247.003,281L247.003,280L248.003,279L248.003,278L249.003,277L249.003,275L250.003,274L250.003,273L251.003,272L251.003,271L252.003,270L252.003,269L254.003,267L254.003,266L255.003,265L255.003,264L256.003,263L256.003,262L258.003,260L258.003,259L260.003,257L260.003,256L262.003,254L262.003,253L264.003,251L264.003,250L267.003,247L267.003,246L272.003,241L272.003,240L289.003,223L289.003,222L287.003,220L287.003,219L286.003,218L286.003,217L285.003,216L285.003,215L284.003,214L284.003,213L283.003,212L283.003,211L282.003,210L282.003,208L281.003,207L281.003,206L280.003,205L280.003,204L279.003,203L279.003,201L278.003,200L278.003,199L277.003,198L277.003,196L276.003,195L276.003,193L275.003,192L275.003,191L274.003,190L274.003,188L273.003,187L273.003,185L272.003,184L272.003,182L271.003,181L271.003,179L270.003,178L270.003,175L269.003,174L269.003,172L268.003,171L268.003,168L267.003,167L267.003,165L266.003,164L266.003,161L265.003,160L265.003,157L264.003,156L264.003,152L263.003,151L263.003,148L262.003,147L262.003,143L261.003,142L261.003,138L260.003,137L260.003,132L259.003,131L259.003,125L258.003,124L258.003,118L257.003,117L257.003,101L258.003,100L258.003,99L261,96.003L270,96.003L271,97.003L272,97.003L273,98.003L275,98.003L276,99.003L277,99.003L278,100.003L280,100.003L281,101.003L282,101.003L283,102.003L284,102.003L285,103.003L286,103.003L287,104.003L288,104.003L289,105.003L290,105.003L291,106.003L292,106.003L293,107.003L294,107.003L295,108.003L296,108.003L297,109.003L298,109.003L299,110.003L300,110.003L302,112.003L303,112.003L304,113.003L305,113.003L306,114.003L307,114.003L309,116.003L310,116.003L312,118.003L313,118.003L314,119.003L315,119.003L317,121.003L318,121.003L320,123.003L321,123.003L323,125.003L324,125.003L327,128.003L328,128.003L330,130.003L331,130.003L334,133.003L335,133.003L338,136.003L339,136.003L344,141.003L345,141.003L353,149.003L354,149.003L366.997,162L366.997,163L373.997,170L373.997,171L377.997,175L377.997,176L380.997,179L380.997,180L383.997,183L383.997,184L385.997,186L385.997,187L387.997,189L387.997,190L390,192.003L406,192.003L407,193.003L423,193.003L424.003,192L424.003,191L426.003,189L426.003,188L427.003,187L427.003,186L429.003,184L429.003,183L431.003,181L431.003,180L433.003,178L433.003,177L436.003,174L436.003,173L438.003,171L438.003,170L441.003,167L441.003,166L444.003,163L444.003,162L448.003,158L448.003,157L453.003,152L453.003,151L462.003,142L462.003,141L476,127.003L477,127.003L485,119.003L486,119.003L491,114.003L492,114.003L496,110.003L497,110.003L500,107.003L501,107.003L504,104.003L505,104.003L507,102.003L508,102.003L511,99.003L512,99.003L514,97.003L515,97.003L517,95.003L518,95.003L519,94.003L520,94.003L522,92.003L523,92.003L525,90.003L526,90.003L527,89.003L528,89.003L529,88.003L530,88.003L531,87.003L532,87.003L533,86.003L534,86.003L536,84.003L537,84.003L538,83.003L539,83.003L540,82.003L542,82.003L543,81.003L544,81.003L545,80.003L546,80.003L547,79.003L549,79.003L550,78.003L552,78.003L553,77.003L559,77.003L560,78.003L561,78.003L563.997,81L563.997,82L564.997,83L564.997,85L565.997,86L565.997,88L566.997,89L566.997,91L567.997,92L567.997,95L568.997,96L568.997,99L569.997,100L569.997,104L570.997,105L570.997,109L571.997,110L571.997,115L572.997,116L572.997,121L573.997,122L573.997,128L574.997,129L574.997,137L575.997,138L575.997,152L576.997,153L576.997,177L575.997,178L575.997,191L574.997,192L574.997,199L573.997,200L573.997,205L572.997,206L572.997,211L571.997,212L571.997,215L570.997,216L570.997,219L569.997,220L569.997,223L568.997,224L568.997,227L567.997,228L567.997,230L566.997,231L566.997,233L565.997,234L565.997,236L564.997,237L564.997,238L563.997,239L563.997,241L562.997,242L562.997,243L561.997,244L561.997,245L560.997,246L560.997,247L559.997,248L559.997,249L558.997,250L558.997,251L557.997,252L557.997,253L556.997,254L556.997,255L555.997,256L555.997,257L553.997,259L553.997,260L551.997,262L552.997,263L552.997,264L553.997,265L553.997,266L554.997,267L554.997,268L555.997,269L555.997,270L556.997,271L556.997,272L557.997,273L557.997,274L558.997,275L558.997,276L559.997,277L559.997,278L560.997,279L560.997,281L561.997,282L561.997,283L562.997,284L562.997,286L563.997,287L563.997,288L564.997,289L564.997,291L565.997,292L565.997,293L566.997,294L566.997,296L567.997,297L567.997,299L568.997,300L568.997,302L569.997,303L569.997,305L570.997,306L570.997,308L571.997,309L571.997,312L572.997,313L572.997,316L573.997,317L573.997,320L574.997,321L574.997,324L575.997,325L575.997,328L576.997,329L576.997,334L577.997,335L577.997,340L578.997,341L578.997,348L579.997,349L579.997,373L578.997,374L578.997,380L577.997,381L577.997,385L576.997,386L576.997,389L575.997,390L575.997,393L574.997,394L574.997,396L573.997,397L573.997,399L572.997,400L572.997,401L571.997,402L571.997,403L570.997,404L570.997,405L569.997,406L569.997,407L568.997,408L568.997,409L567.997,410L567.997,411L566.997,412L566.997,413L564.997,415L564.997,416L563.997,417L563.997,418L560.997,421L560.997,422L557.997,425L557.997,426L550.997,433L550.997,434L548,436.997L547,436.997L539,444.997L538,444.997L535,447.997L534,447.997L531,450.997L530,450.997L528,452.997L527,452.997L525,454.997L524,454.997L522,456.997L521,456.997L520,457.997L519,457.997L518,458.997L517,458.997L515,460.997L514,460.997L513,461.997L512,461.997L510.997,463L510.997,464L511.997,465L511.997,472L512.997,473L512.997,478L513.997,479L513.997,484L514.997,485L514.997,490L515.997,491L515.997,495L516.997,496L516.997,500L517.997,501L517.997,504L518.997,505L518.997,509L519.997,510L519.997,513L520.997,514L520.997,517L521.997,518L521.997,520L522.997,521L522.997,524L523.997,525L523.997,527L524.997,528L524.997,531L525.997,532L525.997,534L526.997,535L526.997,537L527.997,538L527.997,540L528.997,541L528.997,543L529.997,544L529.997,546L530.997,547L530.997,549L531.997,550L531.997,551L532.997,552L532.997,554L533.997,555L533.997,557L534.997,558L534.997,559L535.997,560L535.997,562L536.997,563L536.997,564L537.997,565L537.997,567L538.997,568L538.997,569L539.997,570L539.997,572L540.997,573L540.997,574L541.997,575L541.997,576L542.997,577L542.997,578L543.997,579L543.997,581L544.997,582L544.997,583L545.997,584L545.997,585L546.997,586L546.997,587L547.997,588L547.997,589L548.997,590L548.997,591L549.997,592L549.997,593L550.997,594L550.997,595L551.997,596L551.997,598L552.997,599L552.997,600L553.997,601L553.997,602L554.997,603L554.997,604L556.997,606L556.997,607L557.997,608L557.997,609L558.997,610L558.997,611L559.997,612L559.997,613L560.997,614L560.997,615L561.997,616L561.997,617L562.997,618L562.997,619L563.997,620L563.997,621L564.997,622L564.997,623L565.997,624L565.997,625L567.997,627L567.997,628L568.997,629L568.997,630L569.997,631L569.997,632L570.997,633L570.997,634L571.997,635L571.997,636L573.997,638L573.997,639L574.997,640L574.997,641L575.997,642L575.997,643L577.997,645L577.997,646L578.997,647L578.997,648L579.997,649L579.997,650L580.997,651L580.997,652L582.997,654L582.997,655L583.997,656L583.997,657L584.997,658L584.997,659L586.997,661L586.997,662L587.997,663L587.997,664L588.997,665L588.997,666L589.997,667L589.997,668L591.997,670L591.997,671L592.997,672L592.997,673L593.997,674L593.997,675L594.997,676L594.997,677L595.997,678L595.997,679L597.997,681L597.997,682L598.997,683L598.997,684L599.997,685L599.997,686L600.997,687L600.997,688L601.997,689L601.997,690L602.997,691L602.997,692L603.997,693L603.997,694L604.997,695L604.997,696L605.997,697L605.997,698L606.997,699L606.997,700L607.997,701L607.997,702L608.997,703L608.997,704L609.997,705L609.997,706L610.997,707L610.997,709L611.997,710L611.997,711L612.997,712L612.997,713L613.997,714L613.997,715L614.997,716L614.997,718L615.997,719L615.997,720L616.997,721L616.997,723L617.997,724L617.997,725L618.997,726L618.997,728L619.997,729L619.997,730L620.997,731L620.997,733L621.997,734L621.997,736L622.997,737L622.997,739L623.997,740L623.997,742L624.997,743L624.997,745L625.997,746L625.997,748L626.997,749L626.997,752L627.997,753L627.997,755L628.997,756L628.997,759L629.997,760L629.997,763L630.997,764L630.997,768L631.997,769L631.997,773L632.997,774L632.997,779L633.997,780L633.997,786L634.997,787L634.997,796L635.997,797L635.997,823L634.997,824L635,824.003L636,824.003L636.003,824L636.003,823L638.003,821L638.003,820L639.003,819L639.003,818L641.003,816L641.003,815L642.003,814L642.003,813L643,812.003L643.003,812Z" style="fill:rgb(230,97,26);"/>
        </g>
    </g>
</svg>
