<?xml version="1.0" encoding="utf-8"?>
<!-- Generator: $$$/GeneralStr/196=Adobe Illustrator 27.6.0, SVG Export Plug-In . SVG Version: 6.00 Build 0)  -->
<svg version="1.1" id="Ebene_1" xmlns="http://www.w3.org/2000/svg" xmlns:xlink="http://www.w3.org/1999/xlink" x="0px" y="0px"
	 viewBox="0 0 360 256" enable-background="new 0 0 360 256" xml:space="preserve">
<g>
	<path fill="#ED7634" d="M256.1,170.9c-5.4-5.6-10-12.1-14-19.1c-4-7-7.3-14.6-10-22.5c-2.5-7.4-3.7-26.7-19.7-34.8
		c0,0,5.5-4.9,19-4.8c11.7,0,40.6,8.1,53,30.1c1.2,2.2,2.6,4.2,3.7,6.4c2.3,4.8,4.3,9.9,7.2,14.2c1.3,1.9,2.8,3.6,4.8,4.7
		c2,1.1,4.3,1.8,6.8,1.9c4.8,0.1,9.8-1.5,14.7-2.3c11.1-1.9,24.1,0,30.1,9.6c0.8,1.2,1.4,2.6,1.9,4c0.2,0.7-0.1,1.8-0.9,2
		c-3.1,0.7-6.1,1.9-8.8,4.2c-2.4,2-4.4,4.6-6.4,7.1c-2.4,2.9-4.8,5.8-7.5,8.3c-3.1,2.8-6.4,5.1-9.9,7c-7.3,3.9-15.2,6.3-22.8,6.5
		c-8.1,0.3-15.5-2.7-22.1-6.6C268.2,182.5,261.9,176.9,256.1,170.9L256.1,170.9z"/>
	<path fill="#E3D2D6" d="M296.7,190.9c-2.9-1.6-5.6-3.8-7.7-6.5c0.8,0,1.5,0,2.3-0.1c1.7-0.2,3.5-0.7,5.2-1.4
		c1.6-0.7,3.1-1.6,4.4-2.8c0.1-0.1,0.1-0.3,0-0.4c-1.7-0.4-3.3-1-4.8-1.7c-2.9-1.4-5.5-3.1-7.9-5.2c-2.2-1.9-4.3-4.2-6.1-6.6
		c1.3-0.2,2.6-0.4,3.9-0.6c2.6-0.4,5.2-0.9,7.7-1.9c2.6-1,5-2.5,7.2-4.5c0.1-0.1,0.1-0.3,0-0.3c-2.7-1.1-5.5-2.1-8.3-3.1
		c0.2-0.1,0.4-0.2,0.6-0.3c2.8-1.3,5.6-2.7,8.4-4.1c3-1.5,5.9-3.1,8.9-4.5c0.2-0.1,0.4-0.2,0.5-0.3c3.6-0.4,7.3-1.5,11-2.1
		c11.1-1.9,24.1,0,30.1,9.6c0.8,1.2,1.4,2.6,1.9,4c0.2,0.7-0.1,1.8-0.9,2c-3.1,0.7-6.1,1.9-8.8,4.2c-2.4,2-4.4,4.6-6.4,7.1
		c-2.4,2.9-4.8,5.8-7.5,8.3c-3.1,2.8-6.4,5.1-9.9,7c-6.1,3.3-12.6,5.5-19,6.2C299.8,192.4,298.2,191.8,296.7,190.9L296.7,190.9z"/>
	<path fill="#FCEEED" d="M304.8,154c3.1-1.6,6.1-3,9.2-4.2c3.2-1.1,6.3-2.1,9.5-2.7c6.5-1.2,12.9-0.9,18.5,1.5
		c3.1,1.4,5.6,3.5,7.4,6.6c0.2,0.4-0.3,0.7-0.6,0.5c-4.2-3.8-9.6-6.3-15.4-7c-5.9-0.7-12.1,0.4-18.1,2.2c-3.4,1.1-6.9,2.3-10.3,3.6
		C304.6,154.6,304.5,154.1,304.8,154L304.8,154z"/>
	<path fill="#FCEEED" d="M310.2,171.7c3-1.6,6-3.1,9.1-4.6c3.1-1.5,6.3-2.9,9.4-4.4c5-2.3,10.1-4.6,15.3-5.4c2.7-0.4,5.7-0.4,8,0.8
		c0.3,0.2,0.1,0.9-0.3,0.8c-2.4-0.2-4.6-0.4-7.1-0.1c-2.5,0.3-5,1-7.5,1.9c-5.5,2-10.9,4.5-16.4,6.9c-1.7,0.7-3.5,1.5-5.2,2.2
		c-1.7,0.7-3.5,1.3-5.2,1.9C310.1,171.9,310.1,171.7,310.2,171.7L310.2,171.7z"/>
	<path fill="#FCEEED" d="M315.8,157.2c4.6-2.5,9.5-3.8,14.3-4.2c4.8-0.4,9.6-0.1,13.7,1.7c0.3,0.1,0,0.6-0.3,0.6
		c-4.4-0.8-8.9-1.3-13.6-0.9c-4.7,0.4-9.4,1.6-14,3.2C315.7,157.6,315.6,157.3,315.8,157.2L315.8,157.2z"/>
	<path fill="#CEBFC5" d="M304.1,188.6c1.2-0.3,2.4-0.2,3.5-0.4c1.3-0.2,2.6-0.5,3.9-1c2.6-0.9,5.1-2.2,7.5-3.6
		c5.3-3.1,10.4-6.5,14.9-11c1.3-1.2,2.5-2.5,3.6-3.9c1.2-1.4,2.6-2.9,3.5-4.5c0.1-0.2,0.4-0.1,0.3,0.2c-0.8,1.5-1.5,3-2.4,4.4
		c-0.9,1.3-2,2.6-3.1,3.8c-2.3,2.5-4.8,4.7-7.5,6.7c-5,3.7-10.5,7.2-16.1,9.2c-1.4,0.5-2.9,0.9-4.3,1.1c-1.4,0.2-3,0.4-4.2-0.2
		C303.7,189.3,303.8,188.7,304.1,188.6L304.1,188.6z"/>
	<path fill="#CEBFC5" d="M297.6,185.4c3.5,0.1,7-0.3,10.6-1c1.8-0.4,3.5-0.8,5.3-1.5c1.8-0.6,3.5-1.5,5.3-2.1
		c0.4-0.1,0.6,0.5,0.2,0.7c-1.6,1.1-3.5,1.7-5.2,2.3c-1.8,0.6-3.6,1.1-5.5,1.5c-3.7,0.7-7.2,0.8-10.7,0.3
		C297.4,185.6,297.5,185.4,297.6,185.4L297.6,185.4z"/>
	<path fill="#CEBFC5" d="M288.7,170.1c-0.2-0.1,0-0.5,0.2-0.4c1.8,1.1,3.8,2,5.8,2.7c2,0.8,4,1.4,6.2,1.8c2.1,0.4,4.3,0.7,6.5,0.8
		c1.1,0,2.2,0,3.3,0c1.1,0,2.3-0.2,3.4-0.2c0.6,0,0.7,0.9,0,1.2c-1.1,0.4-2.3,0.4-3.5,0.5c-1.1,0.1-2.3,0.1-3.4,0.1
		c-2.3-0.1-4.5-0.4-6.7-0.9c-2.1-0.5-4.1-1.2-6.1-2.1C292.3,172.8,290.6,171.5,288.7,170.1L288.7,170.1z"/>
	<path fill="#D05A34" d="M268.3,179.2c-7.9-6.1-14.9-13.4-20.6-21.9c-1.6-2.4-3.1-4.8-4.5-7.3c-1.4-2.6-2.6-5.4-3.7-8.2
		c-0.1-0.2,0.2-0.3,0.3-0.2c2.4,4.6,5.2,9,8.1,13.1c2.9,4.2,6,8.1,9.4,11.7c6.8,7.3,14.4,13.5,23,18.3c2.4,1.4,4.8,2.6,7.3,3.9
		c1.2,0.6,2.5,1.2,3.7,1.7c1.3,0.6,2.5,1.3,3.8,1.8c0.3,0.1,0,0.7-0.3,0.6c-1.2-0.3-2.4-0.6-3.6-1c-1.2-0.4-2.3-0.8-3.5-1.3
		c-2.3-1-4.6-2-6.8-3.2C276.4,185.1,272.2,182.3,268.3,179.2L268.3,179.2z"/>
	<path fill="#D05A34" d="M272.5,177c-3.3-2.1-6.1-4.7-8.5-7.9c-0.1-0.1,0.1-0.3,0.2-0.2c2.6,2.8,5.7,5.2,8.9,7.1
		c1.6,0.9,3.2,1.7,4.9,2.4c1.8,0.7,3.7,1.2,5.4,2c0.3,0.2,0.1,0.9-0.3,0.8c-1.9-0.1-3.7-0.9-5.4-1.6C275.9,179,274.2,178,272.5,177
		L272.5,177z"/>
	<path fill="#D05A34" d="M283.6,178.3c-0.2-0.1,0-0.5,0.2-0.4c1.8,1,3.8,1.4,5.8,2.1c0.3,0.1,0.2,0.6-0.1,0.6
		C287.3,180.7,285.3,179.6,283.6,178.3L283.6,178.3z"/>
	<path fill="#F08342" d="M262,115.2c-1.4-0.3-2.9-0.5-4.2-1.1c-1.3-0.5-2.4-1.3-3.5-2.2c-0.1-0.1,0-0.2,0.1-0.2
		c2.2,1.4,5.2,1.7,7.8,2c2.6,0.3,5.3,0.6,7.8,1.4c4.7,1.4,8.9,4,12.1,7.6c1.9,2.1,3.3,4.5,4.1,7.4c0.2,0.6-0.5,1-0.8,0.5
		c-2.5-4.3-5.6-8.1-9.6-10.8c-2-1.3-4.1-2.3-6.4-3.1C267,116,264.5,115.6,262,115.2L262,115.2z"/>
	<path fill="#F08342" d="M278.8,131.8c-3.4-3.8-7.9-7.4-13.5-6.9c5.5-1,10,1.7,13.5,5.2c2.1,2.1,3.9,4.4,5.9,6.6
		c2.2,2.3,4.5,4.3,7.3,5.9c0.3,0.2,0,0.9-0.4,0.7C285.9,141.6,282.6,136,278.8,131.8L278.8,131.8z"/>
	<path fill="#F08342" d="M272.8,144.2c-0.2-0.2,0-0.6,0.3-0.4c3.7,2.4,7.9,4.2,12.3,5c2.2,0.4,4.5,0.7,6.8,0.7c1.1,0,2.2,0,3.4-0.1
		c1.2-0.1,2.5-0.3,3.7-0.3c0.5,0,0.6,0.8,0,1c-2.3,0.8-4.9,0.9-7.2,0.8c-2.4,0-4.7-0.3-7-0.8C280.5,149.2,276.3,147.2,272.8,144.2
		L272.8,144.2z"/>
	<path fill="#F08342" d="M278,158.1c2.2,0.6,4.5,1,6.9,1.1c2.3,0.1,4.7,0,7,0c0.3,0,0.3,0.5,0,0.6c-4.9,1.4-9.9,0.6-14.1-1
		C277.4,158.7,277.6,158,278,158.1L278,158.1z"/>
	<path fill="#DE6235" d="M220.9,203.4c1.2-2.3-9.1-18.2-11.2-20c-1.1-0.9-3.1-4.3-3.9-5.5c-5.7-8-8.8-42.6-8.3-49.3
		c-4,1.3-7.9,2.7-11.9,4.2c-5,1.8-9.9,3.7-14.8,5.6c-4.9,1.9-9.9,3.9-14.8,5.9c-2.3,0.9-4.6,1.8-6.9,2.8c1.2,1.8,2.5,3.5,3.8,5.2
		c6.7,8.8,15,16.5,24.1,22.7c20.7,14,25.1,28.5,25.8,30.4c0.4,1,0.7,2,0.9,3.1c0.1,0.4,0.2,0.9,0.3,1.3c0,0.1,0,0.1,0,0.2
		c0.1,2.6-5.1,20.5-8,22.9c-0.4,0.2-0.8,0.4-1.3,0.6c-0.7,0.2-1.4,0.3-2.1,0.5c-1.4,0.2-2.9,0.4-4.1,1.2c-2.6,1.5-3.7,4.4-4.6,7.1
		c-0.2,0.5,0.2,0.8,0.6,0.9c0.9,0.1,1.8,0.3,2.6,0.4c-0.1,0.1-0.1,0.2-0.2,0.2c-0.2,0.3-0.1,0.6,0.2,0.8c1.5,1,3.1,1.7,4.9,2.1
		c0.8,0.2,1.7,0.3,2.6,0.4c0.4,0,0.9,0.1,1.4,0c0.2,0,0.4-0.1,0.6-0.2c1.1,1.1,3.5-0.1,4.9-0.1c2.3,0,3.8-1.5,5.6-5.7
		c0.5-1.1,1.8-5.4,1.9-5.1C211,241.1,210.4,224.2,220.9,203.4L220.9,203.4z"/>
	<path fill="#352930" d="M215.3,206.3c-2,0.6-4.1,0.9-6.2,1c-2,0.1-4-0.1-5.9-0.7c0.2,0.6,0.4,1.2,0.5,1.9c0.1,0.4,0.2,0.9,0.3,1.3
		c0,0.1,0,0.1,0,0.2c0.1,2.6-5.1,20.5-8,22.9c-0.4,0.2-0.8,0.4-1.3,0.6c-0.7,0.2-1.4,0.3-2.1,0.5c-1.4,0.2-2.9,0.4-4.1,1.2
		c-2.6,1.5-3.7,4.4-4.6,7.1c-0.2,0.5,0.2,0.8,0.6,0.9c0.9,0.1,1.8,0.3,2.6,0.4c-0.1,0.1-0.1,0.2-0.2,0.2c-0.2,0.3-0.1,0.6,0.2,0.8
		c1.5,1,3.1,1.7,4.9,2.1c0.8,0.2,1.7,0.3,2.6,0.4c0.4,0,0.9,0.1,1.4,0c0.2,0,0.4-0.1,0.6-0.2c1.1,1.1,3.5-0.1,4.9-0.1
		c2.3,0,3.8-1.5,5.6-5.7c0.5-1.1,1.8-5.4,1.9-5.1c2.1,5,1.4-11.3,11.5-31.5C218.7,205.2,217,205.8,215.3,206.3L215.3,206.3z"/>
	<path fill="#DE6235" d="M62.5,146.5c0.5,1.6,5.9,13,6.6,14.6c0.9,2.2,1.8,4.3,2.8,6.4c0,0.2,0,0.4,0,0.6c-0.1,1.5-0.1,3.1-0.2,4.6
		c-0.1,3.1,5.1,28.4,3.1,42.8c-0.9,2.2-1.7,4.5-2.5,6.7c-0.3,0.8-0.6,1.6-0.9,2.4c-0.3,0.7-0.5,1.5-0.8,2.2c-0.6,1.2-2,0.9-3,0.8
		c-1.2-0.2-2.3-0.3-3.4,0.2c-1.1,0.4-2,1.3-2.7,2.2c-0.8,1.1-1.5,2.3-2.1,3.5c-0.8,1.5-1.6,3-2.4,4.6c-0.3,0.7-0.3,1.5,0.3,1.9
		c0.6,0.5,1.7,0.5,2.4,0.5c0.7,0.1,1.3,0.1,2,0.1c0,0.3,0.1,0.6,0.3,0.9c0.4,0.5,1.1,0.7,1.6,0.9c0.7,0.2,1.4,0.4,2.1,0.4
		c1.1,0.1,2.3,0,3.2-0.6c0.5,1,1.8,1.3,3,1.2c2.1-0.1,4.2-0.9,6.1-1.8c0.8-0.4,1.6-0.8,2.2-1.5c0.6-0.8,0.9-1.8,1.2-2.8
		c0.2-0.9,0.4-1.8,0.6-2.7c0.2-0.4,0.3-0.8,0.5-1.1c0.4-0.9,0.7-1.8,1-2.7c0.7-1.8,1.4-3.6,2.1-5.4c0.5-1.2,1-2.6,1.4-4
		c0.2-0.2,0.3-0.5,0.5-0.7c0.2-0.3,0.5-0.6,0.7-0.9c0.5-0.5,1.1-0.6,1.6-1c1.4-1.1,0.7-3.2,0.5-4.7c-0.2-1.6-0.5-3.2-0.7-4.8
		c0-0.2,0.1-0.4,0.1-0.6c0.2-1.1,0.5-9.7,0.6-10.8c0.4-2.2,0.7-4.5,1-6.7c0.5-4.1,0.8-8.3,0.9-12.4c0.6-1.4,1.2-2.9,1.6-4.4
		c0.8-2.8,0.9-5.6,0.9-8.5c0-2.2,0.1-4.3,0.2-6.5C94.5,159.4,62.5,146.5,62.5,146.5L62.5,146.5z"/>
	<path fill="#ED7634" d="M237.5,237.1c-0.1,1.3-0.4,6-1.5,6.8c-1.3,1-2.1,0.5-2.1,0.5c-1.4,3.3-3.1,7.6-7.1,8.4
		c-1.4,0.3-4.2,0.3-5.4-0.8c-0.2,0.1-0.3,0.1-0.5,0.2c-0.4,0.1-0.9,0-1.4,0c-0.9,0-1.7-0.2-2.6-0.3c-1.7-0.4-3.4-1.1-4.9-2
		c-0.3-0.2-0.4-0.5-0.2-0.8c0.1-0.1,0.1-0.2,0.2-0.2c-0.9-0.1-1.8-0.3-2.7-0.4c-0.4-0.1-0.8-0.4-0.6-0.8c0.9-2.7,2-5.7,4.5-7.2
		c1.3-0.8,6.6-1.9,8-2.1c0,0,14.1-31.9,7-34.7c-25.8-18-35.8-41-37.3-52c-2.5,0.7-5,1.4-7.5,2.2c-12,3.8-23.6,8.7-35.8,11.8
		c-6,1.5-12.2,2.6-18.4,2.9c-3.1,0.1-6.2,0.1-9.3-0.3c-0.6-0.1-1.2-0.1-1.8-0.2c-0.3,2.9-0.4,5.8-0.5,8.7c0,2.9-0.1,5.8-1,8.5
		c-0.5,1.5-1.1,2.9-1.7,4.4c-0.1,4.2-0.4,15.9-0.9,20c-0.3,2.3-0.6,4.5-1.1,6.7c-0.2,1.1-0.8,3.6-0.8,3.8c0.3,1.6,0.5,3.2,0.8,4.8
		c0.2,1.5,1,3.6-0.5,4.7c-0.6,0.4-1.2,0.6-1.8,1c-0.3,0.3-0.5,0.6-0.8,0.9c-0.2,0.2-0.3,0.5-0.5,0.7c-0.4,1.4-1,2.8-1.5,4
		c-0.7,1.8-1.5,3.6-2.2,5.4c-0.4,0.9-0.7,1.8-1.1,2.7c-0.2,0.4-0.3,0.8-0.5,1.1c-0.2,0.9-1.2,4.7-1.9,5.5c-0.6,0.7-6.7,3.2-9,3.2
		c-1.3,0-2.6-0.3-3.2-1.2c-1,0.6-2.3,0.6-3.5,0.6c-0.8,0-1.5-0.2-2.3-0.4c-0.6-0.2-1.3-0.4-1.8-0.9c-0.3-0.3-0.4-0.6-0.4-0.9
		c-0.7,0-1.4,0-2.1-0.1c-0.8-0.1-1.9-0.1-2.6-0.5c-0.7-0.5-0.7-1.2-0.3-1.9c0.8-1.6,1.7-3.1,2.5-4.6c0.7-1.2,1.4-2.4,2.3-3.5
		c0.8-1,1.8-1.8,2.9-2.2c1.2-0.5,2.5-0.3,3.7-0.2c1.1,0.1,2.6,0.4,3.3-0.8c0.4-0.7,0.6-1.5,0.9-2.2c0.3-0.8,0.6-1.6,0.9-2.4
		c0.9-2.3,1.8-4.5,2.7-6.7c1.9-17.7-3.4-39.7-3.3-42.8c0-1.5,0.1-3.1,0.2-4.6c0-0.2,0-0.4,0-0.6c-1.1-2.1-2.1-4.2-3-6.4
		c-0.7-1.6-1.3-3.2-1.8-4.9c-0.6-0.1-1.1-0.3-1.7-0.4c-2-0.5-4-1.3-5.8-2.2c-1.8-0.8-3.6-1.8-5.3-2.8c-3.2-1.9-6.3-4.2-9.1-6.8
		c-5.1-4.8-9.4-10.5-12.6-16.8c-2.9-5.6-14-18.7-17.9-33.4c-1.7-6.2-6.5-18.8-4.6-29.5L17.6,74c0,0,0.4-17.4,4.6-26.4
		c6.5-14,16.3-21.3,18.1-23.1c9.6-9.3,24.9-11,34.7-4.1c3.6,2.5,29.6,19.8,27.1,47.8c0,0-3.5-0.3-3.3-0.1c0.7,1,1.3,2.1,1.9,3.2
		c1.2,0.1,2.4,0.3,3.6,0.5c2.2,0.5,4.3,1.1,6.3,2.2c1.9,1,3.6,2.4,5.2,4c0.4,0.4,0.7,0.8,1.1,1.2c3.4,0.7,6.8,1.5,10.3,2
		c4.2,0.7,8.4,1.1,12.6,1.5c8.5,0.8,16.9,1,25.4,1.4c8.5,0.3,17,0.7,25.4,1.6c8.1,0.9,16.4,2.2,23.9,5.9c3.1,1.6,6.1,3.6,8.6,6
		c0.1,0.1,0.1,0.1,0.2,0.2c0.1,0,0.1,0.1,0.2,0.1c5.7,4.4,10.6,10,14.1,16.3c1,1.8,1.9,3.6,2.6,5.5c0.7,2.1,1,4.2,0.9,6.4
		c-0.1,2.3-0.4,4.6-0.6,6.8c0,0.1,0,0.3,0,0.4c-0.4,6.8-6.1,23.5-6.8,30.3c-1.3,12.3,18,31.9,14.9,38.6
		C239.4,221.8,237.7,234.6,237.5,237.1L237.5,237.1z"/>
	<path fill="#352930" d="M90.4,198c0.4-2.2,0.7-3.7,0.9-6c0.3-2.5,0.5-4,0.7-6.7c-9.2,3.7-19.2-4.1-19.2-4.1s3.2,20,2,34.4
		c-0.9,2.2-1.7,4.5-2.5,6.7c-0.3,0.8-0.6,1.6-0.9,2.4c-0.3,0.7-0.5,1.5-0.8,2.2c-0.6,1.2-2,0.9-3,0.8c-1.2-0.2-2.3-0.3-3.4,0.2
		c-1.1,0.4-2,1.3-2.7,2.2c-0.8,1.1-1.5,2.3-2.1,3.5c-0.8,1.5-1.6,3-2.4,4.6c-0.3,0.7-0.3,1.5,0.3,1.9c0.6,0.5,1.7,0.5,2.4,0.5
		c0.7,0.1,1.3,0.1,2,0.1c0,0.3,0.1,0.6,0.3,0.9c0.4,0.5,1.1,0.7,1.6,0.9c0.7,0.2,1.4,0.4,2.1,0.4c1.1,0.1,2.3,0,3.2-0.6
		c0.5,1,1.8,1.3,3,1.2c2.1-0.1,4.2-0.9,6.1-1.8c0.8-0.4,1.6-0.8,2.2-1.5c0.6-0.8,0.9-1.8,1.2-2.8c0.2-0.9,0.4-1.8,0.6-2.7
		c0.2-0.4,0.3-0.8,0.5-1.1c0.4-0.9,0.7-1.8,1-2.7c0.7-1.8,1.4-3.6,2.1-5.4c0.5-1.2,1-2.6,1.4-4c0.2-0.2,0.3-0.5,0.5-0.7
		c0.2-0.3,0.5-0.6,0.7-0.9c0.5-0.5,1.1-0.6,1.6-1c1.4-1.1,0.7-3.2,0.5-4.7c-0.2-1.6-0.5-3.2-0.7-4.8c0-0.2,0.1-0.4,0.1-0.6
		C89.9,207.7,90.2,199.1,90.4,198L90.4,198z"/>
	<path fill="#352930" d="M114.2,209.5c0.5-3.8,0.8-15.2,0.9-19c-2.4,1.3-5,2.3-7.6,3c-2.4,0.6-5,1-7.5,0.6c-1.9-0.3-4.2-1.1-5.8-2.3
		c1.3,6.6,3.2,23.7,2.1,34.4c-1,2.2-1.9,4.5-2.7,6.7c-0.3,0.8-0.6,1.6-0.9,2.4c-0.3,0.7-0.5,1.5-0.9,2.2c-0.7,1.2-2.1,0.9-3.3,0.8
		c-1.2-0.2-2.5-0.3-3.7,0.2c-1.2,0.4-2.1,1.3-2.9,2.2c-0.9,1.1-1.6,2.3-2.3,3.5c-0.8,1.5-1.8,3-2.5,4.6c-0.3,0.7-0.4,1.5,0.3,1.9
		c0.7,0.5,1.8,0.5,2.6,0.5c0.7,0.1,1.4,0.1,2.1,0.1c0,0.3,0.1,0.6,0.4,0.9c0.4,0.5,1.2,0.7,1.8,0.9c0.7,0.2,1.5,0.4,2.3,0.4
		c1.2,0.1,2.4,0,3.5-0.6c0.6,1,1.9,1.3,3.2,1.2c2.3-0.1,8.3-2.5,9-3.2c0.7-0.8,1.7-4.6,1.9-5.5c0.2-0.4,0.3-0.8,0.5-1.1
		c0.4-0.9,0.8-1.8,1.1-2.7c0.8-1.8,1.5-3.6,2.2-5.4c0.5-1.2,1.1-2.6,1.5-4c0.2-0.2,0.3-0.5,0.5-0.7c0.2-0.3,0.5-0.6,0.8-0.9
		c0.5-0.5,1.2-0.6,1.8-1c1.5-1.1,0.8-3.2,0.5-4.7c-0.3-1.6-0.5-3.2-0.8-4.8c0-0.2,0.6-2.7,0.8-3.8
		C113.5,214,113.9,211.7,114.2,209.5L114.2,209.5z"/>
	<path fill="#E3D2D6" d="M187.4,150.8c-1.6-0.1-3.8,0.1-5.4,0.4c-1.8,0.3-3.5,0.7-5.2,1c-1.4,0.2-2.7,0.4-4.1,0.5
		c0.3,0.3,0.5,0.6,0.8,0.9c0.1,0.1,0.1,0.4-0.1,0.4c-2.1,0.5-4.3,0.9-6.5,1.3c-7.6,1.2-15.3,1.5-22.9,0.7c0.5,1,0.9,2,1.7,2.9
		c0.2,0.2,0,0.4-0.2,0.4c-1.8,0.1-3.7,0.2-5.5,0.2c-6.2-0.1-12.3-1.4-18.2-3.4c-0.4,1.1-0.7,2.1-1.1,3.2c-0.8,2.3-1.4,4.6-1.9,6.9
		c-0.1,0.6-0.2,1.3-0.3,2c0.5,0.1,1,0.1,1.4,0.2c3.1,0.4,6.2,0.4,9.3,0.3c6.2-0.3,12.4-1.3,18.4-2.9c12.2-3.1,23.8-8,35.8-11.8
		c2.1-0.7,5.7-1.7,7.8-2.3C190.4,150.8,188.4,150.9,187.4,150.8L187.4,150.8z"/>
	<path fill="#F08342" d="M101.8,88.9c-0.4,1.3-1,2.6-1.6,3.8c-0.6,1.2-1.2,2.3-1.9,3.4c-1.4,2.3-3,4.4-4.7,6.5
		c-3.5,4.2-7.2,8.1-10.3,12.7c-1.6,2.5-3.3,5.4-3.7,8.4c-0.1,0.8,1.1,1,1.4,0.4c0.6-1.2,1.1-2.5,1.7-3.7c0.6-1.2,1.2-2.3,1.9-3.4
		c1.4-2.3,3.1-4.4,4.8-6.5c3.4-4.1,7.2-8.2,9.8-12.9c0.7-1.3,1.3-2.6,1.8-4c0.5-1.5,0.8-2.9,1-4.5C102.2,88.8,101.9,88.7,101.8,88.9
		L101.8,88.9z"/>
	<path fill="#F08342" d="M78.6,121.7c-0.9,1.4-1.5,2.9-1.8,4.5c-0.1,0.8-0.3,1.6-0.3,2.4c0,0.8-0.1,1.7,0.2,2.5
		c0.2,0.5,1.1,0.7,1.2,0c0.1-0.7,0.1-1.5,0.1-2.2c0-0.8,0.1-1.6,0.2-2.3c0.3-1.5,0.7-3,1.2-4.4C79.7,121.6,78.9,121.3,78.6,121.7
		L78.6,121.7z"/>
	<path fill="#D05A34" d="M83.3,133.3c-1.4,2.5-2.1,5.2-2.2,8.1c0,1.4,0.1,2.8,0.3,4.2c0.3,1.4,0.8,2.7,1.5,4
		c0.3,0.5,1.1,0.1,0.9-0.4c-0.9-2.4-1.5-5.1-1.5-7.7c0-2.7,0.5-5.4,1.6-7.9C84,133.3,83.5,132.9,83.3,133.3L83.3,133.3z"/>
	<path fill="#F08342" d="M237.7,136.1c-0.1-0.7-0.2-1.4-0.4-2c-0.3-1.4-0.8-2.7-1.3-4.1c-1-2.7-2.3-5.1-4-7.3
		c-0.2-0.3-0.8-0.1-0.6,0.3c1.3,2.4,2.4,4.9,3.3,7.5c0.4,1.2,0.8,2.5,1.1,3.8c0.2,0.7,0.3,1.3,0.5,2c0.1,0.6,0.2,1.4,0.5,1.9
		c0.2,0.3,0.8,0.3,0.9-0.1C237.9,137.4,237.8,136.7,237.7,136.1L237.7,136.1z"/>
	<path fill="#F08342" d="M235,138.8c-0.4-1.9-1-3.7-1.8-5.4c-0.2-0.3-0.7-0.1-0.6,0.3c0.7,1.7,1.2,3.5,1.5,5.3
		c0.3,1.8,0.3,3.6,0.6,5.4c0,0.2,0.4,0.2,0.4,0C235.6,142.5,235.3,140.6,235,138.8L235,138.8z"/>
	<path fill="#F08342" d="M232.8,143c-0.2-0.4-0.7-0.2-0.5,0.2c0.5,1.2,0.8,2.5,0.9,3.8c0,0.3,0.4,0.3,0.4,0
		C233.6,145.6,233.3,144.3,232.8,143L232.8,143z"/>
	<path fill="#F08342" d="M109.6,85.9c0-0.1-0.1-0.1-0.1,0c-0.1,0.7-0.3,1.3-0.5,2c-0.2,0.7-0.3,1.3-0.5,2c-0.3,1.3-0.6,2.7-1,4
		c-0.7,2.4-1.8,4.7-3.1,6.9c-2.5,4.1-5.9,7.6-9.5,10.8c-1,0.9-2,1.8-3.1,2.6c-1,0.9-2.2,1.7-2.9,2.8c-0.2,0.4,0.2,1,0.6,0.8
		c1.2-0.5,2.1-1.3,3.1-2.1c1-0.8,1.9-1.6,2.9-2.4c1.9-1.6,3.7-3.3,5.3-5.2c3.4-3.7,6.1-7.9,7.6-12.8c0.5-1.5,0.8-3.1,1-4.6
		c0.1-0.7,0.2-1.5,0.2-2.3C109.6,87.6,109.5,86.8,109.6,85.9L109.6,85.9z"/>
	<path fill="#F08342" d="M211.1,91.5c-1.2-0.7-2.7-1-4-1.5c-1.3-0.5-2.7-0.8-4.1-1.2c-2.8-0.7-5.5-1.2-8.4-1.6
		c-5.8-0.7-11.6-1.2-17.4-1.4c-5.8-0.3-11.5-0.4-17.3-0.5c-5.8-0.1-11.6-0.2-17.3-0.6c-3.2-0.3-6.3-0.6-9.4-1.1
		c-1.6-0.3-3.2-0.6-4.8-0.9c-0.8-0.2-1.5-0.3-2.3-0.5c-0.8-0.1-1.7-0.2-2.5-0.4c-0.1,0-0.2,0.1-0.1,0.2c1.3,0.5,2.5,1.1,3.8,1.5
		c1.3,0.4,2.7,0.7,4.1,1.1c2.8,0.6,5.6,1.2,8.4,1.6c5.7,0.9,11.5,1.5,17.3,1.9c11.5,0.9,23.1,0.7,34.5,2.1c3.1,0.4,6.3,0.8,9.4,1.3
		c1.6,0.3,3.2,0.5,4.8,0.8c1.6,0.3,3.2,0.7,4.8,0.8C211.7,93.3,211.9,91.9,211.1,91.5L211.1,91.5z"/>
	<path fill="#D05A34" d="M217.2,242.1c-0.4,0.1-0.8,0.2-1.2,0.3c-0.4,0.2-0.8,0.4-1.1,0.6c-0.6,0.5-1.2,1-1.6,1.7
		c-0.9,1.2-1.8,3-1.4,4.5c0.1,0.3,0.5,0.3,0.6,0.1c0.6-1.3,0.9-2.7,1.7-3.9c0.4-0.6,0.9-1.1,1.4-1.6c0.3-0.2,0.5-0.5,0.8-0.7
		c0.3-0.2,0.7-0.6,1-0.8C217.5,242.3,217.4,242,217.2,242.1L217.2,242.1z"/>
	<path fill="#D05A34" d="M223.1,245.5c-0.7,0.8-1.3,1.8-1.6,2.9c-0.3,0.9-0.6,2.4-0.1,3.3c0.2,0.3,0.7,0.4,0.9,0
		c0.3-0.8,0.2-1.8,0.4-2.7c0.2-1,0.6-1.9,1.1-2.7C224.1,245.8,223.5,245,223.1,245.5L223.1,245.5z"/>
	<path fill="#352930" d="M243.2,202.5c-2.2,1.8-4.6,3.3-7.3,4.5c-1.7,0.7-3.6,1.3-5.4,1.4c-0.1,9.7-9,29.8-9,29.8
		c-1.4,0.3-6.8,1.4-8,2.1c-2.5,1.5-3.6,4.5-4.5,7.2c-0.2,0.5,0.2,0.8,0.6,0.8c0.9,0.1,1.8,0.3,2.7,0.4c-0.1,0.1-0.1,0.2-0.2,0.2
		c-0.2,0.3,0,0.6,0.2,0.8c1.5,1,3.1,1.6,4.9,2c0.8,0.2,1.7,0.3,2.6,0.3c0.4,0,0.9,0,1.4,0c0.2,0,0.4-0.1,0.5-0.2
		c1.1,1.1,4,1.1,5.4,0.8c3.9-0.8,5.7-5.1,7.1-8.4c0,0,0.7,0.5,2.1-0.5c1-0.8,1.4-5.5,1.5-6.8c0.1-2.4,3.1-14.8,11-34.8
		c0.7-1.7,0.4-3.2-0.1-4.4C246.7,199.5,245,201.1,243.2,202.5L243.2,202.5z"/>
	<path fill="#F08342" d="M237.7,121.3c-0.8-2.6-2.1-5.1-3.4-7.5c-2.8-4.9-6.6-9.3-10.7-13.2c-2.3-2.2-4.7-4.3-7.3-6.1
		c-0.3-0.2-0.5,0.2-0.3,0.4c3.8,4,7.9,7.7,11.4,12c3.5,4.2,6.3,8.8,8.3,13.8c0.6,1.4,1.1,2.8,1.5,4.3c0.4,1.5,0.7,3,1.2,4.5
		c0.1,0.4,0.8,0.3,0.8-0.1C239.3,126.7,238.5,123.8,237.7,121.3L237.7,121.3z"/>
	<path fill="#F08342" d="M123.8,136.7c-0.4-2.8-1-5.6-1.9-8.2c-0.9-2.6-2.1-5.1-3.4-7.5c-1.4-2.4-3.1-4.6-4.9-6.7
		c-0.2-0.3-0.6,0.1-0.4,0.4c1.7,2.1,3.2,4.6,4.4,7c1.2,2.4,2.2,4.8,3,7.4c0.8,2.5,1.3,5.1,1.7,7.7c0.3,2.7,0.4,5.4,0.6,8.1
		c0,0.4,0.7,0.6,0.8,0.1C124.3,142.2,124.2,139.5,123.8,136.7L123.8,136.7z"/>
	<path fill="#F08342" d="M122.2,147.4c-0.1-1-0.3-2-0.5-3c-0.5-1.9-1.2-3.8-2-5.6c-0.2-0.5-1-0.1-0.8,0.3c0.7,1.8,1.2,3.7,1.6,5.6
		c0.2,1,0.4,1.9,0.5,2.9c0.1,0.9,0.1,1.8,0.5,2.6c0.2,0.4,0.7,0.2,0.9-0.1C122.5,149.4,122.3,148.3,122.2,147.4L122.2,147.4z"/>
	<path fill="#D05A34" d="M91.7,171.5c-0.1-0.8-0.5-1.6-0.8-2.3c-0.3-0.8-0.6-1.5-0.9-2.3c-0.6-1.5-1.1-3-1.6-4.5
		c-1-3.1-2-6.2-2.9-9.3c-0.1-0.4-0.6-0.2-0.5,0.2c0.5,3.3,1.2,6.5,2.2,9.7c0.5,1.6,1,3.1,1.6,4.7c0.5,1.4,1,3.2,1.9,4.4
		C91.1,172.4,91.8,172.1,91.7,171.5L91.7,171.5z"/>
	<path fill="#D05A34" d="M96.2,186.4c-0.2-0.8-0.4-1.6-0.5-2.4c-0.2-1.6-0.2-3.2-0.1-4.8c0-0.4-0.6-0.5-0.7-0.1
		c-0.5,1.7-0.6,3.3-0.4,5.1c0.2,1.4,0.5,3.5,1.5,4.6c0.3,0.3,0.8,0.1,0.8-0.3C96.7,187.7,96.4,187.1,96.2,186.4L96.2,186.4z"/>
	<path fill="#F08342" d="M76.7,158.6c-0.3-0.9-1.4-1.6-2.1-2.2c-0.8-0.8-1.6-1.7-2.3-2.6c-1.4-1.8-2.5-3.9-3.3-6
		c-0.1-0.3-0.6-0.2-0.5,0.2c0.6,2.4,1.6,4.6,3,6.6c0.7,1,1.4,1.9,2.3,2.7c0.7,0.7,1.7,1.9,2.7,1.9C76.6,159.1,76.8,158.8,76.7,158.6
		L76.7,158.6z"/>
	<path fill="#F08342" d="M84.4,162.8c-0.4-0.5-0.9-0.7-1.3-1.2c-0.4-0.4-0.8-0.8-1.3-1.2c-0.9-0.8-1.7-1.6-2.4-2.6
		c-1.5-1.8-2.8-3.9-3.7-6c-0.2-0.3-0.7-0.1-0.6,0.2c0.5,2.5,1.5,4.8,3.1,6.9c0.8,1,1.6,1.9,2.6,2.8c0.9,0.8,2.1,1.7,3.2,1.9
		C84.4,163.8,84.7,163.2,84.4,162.8L84.4,162.8z"/>
	<path fill="#D05A34" d="M190.2,123.2c-0.7-1.1-1.5-2.3-2.7-2.9c-0.3-0.2-0.7,0.2-0.5,0.5c0.6,1.1,1.5,2.1,2.1,3.2
		c0.3,0.5,0.7,1.1,1,1.7c0.3,0.5,0.5,1,1,1.2c0.2,0.1,0.5,0,0.5-0.2C192,125.5,190.8,124.1,190.2,123.2L190.2,123.2z"/>
	<path fill="#D05A34" d="M191.6,120.3c-0.4-0.6-0.8-1.3-1.3-1.9c-0.5-0.6-1-1.3-1.7-1.6c-0.2-0.1-0.5,0.1-0.4,0.3
		c0.1,0.7,0.6,1.4,0.9,2c0.4,0.7,0.8,1.3,1.2,1.9c0.4,0.7,0.8,1.3,1.1,2c0.4,0.6,0.7,1.4,1.2,1.9c0.3,0.3,1,0.1,1-0.4
		C193.4,123.1,192.3,121.5,191.6,120.3L191.6,120.3z"/>
	<path fill="#CEBFC5" d="M148.7,162.2c-1.9,0.1-3.8,0.7-5.6,1c-2,0.4-4,0.7-6,1c-1.9,0.2-3.8,0.4-5.7,0.5c-1.9,0.1-3.9-0.1-5.8,0.3
		c-0.2,0-0.2,0.4,0,0.5c1.8,0.5,3.9,0.5,5.8,0.4c2,0,4-0.2,6.1-0.4c1.9-0.2,3.8-0.5,5.7-0.9c1.9-0.4,4-0.8,5.7-1.8
		C149.1,162.6,149,162.2,148.7,162.2L148.7,162.2z"/>
	<path fill="#CEBFC5" d="M165.7,158.2c-3.7,0.7-7.4,1.7-11.1,2.7c-0.1,0-0.1,0.1,0,0.1c3.8-0.5,7.6-1.2,11.2-2.4
		C166,158.5,166,158.2,165.7,158.2L165.7,158.2z"/>
	<path fill="#D05A34" d="M200.1,168.8c-1.1-2.1-2.1-4.2-2.8-6.4c-0.7-2.2-1.2-4.5-1.5-6.8c-0.7-5.1-0.5-10.3-1.1-15.4
		c-0.2-1.5-0.4-2.9-0.7-4.4c-0.3-1.4-0.9-2.7-1.5-4c-0.1-0.2-0.4,0-0.3,0.1c0.3,1.4,0.3,2.8,0.5,4.2c0.2,1.3,0.3,2.6,0.3,4
		c0.1,2.7,0.2,5.5,0.3,8.2c0.1,4.8,0.3,9.8,1.9,14.3c0.8,2.4,2.3,4.9,4.3,6.6C199.8,169.5,200.3,169.2,200.1,168.8L200.1,168.8z"/>
	<path fill="#F08342" d="M235.2,175.9c-0.2-0.5-0.5-0.9-0.8-1.4c-0.3-0.5-0.5-1-0.8-1.6c-0.5-1-0.8-2-1.1-3.1
		c-0.6-2.1-0.9-4.4-0.8-6.6c0.1-2.4,0.8-4.7,1.5-7c0.3-1.1,0.7-2.2,1-3.4c0.3-1.3,0.4-2.5,0.6-3.8c0-0.3-0.4-0.5-0.5-0.1
		c-0.3,1.3-1,2.6-1.5,3.8c-0.5,1.2-0.9,2.4-1.4,3.6c-0.9,2.3-1.5,4.8-1.5,7.3c-0.1,2.3,0.3,4.7,1.1,6.9c0.4,1.1,0.9,2.1,1.5,3.1
		c0.5,0.9,1.3,2.1,2.1,2.7C234.9,176.7,235.4,176.3,235.2,175.9L235.2,175.9z"/>
	<path fill="#F08342" d="M118.6,145.8c-0.2-1-0.4-1.9-0.8-2.9c-0.3-1-0.8-1.9-1.3-2.8c-0.1-0.3-0.6-0.1-0.5,0.2
		c0.6,1.8,0.9,3.8,1.2,5.7c0.3,2,0.4,3.9,0.4,5.9c-0.1,3.9-0.8,7.9-2,11.6c-0.1,0.4,0.5,0.7,0.7,0.3c2-3.7,2.8-7.7,2.9-11.8
		C119.2,149.9,119,147.8,118.6,145.8L118.6,145.8z"/>
	<path fill="#F08342" d="M116.3,166c0-0.4-0.6-0.4-0.6,0c-0.3,2.5-0.4,5.1-0.5,7.6c-0.1,2.4-0.3,4.9,0.1,7.4c0.1,0.3,0.6,0.3,0.6,0
		c0.6-2.4,0.5-4.9,0.5-7.4C116.4,171,116.4,168.5,116.3,166L116.3,166z"/>
	<path fill="#F08342" d="M114.2,183.1c-0.3,1.6-0.7,3.4-0.6,5.1c0,0.3,0.5,0.4,0.6,0.1c0.5-1.6,0.5-3.4,0.6-5.1
		C114.8,182.9,114.2,182.8,114.2,183.1L114.2,183.1z"/>
	<path fill="#D05A34" d="M88.9,129.8c-2.4,2.2-3.9,5.3-4.6,8.5c-0.4,1.6-0.6,3.2-0.6,4.8c0,0.9,0.1,1.7,0.2,2.6
		c0.1,0.7,0.2,1.7,0.6,2.3c0.2,0.3,0.8,0.3,0.9-0.1c0.1-0.7-0.1-1.5-0.2-2.2c-0.1-0.8-0.1-1.6-0.2-2.3c0-1.6,0.1-3.2,0.5-4.7
		c0.7-3.1,2.1-5.9,3.6-8.7C89.1,129.9,89,129.8,88.9,129.8L88.9,129.8z"/>
	<path fill="#D05A34" d="M87,146.2c0-0.7,0-1.4,0.2-2c0.1-0.5-0.6-0.7-0.8-0.2c-0.5,1.2-0.7,3.2,0.1,4.3c0.2,0.3,0.8,0.2,0.7-0.2
		C87.3,147.5,87.1,146.9,87,146.2L87,146.2z"/>
	<path fill="#534450" d="M100.8,218.1c-0.1-1.8-0.2-3.6-0.4-5.5c-0.4-3.4-0.9-14.6-2.3-17.7c-0.1-0.3-0.7-0.2-0.7,0.2
		c0,1.7,0.3,3.4,0.6,5.1c0.2,1.7,0.4,11,0.6,12.7c0.2,1.7,0.3,3.3,0.3,5c0,0.9,0.1,1.7,0.2,2.6c0.1,0.8,0,1.8,0.3,2.5
		c0.2,0.4,0.9,0.7,1.1,0.1c0.3-0.7,0.3-1.6,0.3-2.3C100.8,219.9,100.8,219,100.8,218.1L100.8,218.1z"/>
	<path fill="#534450" d="M99,226.1c0-0.2-0.3-0.3-0.5-0.1c-0.8,0.7-1.1,1.9-1.5,2.9c-0.5,1.1-0.9,2.1-1.4,3.2
		c-0.8,2-1.9,4.1-2.1,6.3c0,0.3,0.5,0.6,0.7,0.3c1.4-1.7,2.2-4.1,2.9-6.1c0.4-1.1,0.8-2.2,1.1-3.3C98.6,228.3,99.2,227.1,99,226.1
		L99,226.1z"/>
	<path fill="#534450" d="M79,198.8c-0.1-1.1-0.2-2.3-0.4-3.4c-0.3-2.3-0.6-4.6-1.1-6.9c-0.8-4.5-2.1-4.3-1.4,0.2
		c0.4,2.3,0.7,4.5,0.9,6.8c0.1,1.1,0.2,2.3,0.4,3.4c0.1,1.1,0.1,9.8,0.5,10.8c0.2,0.4,0.9,0.5,1,0C79.2,208.6,79.1,199.9,79,198.8
		L79,198.8z"/>
	<path fill="#534450" d="M77.5,212.4c-1,2-1.6,4.2-2.3,6.3c-0.4,1.1-0.8,2.2-1.2,3.3c-0.4,1-0.8,2.1-0.9,3.1c0,0.4,0.5,0.6,0.8,0.3
		c0.6-0.8,1-1.8,1.4-2.8c0.4-1.1,0.8-2.3,1.2-3.4c0.7-2.1,1.5-4.4,1.7-6.6C78.2,212.3,77.7,212.1,77.5,212.4L77.5,212.4z"/>
	<path fill="#534450" d="M63.7,229.9c-1.2,0.8-2.1,2.3-2.9,3.5c-0.7,1.3-1.6,2.8-1.7,4.3c0,0.4,0.5,0.4,0.7,0.2
		c0.8-1.2,1.3-2.7,1.9-3.9c0.7-1.3,1.6-2.5,2.2-3.8C64,230,63.9,229.8,63.7,229.9L63.7,229.9z"/>
	<path fill="#534450" d="M67.2,232.5c-1,1-1.9,1.9-2.6,3.1c-0.6,1.1-1.4,2.5-1.4,3.7c0,0.6,0.7,0.7,1,0.3c0.7-1,1.1-2.3,1.7-3.4
		c0.6-1.1,1.1-2.3,1.8-3.3C68,232.6,67.5,232.3,67.2,232.5L67.2,232.5z"/>
	<path fill="#534450" d="M84.4,240.8c-1.2,0.9-2.2,1.9-3.1,3.2c-0.9,1.2-1.7,2.5-2,3.9c-0.1,0.5,0.5,0.7,0.7,0.3
		c0.8-1.1,1.4-2.4,2.2-3.6c0.8-1.2,1.7-2.4,2.6-3.4C85.1,240.9,84.7,240.5,84.4,240.8L84.4,240.8z"/>
	<path fill="#534450" d="M87.4,243c-1.3,0.9-2.3,2-3.1,3.4c-0.7,1.2-1.5,3-1.2,4.4c0.1,0.5,0.8,0.5,1,0.1c0.3-0.5,0.4-1.2,0.6-1.8
		c0.2-0.7,0.5-1.3,0.8-1.9c0.6-1.2,1.4-2.4,2.3-3.5C88.2,243.3,87.8,242.7,87.4,243L87.4,243z"/>
	<path fill="#534450" d="M94.3,243.8c-0.9,1-1.6,1.9-2.1,3.2c-0.4,1.1-0.8,2.6-0.4,3.8c0.1,0.5,0.7,0.4,0.9,0c0.4-1,0.4-2.2,0.8-3.3
		c0.4-1.1,0.8-2.3,1.4-3.2C95.1,243.9,94.6,243.5,94.3,243.8L94.3,243.8z"/>
	<path fill="#534450" d="M71.8,233.8c-1.4,1.4-2.7,4.1-1.8,6.1c0.2,0.3,0.7,0.3,0.8-0.1c0.2-0.9,0.1-1.9,0.3-2.8
		c0.2-1,0.7-1.9,1.2-2.7C72.7,233.9,72.1,233.5,71.8,233.8L71.8,233.8z"/>
	<path fill="#534450" d="M231.8,209.3c-0.7,2.4-1.2,5-1.9,7.4c-0.7,2.5-1.3,5-2.1,7.5c-0.7,2.4-1.6,4.9-2.4,7.3
		c-0.4,1.2-0.9,2.4-1.4,3.6c-0.5,1.2-1,2.5-1.3,3.8c-0.1,0.5,0.5,0.8,0.8,0.3c0.8-1.1,1.3-2.3,1.8-3.5c0.5-1.2,1-2.4,1.4-3.6
		c0.9-2.4,1.7-4.9,2.5-7.4c0.8-2.5,1.5-5,2-7.6c0.6-2.5,1.1-5.1,1.3-7.7C232.7,209,231.9,208.9,231.8,209.3L231.8,209.3z"/>
	<path fill="#534450" d="M213.1,241.5c-0.8,0.5-1.4,1.6-1.8,2.5c-0.5,0.9-0.7,1.9-0.9,2.9c0,0.3,0.4,0.4,0.5,0.1
		c0.4-0.9,0.9-1.8,1.3-2.6c0.4-0.8,1.1-1.5,1.4-2.4C213.9,241.6,213.4,241.3,213.1,241.5L213.1,241.5z"/>
	<path fill="#534450" d="M217.7,242.8c-0.9,0.5-1.5,1.7-2,2.5c-0.6,1-1,2-1.4,3.1c-0.2,0.5,0.5,0.7,0.8,0.3c0.5-0.9,1.1-1.9,1.7-2.8
		c0.5-0.8,1.3-1.7,1.6-2.6C218.6,242.9,218.1,242.6,217.7,242.8L217.7,242.8z"/>
	<path fill="#534450" d="M224.7,244.5c-1,0.5-1.7,1.7-2.1,2.6c-0.4,1-0.7,2.2-0.6,3.4c0.1,0.5,0.8,0.7,0.9,0.1c0.2-1,0.4-2,0.9-2.9
		c0.4-0.9,1.1-1.7,1.5-2.5C225.6,244.7,225.2,244.3,224.7,244.5L224.7,244.5z"/>
	<path fill="#534450" d="M206.1,209.4c0-0.2-0.3-0.2-0.4,0c-0.5,2-0.8,4.1-1.2,6.1c-0.4,2-1,4-1.7,6c-0.7,2-1.5,4-2.5,5.8
		c-0.4,0.9-0.9,1.8-1.4,2.6c-0.5,0.9-1.2,1.8-1.4,2.8c-0.1,0.4,0.4,0.8,0.7,0.6c0.8-0.6,1.4-1.6,1.9-2.5c0.5-0.9,1-1.8,1.5-2.8
		c1-2,1.8-4,2.5-6.1c0.7-2.1,1.2-4.2,1.6-6.3C206.1,213.6,206.4,211.5,206.1,209.4L206.1,209.4z"/>
	<path fill="#534450" d="M188,236.9c-1.4,0.8-2.4,2.7-2.4,4.3c0,0.2,0.3,0.4,0.4,0.2c0.5-0.6,0.9-1.3,1.3-2c0.4-0.7,0.9-1.3,1.2-2.1
		C188.7,237,188.3,236.8,188,236.9L188,236.9z"/>
	<path fill="#534450" d="M193.1,238.3c-1.7,0.9-3.2,3.3-3.3,5.2c0,0.4,0.6,0.6,0.8,0.2c0.5-0.8,0.8-1.8,1.3-2.6
		c0.5-0.8,1.2-1.5,1.7-2.3C193.8,238.5,193.4,238.2,193.1,238.3L193.1,238.3z"/>
	<path fill="#534450" d="M198.6,240.4c-1.4,1.1-2.5,2.6-2.8,4.4c-0.1,0.4,0.5,0.7,0.7,0.3c0.8-1.4,1.6-3,2.6-4.3
		C199.3,240.4,198.9,240.2,198.6,240.4L198.6,240.4z"/>
	<path fill="#0F0909" d="M113.2,193.3c-0.1-0.3-0.5-0.3-0.6-0.1c-0.6,1.4-0.7,3.2-1,4.7c-0.3,1.7-0.6,11-1,12.7
		c-0.3,1.7-0.7,3.3-1.1,4.9c-0.4,1.6-0.9,3.3-0.9,5c0,0.5,0.7,0.7,1,0.3c0.9-1.4,1.2-3.2,1.6-4.8c0.4-1.7,0.7-3.4,1-5.1
		c0.3-1.6,0.5-10.8,0.7-12.5C113.2,196.8,113.6,195,113.2,193.3L113.2,193.3z"/>
	<path fill="#0F0909" d="M110.6,223.4c-0.3-0.5-1.1-0.2-1,0.4c0.3,1,0.3,2.2-0.1,3.3c-0.2,0.5-0.5,0.9-0.8,1.3
		c-0.4,0.4-0.9,0.8-0.9,1.4c-0.1,0.4,0.1,0.8,0.5,0.9c1.6,0.4,2.6-1.7,3-3C111.7,226.2,111.5,224.6,110.6,223.4L110.6,223.4z"/>
	<path fill="#0F0909" d="M106.4,232.2c-1.3,2.5-2.5,5-3.4,7.6c-0.5,1.3-0.9,2.6-1.3,3.9c-0.4,1.2-1.1,2.8-0.7,4.1
		c0.2,0.6,0.8,0.7,1.3,0.3c0.9-0.8,1.1-2.4,1.4-3.6c0.4-1.4,0.8-2.7,1.2-4.1c0.8-2.6,1.6-5.3,2.3-8
		C107.3,232.1,106.6,231.8,106.4,232.2L106.4,232.2z"/>
	<path fill="#0F0909" d="M88,193.4c-0.3,1.7-0.6,3.4-0.8,5.1c-0.1,0.8-0.2,9.2-0.3,10c-0.1,0.8-0.2,1.8,0,2.6c0.1,0.5,0.8,0.5,1,0.1
		c0.4-0.7,0.5-1.5,0.7-2.3c0.2-0.8,0.3-9.2,0.4-10.1c0.3-1.8,0.5-3.5,0.7-5.3C90.2,190.1,88.5,189.9,88,193.4L88,193.4z"/>
	<path fill="#0F0909" d="M88.7,212.5c-0.2-0.3-0.8-0.1-0.7,0.3c0.3,0.7,0.1,1.6-0.3,2.3c-0.4,0.6-1.2,0.9-1.4,1.6
		c-0.1,0.2,0,0.5,0.3,0.6c1.1,0.7,2.2-0.7,2.5-1.6C89.6,214.5,89.4,213.4,88.7,212.5L88.7,212.5z"/>
	<path fill="#0F0909" d="M85.5,220.4c-1.3,2.6-2.6,5.2-3.7,7.8c-0.6,1.3-1.1,2.6-1.7,3.8c-0.5,1.2-1.2,2.6-1.3,4
		c0,0.4,0.6,0.7,0.9,0.4c0.9-1,1.4-2.5,1.9-3.7c0.6-1.3,1.1-2.6,1.6-3.9c1.1-2.7,2.2-5.4,3.1-8.1C86.3,220.3,85.7,220,85.5,220.4
		L85.5,220.4z"/>
	<path fill="#0F0909" d="M247.4,201.1c-1,1.3-1.6,2.9-2.3,4.4c-0.6,1.4-1.3,2.8-1.8,4.2c-1.2,2.9-2.3,5.9-3.3,8.9c-1,3-2,6-2.9,9
		c-0.4,1.5-0.9,3-1.3,4.5c-0.4,1.6-0.8,3.1-0.8,4.8c0,0.6,0.9,0.9,1.2,0.3c0.8-1.5,1.1-3,1.6-4.6c0.4-1.5,0.8-3,1.2-4.5
		c0.9-3,1.8-6,2.8-8.9c1-3,2-5.9,3.1-8.8c0.5-1.5,1-2.9,1.5-4.4c0.6-1.5,1.2-3.1,1.5-4.7C248,201,247.6,200.9,247.4,201.1
		L247.4,201.1z"/>
	<path fill="#0F0909" d="M235.7,239.8c-0.2-0.3-0.6-0.1-0.5,0.2c0.1,0.5,0,1-0.3,1.4c-0.2,0.4-0.7,0.6-0.8,1
		c-0.1,0.2,0.1,0.5,0.3,0.6c0.7,0.2,1.3-0.6,1.5-1.2C236.2,241.1,236.1,240.4,235.7,239.8L235.7,239.8z"/>
	<path fill="#0F0909" d="M232,243.8c-0.3,0.9-0.8,1.9-1.3,2.7c-0.2,0.4-0.5,0.8-0.8,1.2c-0.3,0.4-0.7,0.7-0.9,1.1
		c-0.2,0.4,0.1,1,0.6,0.8c1-0.3,1.8-1.6,2.3-2.4c0.6-1.1,0.7-2.1,0.7-3.3C232.6,243.5,232.1,243.5,232,243.8L232,243.8z"/>
	<path fill="#0F0909" d="M216.8,207.3c-2.6,3.9-4.3,8.4-5.8,12.8c-0.8,2.2-1.4,4.5-1.9,6.8c-0.3,1.2-0.6,2.3-0.7,3.5
		c-0.2,1.1-0.4,2.2-0.2,3.3c0.1,0.4,0.7,0.5,0.9,0.1c0.5-1,0.7-2.2,1-3.3c0.2-1.1,0.4-2.1,0.7-3.2c0.5-2.3,1.2-4.5,1.9-6.8
		c1.4-4.4,3.2-8.7,4.8-13C217.5,207.2,217,207.1,216.8,207.3L216.8,207.3z"/>
	<path fill="#0F0909" d="M206.9,236.3c0-0.4-0.6-0.4-0.6,0c-0.1,1.5-0.9,3.2-1.6,4.5c-0.4,0.7-0.8,1.3-1.4,1.9
		c-0.5,0.5-1.3,1-1.6,1.6c-0.2,0.4,0,0.9,0.5,0.9c0.8-0.1,1.5-0.8,2.1-1.4c0.6-0.7,1.2-1.5,1.7-2.3c0.4-0.8,0.7-1.7,0.9-2.5
		C207,238.1,206.9,237.2,206.9,236.3L206.9,236.3z"/>
	<path fill="#ED7634" d="M21.2,12.1c0.2-2.1,0.3-4.4,1-6.3c0.6-1.5,1.7-3,3.4-3c0.9,0,1.8,0.5,2.6,1c1,0.6,2,1.3,3,1.9
		c1.7,1.2,3.3,2.5,4.9,3.8c2,1.8,9.7,9.3,9.5,12.1c-0.2,2.6-2.4,4.3-4.4,5.6c-2.5,1.6-4.8,3.2-7,5.1c-2.5,2.2-4.8,4.7-6.8,7.4
		c-0.4,0.5-2.2,3-2.5,2.3C21.1,33.3,20.3,21.5,21.2,12.1L21.2,12.1z"/>
	<path fill="#E3D2D6" d="M98.4,67.8c3.7,4.5,3.5,9.1,0.7,14.1c-0.8,2.2-1.9,4.3-3.2,6.2c-1.4,2.2-3,4.2-4.5,6.3c-0.8,1-1.6,2-2.4,3
		c-0.7,0.9-3.1,4.6-2.9,4.4c0.2-0.1-0.6-2.4-0.6-2.6c-1,1.2-2,2.4-3,3.4c-2.3,2.5-4.7,5-6.8,7.7c-4.3,5.4-8,11.4-10.9,17.7
		c-0.3,0.6-1.8-2.8-1.8-4.1c-1.2,1.7-2.1,3.2-2.6,4.5c-9,23.3,26.2,38,26.2,38c-37.2-0.9-59.3-42.6-61.6-57.9l-1.4,2.8
		c-3.2-9.6-4.6-20.7-4-35.1l-2.6,1.8c0,0-0.3-8.3,1.1-13.1c1.2-4.3,23.5-17.6,33.7,5.7c0,0,10.2-0.2,10.2-0.2
		c6-20.1,22.7-14,31-10.1c6.4,3,9.1,7.6,9.1,7.6C98.4,67.8,98.4,67.8,98.4,67.8L98.4,67.8z"/>
	<path fill="#E3D2D6" d="M23.7,13.5c0.1-1.7,0.2-3.3,0.3-5C24.1,7.3,24.6,6,26,6c1.4,0,2.7,1.2,3.7,2c1.2,0.9,2.4,1.8,3.6,2.8
		c2.5,2.2,5,4.6,6.8,7.4c1.1,1.6,2.1,3.6,2.3,5.6c0,0-4.8,5.8-7.7,8.2c-1.8,1.5-7.2,6.5-8.4,5.7c-0.5-0.4-0.7-1-0.9-1.6
		c-0.2-0.8-0.4-1.6-0.6-2.5C23.4,26.9,23.3,20.1,23.7,13.5L23.7,13.5z"/>
	<path fill="#ED7634" d="M99.8,12.1c-0.2-2.1-0.3-4.4-1-6.3c-0.6-1.5-1.7-3-3.4-3c-0.9,0-1.8,0.5-2.6,1c-1,0.6-2,1.3-3,1.9
		c-1.7,1.2-3.3,2.5-4.9,3.8c-2,1.8-9.7,9.3-9.5,12.1c0.2,2.6,2.4,4.3,4.4,5.6c2.4,1.6,4.8,3.2,7,5.1c2.5,2.2,4.8,4.7,6.8,7.4
		c0.4,0.5,2,3,2.4,2.3C99.7,33.3,100.6,21.5,99.8,12.1L99.8,12.1z"/>
	<path fill="#E3D2D6" d="M97.3,13.5c-0.1-1.7-0.2-3.3-0.3-5C96.9,7.3,96.4,6,95,6c-1.4,0-2.7,1.2-3.7,2c-1.2,0.9-2.4,1.8-3.6,2.8
		c-2.5,2.2-5,4.6-6.8,7.4c-1.1,1.6-2.1,3.6-2.3,5.6c0,0,4.8,5.8,7.7,8.2c1.8,1.5,7.2,6.5,8.4,5.7c0.5-0.4,0.7-1,0.9-1.6
		c0.2-0.8,0.4-1.6,0.6-2.5C97.6,26.9,97.6,20.1,97.3,13.5L97.3,13.5z"/>
	<path fill="#CEBFC5" d="M65,85.9c-0.6,0.2-1.3,0.6-1.8,0.9c-0.6,0.3-1.3,0.6-2,0.9c-1.3,0.5-2.7,0.7-4.1,0.6
		c-1.3-0.1-2.6-0.4-3.8-0.9c-1.2-0.5-2.3-1.4-3.6-1.6c-0.1,0-0.3,0.1-0.3,0.2c0.3,1.4,1.7,2.3,2.9,3c1.4,0.7,3,1.2,4.6,1.3
		c1.6,0.1,3.3-0.1,4.8-0.7c0.8-0.3,1.5-0.7,2.2-1.2c0.6-0.4,1.4-1.1,1.7-1.8C65.9,86.2,65.5,85.8,65,85.9L65,85.9z"/>
	<path fill="#FCEEED" d="M84.1,62.8c-0.8,0-1.7,0.7-2.4,1.2c-0.8,0.5-1.5,1.1-2.3,1.7c-1.4,1.2-2.8,2.4-4,3.7
		c-1.3,1.3-2.5,2.7-3.6,4.2c-1.1,1.5-2.2,3-2.7,4.7c-0.1,0.4,0.4,0.6,0.6,0.4c1.4-1.1,2.5-2.5,3.7-3.9c1.2-1.3,2.4-2.7,3.7-3.9
		c1.2-1.2,2.5-2.4,3.9-3.5c0.7-0.6,1.4-1.1,2.1-1.7c0.6-0.5,1.5-1.1,1.8-1.9C84.9,63.3,84.5,62.8,84.1,62.8L84.1,62.8z"/>
	<path fill="#FCEEED" d="M83.3,68.6c-0.9-0.5-2.3-0.1-3.2,0.2c-1,0.3-2,0.7-2.9,1.1c-1.9,0.9-3.7,2.3-4.9,4
		c-0.3,0.4,0.3,0.9,0.6,0.6c1.6-1.2,3.3-2.3,5.1-3.1c0.9-0.4,1.8-0.7,2.8-1c0.9-0.2,2-0.3,2.8-0.9C83.8,69.4,83.7,68.7,83.3,68.6
		L83.3,68.6z"/>
	<path fill="#0F0909" d="M67.6,79.2c-2.6,2.7-6.2,3.7-9.9,3.8c0.3-1.1,0.1-2.4,0.1-3.5c0-0.6,0-1.1,0-1.7c0.8,0,1.5-0.2,2.2-0.6
		c1-0.6,1.6-1.5,2-2.5c0.5-1.1,0.9-2.4,1.1-3.6c0.2-1.1,0.5-2.6-0.5-3.5c-1-0.9-7-0.8-8.4-0.5c-1.1,0.2-2.6,0.5-3.3,1.5
		c-0.7,1.1,0.2,2.7,0.6,3.7c0.5,1.3,1.1,2.7,1.9,3.9c1,1.4,2.9,1.5,3.2,1.6c0,0.6,0,1.1,0,1.7c0,1.1-0.2,2.5,0.1,3.6
		c-4.2,0-7.8-1.6-10.6-4.7c-0.1-0.1-0.2,0-0.2,0.1c1.3,4.5,6.6,6.2,10.8,6.2c0.6,0,1.3,0,1.9-0.1c1.6-0.1,3.3-0.3,4.9-0.8
		c0.8-0.3,1.8-0.8,2.7-1.4c1.1-0.7,1.9-1.5,2.3-2.8C68.5,79.2,67.9,78.8,67.6,79.2L67.6,79.2z"/>
	<path fill="#CEBFC5" d="M49.3,78c-0.4-0.6-0.9-1.1-1.4-1.7c-0.4-0.6-0.8-1.4-1.1-2.1c-0.6-1.7-0.8-3.5-1.3-5.3
		c-0.5-1.6-1.1-3-2.1-4.4c-0.5-0.6-0.9-1.2-1.5-1.7c-0.7-0.5-1.3-0.8-2.1-1.1c-0.1,0-0.2,0.1-0.1,0.1c0.5,0.6,0.9,1.3,1.4,2
		c0.5,0.7,1,1.3,1.4,2.1c0.9,1.6,1.3,3.3,1.6,5.1c0.3,1.6,0.6,3.3,1.4,4.8c0.6,1.2,1.7,2.8,3.1,3C49.2,78.9,49.6,78.5,49.3,78
		L49.3,78z"/>
	<path fill="#CEBFC5" d="M26.2,76.8c-1.5,3.3-2.5,6.6-3,10.2c-0.3,1.7-0.4,3.4-0.5,5.1c-0.1,1.7-0.2,3.7,0.2,5.4
		c0.1,0.4,0.7,0.3,0.7-0.1c0.2-1.7,0-3.5,0.1-5.3c0.1-1.7,0.2-3.4,0.5-5.1c0.5-3.4,1.3-6.7,2.2-10C26.6,76.8,26.3,76.6,26.2,76.8
		L26.2,76.8z"/>
	<path fill="#CEBFC5" d="M26.3,61.5c-1.9,0.6-3.5,2.3-4.7,3.8c-1.3,1.7-2.1,3.6-2.4,5.7c-0.1,0.4,0.5,0.6,0.6,0.2
		c0.7-1.8,1.7-3.5,2.9-5c0.6-0.7,1.2-1.4,1.9-2c0.7-0.6,1.5-1.2,2.2-1.8C27.1,62,26.8,61.4,26.3,61.5L26.3,61.5z"/>
	<path fill="#FCEEED" d="M27.8,31c-0.2-1.1-0.4-2.2-0.5-3.3c-0.3-2-0.4-4.1-0.6-6.1c-0.2-4.2-0.1-8.3-0.1-12.5
		c0-0.2-0.3-0.3-0.4-0.1c-1.2,4.1-1.4,8.5-1.3,12.7c0,2.1,0.2,4.2,0.5,6.3c0.1,1.1,0.3,2.1,0.5,3.2c0.2,1,0.3,2,1,2.7
		c0.3,0.4,0.9,0.1,1-0.3C28.2,32.9,27.9,31.9,27.8,31L27.8,31z"/>
	<path fill="#FCEEED" d="M95.8,9.2C95.7,8.8,95.1,9,95,9.3c-0.2,4.2-0.4,8.5-0.8,12.7c-0.2,2.1-0.5,4.3-0.8,6.4
		c-0.3,2-0.9,4.1-1.1,6.1c-0.2,1.3,1.7,1.4,2.1,0.3c0.7-2,1-4.3,1.4-6.4c0.3-2.1,0.6-4.3,0.7-6.4C96.7,17.7,96.6,13.5,95.8,9.2
		L95.8,9.2z"/>
	<path fill="#FCEEED" d="M79.9,58.5c-5.5-1.9-12.4,1.9-14.1,7.4c-0.1,0.2,0.3,0.4,0.4,0.2c1.4-2.4,3.3-4.4,5.8-5.7
		c2.4-1.3,5.2-1.7,7.9-1.5C80,58.9,80.1,58.6,79.9,58.5L79.9,58.5z"/>
	<path fill="#FCEEED" d="M96.3,67.6c-0.2-1.6-1.4-3-2.5-4.1c-1.2-1.2-2.5-1.9-4.1-2.4c-0.3-0.1-0.5,0.4-0.2,0.5
		c1.3,0.7,2.6,1.6,3.6,2.6c1.1,1.1,1.7,2.4,2.6,3.6C95.9,68.2,96.3,68,96.3,67.6L96.3,67.6z"/>
	<path fill="#FCEEED" d="M69.7,69.2c-0.1-0.4-0.6-0.3-0.7,0c-0.3,1.2-0.4,2.5-0.6,3.7c-0.2,1.1-0.7,2.4-0.6,3.6
		c0.1,0.5,0.6,0.7,0.9,0.3c0.7-1,0.8-2.5,0.9-3.6C69.9,71.8,70,70.5,69.7,69.2L69.7,69.2z"/>
	<path fill="#FFF8F8" d="M98,71.4c-0.1-0.3-0.6-0.3-0.6,0.1c0.5,3.8-1,7.5-2.8,10.8c-0.9,1.6-1.9,3.2-2.9,4.8
		c-0.5,0.8-1,1.7-1.5,2.5c-0.5,0.8-1.1,1.7-1.3,2.6c-0.1,0.5,0.5,1.2,1,0.8c0.8-0.6,1.3-1.5,1.8-2.3c0.6-0.9,1.1-1.8,1.7-2.6
		c1.1-1.8,2.2-3.6,3.2-5.4C98.4,79.1,99.4,75.2,98,71.4L98,71.4z"/>
	<path fill="#FFF8F8" d="M88.1,84.3c-0.8,5.3-3.9,10.2-7,14.5c-3.2,4.4-7,8.5-10.1,13c-1.6,2.4-3.5,5.2-4,8.1
		c-0.1,0.5,0.5,0.7,0.7,0.3c0.8-1.2,1.4-2.4,2.1-3.7c0.7-1.2,1.4-2.3,2.2-3.4c1.6-2.3,3.4-4.6,5.1-6.8c3.4-4.2,7-8.5,9.2-13.5
		c1.2-2.7,1.9-5.5,2.3-8.5C88.6,84.1,88.1,84,88.1,84.3L88.1,84.3z"/>
	<path fill="#CEBFC5" d="M92.4,7.8c-0.9,0.2-1.6,0.7-2.3,1.2c-0.8,0.5-1.5,1.1-2.1,1.7c-1.4,1.3-2.7,2.6-3.9,4.1
		c-1.2,1.4-2.3,2.9-3.3,4.5c-0.8,1.2-1.3,2.6-1,4c0.2,3.2,2.9,5.7,5.8,6.8c0.3,0.1,0.5-0.3,0.4-0.5c-1.3-1.9-3.6-3.6-3.8-6
		c0.8-0.7,1.6-1.4,2.3-2c0.7-0.6,1.7-1.1,2.2-1.9c0.3-0.4-0.2-0.9-0.6-0.8c-0.9,0.2-1.8,1.2-2.4,1.8c-0.5,0.5-0.9,0.9-1.3,1.5
		c0.1-0.2,0.1-0.4,0.2-0.5c0.7-0.8,1.4-1.8,2.2-2.5c0.6-0.6,1.2-1.1,1.9-1.6c0.6-0.5,1.4-0.9,2-1.5c0.4-0.4,0-1-0.5-0.9
		c-0.4,0.1-0.9,0.2-1.3,0.4c1-1.1,2.1-2.2,3.2-3.2c0.6-0.6,1.2-1.1,1.8-1.7c0.5-0.5,1.1-1,1.5-1.7C93.5,8.2,93,7.7,92.4,7.8
		L92.4,7.8z"/>
	<path fill="#CEBFC5" d="M40,19c-1.2-2.1-2.7-4-4.4-5.7c-1.5-1.6-3.7-3.5-5.9-4c-0.2-0.1-0.5,0.2-0.3,0.4c1,1.6,2.6,3,3.9,4.4
		c0.4,0.4,0.7,0.9,1.1,1.3c-1.2-0.8-2.5-1.6-3.9-1.5c-0.2,0-0.3,0.3-0.2,0.4c0.6,0.8,1.5,1.2,2.3,1.8c0.9,0.6,1.7,1.4,2.4,2.2
		c0.1,0.1,0.2,0.2,0.3,0.4c-0.2-0.1-0.4-0.2-0.5-0.3c-0.5-0.2-1,0.4-0.6,0.8c1.5,1.4,2.3,3.1,3.3,4.8c0,0.1,0.1,0.1,0.1,0.2
		c0,0-0.1,0.1-0.1,0.1c-1.6,1.6-3.6,3.4-4.7,5.4c-0.3,0.5,0.2,0.9,0.7,0.7c1.3-0.6,2.4-1.6,3.4-2.4c1-0.8,2.1-1.6,3.1-2.6
		C42,23.6,41.3,21.2,40,19L40,19z"/>
	<path fill="#F08342" d="M60.4,60.6c0.2-2.1,0.6-4.2,1.1-6.2c0.6-1.9,1.3-3.9,2.3-5.6c1.1-1.8,2.4-3.4,3.9-4.9
		c0.3-0.3,0.8,0.1,0.5,0.4c-2,3.2-3.5,7-4.4,10.7c-0.5,1.8-0.8,3.7-0.9,5.5c-0.1,1-0.1,2-0.1,3c0,0.9,0.2,1.9-0.6,2.6
		c-0.3,0.2-0.7,0.3-1,0.1c-1-0.5-0.9-1.6-1-2.6C60.3,62.7,60.3,61.6,60.4,60.6L60.4,60.6z"/>
	<path fill="#F08342" d="M43.2,39.2c-1-1.5-3.5-0.9-4.9-0.5c-1.4,0.5-3.5,1.5-3.7,3.1c0,0.2,0.1,0.4,0.3,0.4c0.7,0,1.4-0.3,2-0.5
		c0.7-0.2,1.3-0.4,2-0.6c1.3-0.3,3.2,0,4.1-1C43.3,39.9,43.4,39.5,43.2,39.2L43.2,39.2z"/>
	<path fill="#F08342" d="M82.4,42.3c-0.3-1.1-0.8-1.7-1.7-2.3c-0.8-0.6-1.6-1-2.5-1.3c-1.5-0.5-3.8-0.7-4.8,0.7
		c-0.2,0.2,0,0.6,0.2,0.7c1.1,0.7,2.6,0.7,3.8,1.2c1.3,0.6,2.2,1.6,3.4,2.4c0.4,0.2,0.8,0.2,1.2,0c0.1,0,0.2-0.1,0.2-0.2
		C82.4,43.1,82.5,42.6,82.4,42.3L82.4,42.3z"/>
	<path fill="#F08342" d="M34.8,38.2c-0.4,0.2-0.9,0.2-1.3,0.4c-0.4,0.2-0.8,0.5-1.2,0.8c-0.8,0.5-1.5,1.1-2.2,1.7
		c-1.4,1.2-2.7,2.6-3.8,4.1c-1.1,1.5-2,3.1-2.8,4.7c-0.8,1.8-1.2,3.6-1.7,5.4c-0.1,0.5,0.6,0.7,0.7,0.2c0.6-1.7,1.5-3.3,2.3-4.8
		c0.9-1.5,1.9-3,3-4.3c1.1-1.3,2.2-2.5,3.5-3.6c0.6-0.6,1.3-1.1,2-1.7c0.3-0.3,0.7-0.6,1.1-0.8c0.4-0.3,0.6-0.6,1-1
		C35.9,38.8,35.4,37.9,34.8,38.2L34.8,38.2z"/>
	<path fill="#F08342" d="M98,57.1c-0.9-1.3-1.9-2.5-3.1-3.5c-2.2-1.9-5.1-3.5-8-3.5c-0.3,0-0.4,0.4-0.1,0.5c2.5,1.3,4.8,2.5,6.9,4.5
		c1,0.9,1.9,2,2.7,3.2c0.7,1.1,1.3,2.5,2.2,3.3c0.4,0.4,1,0.1,1-0.4C99.6,59.8,98.7,58.2,98,57.1L98,57.1z"/>
	<path fill="#F08342" d="M68.4,19.8c-0.4-0.7-1.1-0.9-1.9-1.2c-0.8-0.3-1.6-0.6-2.5-0.7c-1.8-0.3-3.6-0.3-5.3-0.2
		c-1.7,0.2-3.4,0.4-5.1,1c-1.5,0.5-3.1,1.2-4.1,2.5c-0.2,0.3,0.1,0.6,0.4,0.6c1.5,0,3-0.6,4.5-0.9c1.5-0.3,2.9-0.5,4.4-0.6
		c1.5-0.1,3,0,4.5,0.2c0.7,0.1,1.5,0.2,2.2,0.3c0.8,0.1,1.6,0.3,2.4,0C68.4,20.7,68.7,20.2,68.4,19.8L68.4,19.8z"/>
	<path fill="#CEBFC5" d="M25.3,71.7c0.1-0.2-0.2-0.3-0.3-0.1c-1.9,4-3,8.3-3.4,12.7c-0.5,4.4-0.5,9.1,0.6,13.4
		c0.1,0.3,0.6,0.2,0.6-0.1c-0.4-4.3-0.7-8.6-0.2-13C22.9,80.2,24,75.9,25.3,71.7L25.3,71.7z"/>
	<path fill="#CEBFC5" d="M26.2,106c-0.2-1.3-0.3-2.5-0.4-3.8c-0.2-2.6-0.1-5.2-0.1-7.8c0-0.2-0.3-0.3-0.4,0
		c-0.5,2.6-0.6,5.2-0.4,7.8c0.1,2.5,0.3,5.4,1.2,7.8c0.1,0.3,0.7,0.3,0.6-0.1C26.7,108.6,26.4,107.3,26.2,106L26.2,106z"/>
	<path fill="#CEBFC5" d="M24.3,107c-0.2-1.3-0.4-2.5-0.5-3.8c-0.1-1.1,0-2.2-0.2-3.3c-0.1-0.3-0.5-0.3-0.6,0
		c-0.3,1.2-0.2,2.5-0.1,3.7c0.1,1.2,0.3,2.5,0.6,3.7C23.7,107.7,24.4,107.5,24.3,107L24.3,107z"/>
	<path fill="#F08342" d="M56.4,36.2c-0.2-1-0.4-2.3-1.1-3.1c-0.2-0.2-0.5-0.1-0.6,0.2c-0.4,1.1,0,2.4,0.1,3.5c0.1,1,0.1,2.2,1,2.8
		c0.3,0.2,0.6,0,0.8-0.2C57.2,38.5,56.6,37.1,56.4,36.2L56.4,36.2z"/>
	<path fill="#F08342" d="M61.1,30.4c-0.4,0.9-0.7,1.9-0.9,2.9c-0.2,0.9-0.5,1.9-0.3,2.8c0.1,0.2,0.4,0.4,0.6,0.2
		c0.6-0.7,0.7-1.7,0.9-2.6c0.2-1,0.5-2,0.5-3C62,30.2,61.3,30,61.1,30.4L61.1,30.4z"/>
	<path fill="#F08342" d="M58.2,26.4c0-0.6-1-0.6-1,0c0,1.6-0.1,3.1,0.2,4.7c0.1,0.3,0.6,0.3,0.6,0C58.4,29.6,58.3,28,58.2,26.4
		L58.2,26.4z"/>
	<path fill="#F08342" d="M65.4,35.4c-0.4,0.8-1,1.6-1.1,2.5c0,0.3,0.3,0.4,0.5,0.2c0.7-0.6,1-1.5,1.3-2.3
		C66.4,35.3,65.7,34.8,65.4,35.4L65.4,35.4z"/>
	<path fill="#F08342" d="M53.4,39c-0.1-0.4-0.5-0.7-0.7-1c-0.3-0.4-0.6-0.7-0.9-1.1c-0.3-0.3-0.8,0.1-0.5,0.5c0.3,0.3,0.5,0.7,0.8,1
		c0.3,0.3,0.5,0.7,0.8,0.9C53.2,39.5,53.5,39.3,53.4,39L53.4,39z"/>
	<path fill="#F08342" d="M54.3,30.2c-0.1-0.4-0.4-0.6-0.6-0.9c-0.2-0.4-0.2-0.7-0.1-1.1c0.1-0.6-0.8-0.9-0.9-0.3
		c-0.1,0.6-0.1,1.2,0.1,1.7c0.2,0.5,0.5,1.1,1.1,1.1C54.2,30.7,54.4,30.4,54.3,30.2L54.3,30.2z"/>
	<path fill="#F08342" d="M65.9,24.6c-0.4,0.4-0.8,0.9-1,1.5c-0.3,0.7-0.3,1.2-0.2,1.9c0,0.4,0.7,0.6,0.8,0.1c0.2-1,0.6-2.1,1.2-2.9
		C66.9,24.7,66.2,24.2,65.9,24.6L65.9,24.6z"/>
	<path fill="#F08342" d="M59.4,39.8c-0.2,1.4-0.7,2.9-0.7,4.3c0,0.3,0.4,0.3,0.5,0.1c0.4-1.3,0.5-2.8,0.7-4.2
		C59.9,39.6,59.4,39.5,59.4,39.8L59.4,39.8z"/>
	<path fill="#F08342" d="M86,35.6c-0.4-1-1.4-1.9-2-2.8c-0.7-0.9-1.5-1.7-2.2-2.6c-0.7-0.9-1.4-1.7-2.2-2.6
		c-0.8-0.9-1.7-1.6-2.6-2.4c-0.4-0.3-0.8,0.1-0.7,0.5c0.5,1.1,1,2.1,1.7,3.1c0.7,1,1.4,1.8,2.2,2.7c0.7,0.9,1.5,1.7,2.2,2.5
		c0.8,0.8,1.7,1.8,2.7,2.4C85.7,37,86.3,36.3,86,35.6L86,35.6z"/>
	<path fill="#F08342" d="M44,25.8c-1.4,1.1-2.5,2.7-3.7,4.1c-1.3,1.4-2.7,2.7-4,4.1c-0.4,0.4,0.1,1.2,0.7,0.9c1.7-1,3.2-2.4,4.5-3.9
		c1.2-1.3,2.7-3,3.2-4.7C44.7,26,44.3,25.6,44,25.8L44,25.8z"/>
	<path fill="#F08342" d="M92.8,4.9c-1.7,0.5-3.4,1.7-4.9,2.8c-1.6,1.1-3.1,2.4-4.4,3.8c-2.6,2.7-5.1,5.8-6.6,9.2
		c-0.2,0.4,0.4,0.6,0.7,0.3c2.3-3,4.4-6,7.1-8.6C86,11.2,87.4,10,88.9,9c1.4-1.1,3.1-2,4.5-3.1C93.7,5.5,93.3,4.8,92.8,4.9L92.8,4.9
		z"/>
	<path fill="#F08342" d="M22.6,25.1c-0.2-2.2-0.4-4.4-0.5-6.6c0-2.2,0.1-4.3,0.3-6.4c0.2-2.2,0.8-4.4,0.9-6.6c0-0.4-0.5-0.4-0.6-0.1
		c-0.8,2-1,4.3-1.3,6.4c-0.3,2.3-0.4,4.5-0.4,6.8c0,2.1,0.1,4.3,0.4,6.4c0.3,2.2,0.6,4.5,1.5,6.5c0.1,0.2,0.5,0.1,0.5-0.1
		C23.3,29.3,22.8,27.2,22.6,25.1L22.6,25.1z"/>
	<path fill="#534450" d="M59.4,69.6c-1-0.7-2.1-0.4-3.2-0.4c-1.1,0-2.2-0.2-3.3,0c-1.2,0.2-1.6,1.5-0.6,2.2c1.1,0.8,2.5,1,3.7,1.1
		c1.3,0.1,2.7,0.2,3.6-0.9C60.2,70.9,60.1,70.1,59.4,69.6L59.4,69.6z"/>
	<path fill="#534450" d="M62.3,69.7c-0.2-0.5-0.8-0.6-1.3-0.4c-0.2,0.1-0.5,0.2-0.6,0.4c-0.2,0.2-0.2,0.6-0.1,0.8
		c0.3,0.5,0.8,0.5,1.3,0.4C62.1,70.8,62.6,70.2,62.3,69.7L62.3,69.7z"/>
	<path fill="#0F0909" d="M33,49.1c0.8-0.3,1.7-0.4,2.5-0.5c0.9-0.2,1.8-0.5,2.6-1c1.5-0.8,2.9-1.6,4.7-1.5c2.9,0.2,5.8,2.9,5.2,6
		c0,0.1-0.2,0.2-0.3,0c-0.4-0.9-0.8-1.9-1.4-2.7c0.3,0.6,0.4,1.2,0.4,1.9c0,2.5-2,4.5-4.5,4.5c-2.5,0-4.5-2-4.5-4.5
		c0-0.6,0.1-1.3,0.4-1.8c-0.2,0.1-0.4,0.2-0.7,0.3c-1.3,0.5-3.1,0.9-4.4,0.2C32.5,49.8,32.7,49.2,33,49.1L33,49.1z"/>
	<path fill="#534450" d="M40.9,52.7c-1.2-1.1-0.2-2.1,0-3.4c0-0.3-0.2-0.7-0.6-0.6c-2.2,0.9-2.6,4.5-0.3,5.5
		C40.9,54.5,41.5,53.3,40.9,52.7L40.9,52.7z"/>
	<path fill="#534450" d="M42.8,53.9c-0.5,0-0.9,0-1.3,0.3c-0.2,0.2-0.2,0.7,0.1,0.8c0.5,0.2,0.9,0.1,1.3-0.1
		C43.4,54.7,43.4,54,42.8,53.9L42.8,53.9z"/>
	<path fill="#534450" d="M45.1,50.3c-0.6,0-0.6,1,0,1C45.8,51.3,45.8,50.3,45.1,50.3L45.1,50.3z"/>
	<path fill="#0F0909" d="M82.2,49.1c-0.8-0.3-1.7-0.4-2.5-0.5c-0.9-0.2-1.8-0.5-2.6-1c-1.5-0.8-2.9-1.6-4.7-1.5
		c-2.9,0.2-5.8,2.9-5.2,6c0,0.1,0.2,0.2,0.3,0c0.4-0.9,0.8-1.9,1.4-2.7c-0.3,0.6-0.4,1.2-0.4,1.9c0,2.5,2,4.5,4.5,4.5
		c2.5,0,4.5-2,4.5-4.5c0-0.6-0.1-1.3-0.4-1.8c0.2,0.1,0.4,0.2,0.7,0.3c1.3,0.5,3.1,0.9,4.4,0.2C82.8,49.8,82.6,49.2,82.2,49.1
		L82.2,49.1z"/>
	<path fill="#534450" d="M70.8,51.2c-0.1-0.4-0.2-0.9-0.1-1.3c0.1-0.4,0.3-0.8,0.3-1.2c0-0.2-0.2-0.3-0.3-0.3
		c-2.3,0.6-1.7,6.2,0.7,5.5c0.2-0.1,0.3-0.2,0.3-0.4C71.8,52.7,71,52,70.8,51.2L70.8,51.2z"/>
	<path fill="#534450" d="M73.8,54.5c0-0.2-0.3-0.4-0.5-0.5c-0.2-0.1-0.3-0.1-0.5-0.1c-0.2,0-0.4,0.1-0.5,0.2
		c-0.3,0.2-0.3,0.6-0.1,0.9c0.3,0.3,0.6,0.4,1,0.4c0.2,0,0.5-0.2,0.6-0.3C73.8,54.8,73.8,54.7,73.8,54.5L73.8,54.5z"/>
	<path fill="#534450" d="M75.9,49.9c-0.9,0-0.9,1.3,0,1.3C76.8,51.2,76.8,49.9,75.9,49.9L75.9,49.9z"/>
	<path fill="#F08342" d="M111.6,78.4c-0.4-1.7-1.3-3.3-2.6-4.5c-0.3-0.3-0.9,0.1-0.6,0.5c0.8,1.4,1.5,2.8,1.8,4.4
		c0.2,0.7,0.3,1.5,0.3,2.2c0,0.8-0.1,1.6,0.1,2.3c0.1,0.5,0.7,0.5,1,0.1C112.4,82.3,111.9,79.9,111.6,78.4L111.6,78.4z"/>
	<path fill="#F08342" d="M105.4,73.2c-0.3-0.4-0.9-0.2-0.8,0.3c0.4,1.3,0.8,2.7,0.8,4.1c0,1.4-0.3,2.8-0.7,4.1
		c-0.1,0.5,0.5,0.7,0.7,0.3C107.2,79.5,107.2,75.7,105.4,73.2L105.4,73.2z"/>
	<path fill="#F08342" d="M270.2,108.3c-5.1-5-11.2-8.9-17.7-11.8c-6.4-2.9-13.3-4.8-20.3-5.2c-2-0.1-3.9-0.1-5.9,0
		c-1,0.1-2,0.2-3,0.4c-1,0.2-2,0.5-2.9,0.8c-0.1,0-0.1,0.3,0,0.3c1.7-0.2,3.5-0.1,5.2-0.2c1.7-0.1,3.5-0.1,5.2,0
		c3.4,0.1,6.8,0.7,10.1,1.5c6.8,1.7,13.3,4.6,19.2,8.3c3.3,2.1,6.5,4.4,9.6,6.8C270.1,109.3,270.6,108.6,270.2,108.3L270.2,108.3z"
		/>
	<path fill="#F08342" d="M262.4,107.5c-2-0.4-3.8-1-5.7-1.9c-0.1,0-0.1,0.1-0.1,0.1c1.8,0.9,3.7,1.7,5.7,2
		C262.4,107.7,262.5,107.5,262.4,107.5L262.4,107.5z"/>
	<path fill="#F08342" d="M273,160.4c-0.6-0.7-1.6-1.3-2.4-1.8c-0.9-0.6-1.7-1.3-2.5-2c-1.6-1.4-3.1-2.8-4.4-4.4
		c-2.7-3.3-4.8-7-6.1-10.9c-0.8-2.2-1.4-4.5-1.7-6.8c0-0.2-0.4-0.2-0.4,0.1c0.3,8.7,4.6,17,11.1,22.7c0.9,0.8,1.9,1.5,2.9,2.2
		c1,0.6,2.1,1.4,3.2,1.6C273,160.9,273.2,160.6,273,160.4L273,160.4z"/>
	<path fill="#F08342" d="M272.2,152.9c-1-1.1-2.2-2-3.2-3c-1.1-1-2.1-2.1-3.1-3.1c-0.2-0.2-0.5,0.1-0.3,0.3c0.9,1.2,1.9,2.3,3,3.4
		c1,1,2.1,2.1,3.3,2.8C272.1,153.5,272.4,153.1,272.2,152.9L272.2,152.9z"/>
	<path fill="#F08342" d="M248.1,104.3c-0.8-0.7-1.7-1.3-2.6-1.9c-0.9-0.6-1.7-1.2-2.6-1.7c-1.8-1-3.7-1.7-5.7-1.9
		c-0.3,0-0.4,0.5-0.1,0.5c2,0.4,3.9,1.2,5.6,2.2c0.8,0.5,1.6,1,2.4,1.6c0.9,0.6,1.7,1.3,2.6,1.8C248.1,105,248.4,104.6,248.1,104.3
		L248.1,104.3z"/>
	<path fill="#F08342" d="M154.3,151.6c-1.7-0.8-3.6-1.3-5.3-2.1c-1.8-0.8-3.5-1.7-5.2-2.8c-3.3-2.1-6.2-4.8-8.7-7.7
		c-0.1-0.1-0.3,0-0.2,0.1c2.1,3.4,5,6.2,8.3,8.4c1.6,1.1,3.4,2.1,5.2,3c1.8,0.8,3.7,1.6,5.7,1.8
		C154.5,152.4,154.7,151.8,154.3,151.6L154.3,151.6z"/>
	<path fill="#F08342" d="M165.5,149.2c-0.8-0.2-1.8,0-2.7,0c-1,0-1.9-0.2-2.9-0.4c-1.8-0.4-3.7-1.2-5.2-2.4
		c-0.3-0.2-0.6,0.2-0.3,0.4c1.5,1.4,3.2,2.4,5.2,3c1,0.3,2,0.5,3,0.5c0.9,0,2.1,0.1,2.9-0.4C165.9,149.8,165.9,149.3,165.5,149.2
		L165.5,149.2z"/>
	<path fill="#F08342" d="M174,146.5c-1.1-0.2-2.3,0-3.5-0.2c-1.2-0.1-2.5-0.4-3.7-0.8c-0.3-0.1-0.5,0.4-0.2,0.5
		c1.2,0.5,2.4,0.9,3.6,1.1c1.1,0.2,2.6,0.4,3.7,0C174.3,147.1,174.4,146.6,174,146.5L174,146.5z"/>
	<path fill="#D05A34" d="M227.3,199.2c-0.5-0.7-1-1.3-1.6-2c-0.5-0.6-1.1-1.1-1.7-1.6c-1.2-1-2.3-2-3.5-3.1
		c-2.3-2.1-4.6-4.4-6.8-6.7c-2.2-2.2-4.2-4.5-6.2-6.9c-1-1.2-1.9-2.4-2.9-3.6c-1-1.3-2-2.7-3.2-3.8c-0.2-0.2-0.6,0-0.5,0.3
		c0.5,1.5,1.4,2.8,2.3,4.1c0.8,1.3,1.8,2.5,2.7,3.8c1.9,2.6,4,5.1,6.1,7.6c2.1,2.4,4.5,4.7,6.8,6.9c1.2,1.1,2.4,2.2,3.7,3.2
		c0.6,0.5,1.3,0.9,1.9,1.4c0.8,0.5,1.4,0.7,2.3,1.1C227.2,200.1,227.6,199.6,227.3,199.2L227.3,199.2z"/>
	<path fill="#FFF8F8" d="M60.7,122.3c0,0,0.1,0,0.1,0.1c-2,5.5-3.7,11.1-2.9,17c0.4,2.8,1.1,5.5,2.3,8c1.2,2.6,2.9,4.7,4.3,7.2
		c0.3,0.5-0.3,1.1-0.8,0.8c-2.4-1.6-4-4.3-5.3-6.9c-1.3-2.8-2.2-5.7-2.5-8.7C55.3,133.8,56.5,126.8,60.7,122.3L60.7,122.3z"/>
	<path fill="#FFF8F8" d="M61.7,113c0.2-0.2,0.4,0.1,0.2,0.2c-4.8,5.2-7.5,11.8-8.4,18.7c0,0.2-0.4,0.2-0.4-0.1
		C53.3,124.7,56.6,117.9,61.7,113L61.7,113z"/>
	<path fill="#FFF8F8" d="M48.7,121.9c0.1-0.4,0.8-0.2,0.6,0.2c-1.6,5-1.5,10.2-0.3,15.3c0.6,2.4,1.5,4.8,2.7,7
		c0.6,1.1,1.2,2.1,1.9,3.1c0.8,1.1,1.7,2.1,2.4,3.2c0.2,0.3-0.2,0.8-0.5,0.6c-2.1-1.4-3.6-3.9-4.8-6.1c-1.3-2.4-2.2-4.9-2.8-7.5
		C46.8,132.5,47.1,126.9,48.7,121.9L48.7,121.9z"/>
	<path fill="#CEBFC5" d="M30.1,106.7c0.6,2.6,1.4,5.2,2.2,7.8c0.8,2.7,1.8,5.4,2.9,8c1.1,2.5,2.2,4.9,3.5,7.3c1.3,2.3,3,4.6,3.9,7.1
		c0.2,0.5-0.5,0.8-0.8,0.5c-2-1.8-3.4-4.5-4.6-6.9c-1.3-2.4-2.5-5-3.5-7.6c-1-2.7-1.9-5.4-2.6-8.1c-0.3-1.3-0.7-2.6-0.9-4
		c-0.2-1.4-0.3-2.8-0.4-4.1C29.7,106.6,30,106.5,30.1,106.7L30.1,106.7z"/>
	<path fill="#CEBFC5" d="M41,127.1c1.9,10.1,7.4,18.9,14.6,26.1c0.2,0.3-0.1,0.7-0.4,0.5c-8.3-6.3-13.2-16.3-14.7-26.5
		C40.4,126.9,40.9,126.8,41,127.1L41,127.1z"/>
	<path fill="#CEBFC5" d="M64.5,157c1.9,0.7,3.6,1.8,5.3,2.8c1.8,1,3.6,2.1,5.4,3.2c0.4,0.2,0,0.8-0.4,0.6c-1.9-1-3.8-1.9-5.6-2.9
		c-1.7-1-3.6-1.8-5.1-3C63.8,157.4,64.2,156.8,64.5,157L64.5,157z"/>
</g>
</svg>
