<?xml version="1.0" encoding="UTF-8" standalone="no"?>
<!DOCTYPE svg PUBLIC "-//W3C//DTD SVG 1.1//EN" "http://www.w3.org/Graphics/SVG/1.1/DTD/svg11.dtd">
<svg width="100%" height="100%" viewBox="0 0 115 128" version="1.1" xmlns="http://www.w3.org/2000/svg" xmlns:xlink="http://www.w3.org/1999/xlink" xml:space="preserve" xmlns:serif="http://www.serif.com/" style="fill-rule:evenodd;clip-rule:evenodd;stroke-linejoin:round;stroke-miterlimit:2;">
    <g transform="matrix(1,0,0,1,-182.197,-141.916)">
        <g transform="matrix(1,0,0,1,18,-31)">
            <g transform="matrix(1,0,0,1,56,-104)">
                <path d="M166.211,338.522C177.516,340.726 184.089,347.534 189.835,358.739C195.004,368.816 198.56,380.063 201.162,391.388C190.239,401.611 174.548,406.556 159.314,404.118C148.26,402.539 137.705,399.342 127.981,394.64C130.856,383.043 133.158,371.49 137.983,360.271C143.993,346.295 152.044,335.762 166.211,338.522Z" style="fill:rgb(234,119,36);fill-rule:nonzero;"/>
            </g>
        </g>
        <g transform="matrix(1,0,0,1,18,-31)">
            <g transform="matrix(1,0,0,1,56,-104)">
                <path d="M184.832,304.467C185.736,305.315 186.689,306.115 187.676,306.853C190.903,309.286 194.54,311.149 198.406,312.304C199.936,312.77 201.5,313.124 203.093,313.361C212.397,304.085 215.158,288.869 209.707,276.916C196.334,279.78 186.007,290.845 184.832,304.467Z" style="fill:rgb(234,119,36);fill-rule:nonzero;"/>
            </g>
        </g>
        <g transform="matrix(1,0,0,1,18,-31)">
            <g transform="matrix(1,0,0,1,56,-104)">
                <path d="M187.676,306.853C190.903,309.286 194.54,311.149 198.406,312.304C198.649,312.123 198.879,311.907 199.095,311.657C204.345,305.656 206.327,296.644 204.115,288.807C196.313,291.929 190.361,298.549 187.676,306.853Z" style="fill:rgb(120,62,36);fill-rule:nonzero;"/>
            </g>
        </g>
        <g transform="matrix(1,0,0,1,18,-31)">
            <g transform="matrix(1,0,0,1,56,-104)">
                <path d="M144.255,304.467C143.352,305.315 142.399,306.115 141.411,306.853C138.185,309.286 134.548,311.149 130.682,312.304C129.151,312.77 127.587,313.124 125.995,313.361C116.69,304.085 113.93,288.869 119.381,276.916C132.754,279.78 143.08,290.845 144.255,304.467Z" style="fill:rgb(234,119,36);fill-rule:nonzero;"/>
            </g>
        </g>
        <g transform="matrix(1,0,0,1,18,-31)">
            <g transform="matrix(1,0,0,1,56,-104)">
                <path d="M141.411,306.853C138.185,309.286 134.548,311.149 130.682,312.304C130.438,312.123 130.207,311.907 129.993,311.657C124.743,305.656 122.761,296.644 124.972,288.807C132.774,291.929 138.727,298.549 141.411,306.853Z" style="fill:rgb(120,62,36);fill-rule:nonzero;"/>
            </g>
        </g>
        <g transform="matrix(1,0,0,1,18,-31)">
            <g transform="matrix(1,0,0,1,56,-104)">
                <path d="M108.197,340.24C143.343,358.222 186.974,358.562 222.397,341.129C215.087,315.799 192.62,292.404 166.262,292.517C139.896,292.628 115.293,314.854 108.197,340.24Z" style="fill:rgb(246,137,53);fill-rule:nonzero;"/>
            </g>
        </g>
        <g transform="matrix(1,0,0,1,18,-31)">
            <g transform="matrix(1,0,0,1,56,-104)">
                <path d="M108.197,340.24C143.343,358.222 186.974,358.562 222.397,341.129C222.397,341.129 192.05,290.818 176.937,348.998L170.936,348.165C170.936,348.165 153.901,284.328 108.197,340.24Z" style="fill:rgb(224,205,157);fill-rule:nonzero;"/>
            </g>
        </g>
        <g transform="matrix(1,0,0,1,18,-31)">
            <g transform="matrix(1,0,0,1,56,-104)">
                <path d="M166.014,348.817C167.3,346.826 172.719,347.231 174.461,347.321C176.088,347.405 180.563,347.563 181.606,349.02C184.09,352.487 176.924,356.318 174.393,356.266C172.435,356.225 170.549,355.369 169.05,354.143C168.067,353.338 165.496,350.859 165.771,349.422C165.814,349.199 165.897,348.998 166.014,348.817Z" style="fill:rgb(149,40,45);fill-rule:nonzero;"/>
            </g>
        </g>
        <g transform="matrix(1,0,0,1,18,-31)">
            <g transform="matrix(1,0,0,1,56,-104)">
                <path d="M170.429,349.622C171.089,348.673 172.092,348.717 173.17,348.638C174.312,348.553 175.773,348.464 176.726,349.193C177.164,349.529 177.388,350.385 176.726,350.667C175.816,351.055 174.925,350.956 173.953,350.972C172.902,350.987 171.688,351.51 170.763,350.894C170.368,350.63 170.128,350.056 170.429,349.622Z" style="fill:rgb(169,49,53);fill-rule:nonzero;"/>
            </g>
        </g>
        <g transform="matrix(1,0,0,1,18,-31)">
            <g transform="matrix(1,0,0,1,56,-104)">
                <path d="M189.307,331.167C190.351,329.794 191.993,329.794 193.036,331.167C193.777,332.144 193.632,333.949 193.604,335.146C193.584,335.943 193.168,336.89 192.399,337.245C191.49,337.666 190.853,337.666 189.944,337.245C189.175,336.89 188.758,335.943 188.739,335.146C188.711,333.949 188.566,332.144 189.307,331.167Z" style="fill:rgb(120,62,36);fill-rule:nonzero;"/>
            </g>
        </g>
        <g transform="matrix(1,0,0,1,18,-31)">
            <g transform="matrix(1,0,0,1,56,-104)">
                <path d="M146.978,331.167C148.021,329.794 149.664,329.794 150.707,331.167C151.448,332.144 151.303,333.949 151.274,335.146C151.255,335.943 150.839,336.89 150.07,337.245C149.161,337.666 148.523,337.666 147.615,337.245C146.846,336.89 146.429,335.943 146.41,335.146C146.381,333.949 146.237,332.144 146.978,331.167Z" style="fill:rgb(120,62,36);fill-rule:nonzero;"/>
            </g>
        </g>
        <g transform="matrix(1,0,0,1,18,-31)">
            <g transform="matrix(1,0,0,1,56,-104)">
                <path d="M168.135,320.272C168.223,319.609 168.305,318.939 168.44,318.283C168.547,317.767 169.386,317.883 169.358,318.407C169.32,319.119 169.22,319.832 169.13,320.539C169.062,321.08 169.092,321.702 168.648,322.077C168.498,322.204 168.305,322.18 168.192,322.019C167.836,321.513 168.06,320.847 168.135,320.272Z" style="fill:rgb(240,175,126);fill-rule:nonzero;"/>
            </g>
        </g>
        <g transform="matrix(1,0,0,1,18,-31)">
            <g transform="matrix(1,0,0,1,56,-104)">
                <path d="M160.364,320.408C160.368,319.624 160.371,318.835 160.461,318.055C160.52,317.548 161.19,317.548 161.249,318.055C161.329,318.738 161.335,319.427 161.345,320.114C161.354,320.762 161.474,321.474 161.158,322.057C161.034,322.284 160.676,322.284 160.553,322.057C160.272,321.54 160.362,320.985 160.364,320.408Z" style="fill:rgb(240,175,126);fill-rule:nonzero;"/>
            </g>
        </g>
        <g transform="matrix(1,0,0,1,18,-31)">
            <g transform="matrix(1,0,0,1,56,-104)">
                <path d="M165.578,328.673C165.58,328.031 165.587,327.385 165.663,326.747C165.725,326.224 166.416,326.224 166.478,326.747C166.554,327.385 166.562,328.031 166.563,328.673C166.564,329.164 166.706,329.749 166.282,330.088C166.143,330.198 165.998,330.198 165.859,330.088C165.436,329.749 165.577,329.164 165.578,328.673Z" style="fill:rgb(240,175,126);fill-rule:nonzero;"/>
            </g>
        </g>
        <g transform="matrix(1,0,0,1,18,-31)">
            <g transform="matrix(1,0,0,1,56,-104)">
                <path d="M176.029,318.127C176.161,317.482 176.295,316.844 176.472,316.209C176.599,315.754 177.378,315.828 177.32,316.324C177.25,316.938 177.149,317.542 177.036,318.149C176.93,318.714 176.913,319.286 176.545,319.742C176.354,319.979 175.978,319.824 175.901,319.571C175.754,319.086 175.93,318.613 176.029,318.127Z" style="fill:rgb(240,175,126);fill-rule:nonzero;"/>
            </g>
        </g>
        <g transform="matrix(1,0,0,1,18,-31)">
            <g transform="matrix(1,0,0,1,56,-104)">
                <path d="M172.294,312.256C172.404,311.533 172.57,310.819 172.933,310.18C173.147,309.801 173.638,310.078 173.583,310.453C173.495,311.065 173.34,311.667 173.236,312.276C173.15,312.783 173.25,313.361 172.863,313.742C172.754,313.849 172.555,313.862 172.448,313.742C172.076,313.321 172.214,312.777 172.294,312.256Z" style="fill:rgb(240,175,126);fill-rule:nonzero;"/>
            </g>
        </g>
        <g transform="matrix(1,0,0,1,18,-31)">
            <g transform="matrix(1,0,0,1,56,-104)">
                <path d="M171.263,328.634C171.49,328.142 171.752,327.664 172.072,327.225C172.343,326.853 173.005,327.06 172.856,327.556C172.717,328.021 172.525,328.468 172.307,328.902C172.146,329.221 171.898,329.745 171.441,329.586C171.02,329.44 171.121,328.941 171.263,328.634Z" style="fill:rgb(240,175,126);fill-rule:nonzero;"/>
            </g>
        </g>
        <g transform="matrix(1,0,0,1,18,-31)">
            <g transform="matrix(1,0,0,1,56,-104)">
                <path d="M158.535,326.815C158.871,327.429 159.21,328.26 159.249,328.961C159.273,329.414 158.651,329.534 158.432,329.182C158.062,328.586 157.882,327.704 157.806,327.014C157.762,326.617 158.357,326.492 158.535,326.815Z" style="fill:rgb(240,175,126);fill-rule:nonzero;"/>
            </g>
        </g>
        <g transform="matrix(1,0,0,1,18,-31)">
            <g transform="matrix(1,0,0,1,56,-104)">
                <path d="M164.625,309.873C164.774,309.647 165.141,309.666 165.216,309.95C165.308,310.302 165.277,310.659 165.267,311.021C165.253,311.483 165.289,311.946 165.294,312.408C165.301,313.074 164.373,313.027 164.292,312.408C164.191,311.646 164.183,310.538 164.625,309.873Z" style="fill:rgb(240,175,126);fill-rule:nonzero;"/>
            </g>
        </g>
        <g transform="matrix(1,0,0,1,18,-31)">
            <g transform="matrix(1,0,0,1,56,-104)">
                <path d="M155.609,310.422C155.663,310.061 156.275,310.063 156.332,310.422C156.425,311.007 156.503,311.592 156.639,312.17C156.757,312.669 156.98,313.109 156.82,313.622C156.777,313.761 156.634,313.809 156.509,313.748C155.486,313.263 155.467,311.369 155.609,310.422Z" style="fill:rgb(240,175,126);fill-rule:nonzero;"/>
            </g>
        </g>
        <g transform="matrix(1,0,0,1,18,-31)">
            <g transform="matrix(1,0,0,1,56,-104)">
                <path d="M170.773,306.306C170.848,305.818 170.913,305.309 171.059,304.837C171.203,304.373 171.915,304.452 171.913,304.952C171.911,305.489 171.808,306.039 171.727,306.568C171.686,306.835 171.355,306.979 171.119,306.914C170.836,306.836 170.732,306.572 170.773,306.306Z" style="fill:rgb(240,175,126);fill-rule:nonzero;"/>
            </g>
        </g>
        <g transform="matrix(1,0,0,1,18,-31)">
            <g transform="matrix(1,0,0,1,56,-104)">
                <path d="M178.901,307.7C179.231,307.356 179.727,307.792 179.532,308.188C179.198,308.866 178.925,309.525 178.78,310.271C178.655,310.909 177.736,310.624 177.824,310.008C177.945,309.154 178.301,308.324 178.901,307.7Z" style="fill:rgb(240,175,126);fill-rule:nonzero;"/>
            </g>
        </g>
        <g transform="matrix(1,0,0,1,18,-31)">
            <g transform="matrix(1,0,0,1,56,-104)">
                <path d="M158.322,307.313C158.426,306.673 158.591,306.057 158.742,305.429C158.856,304.949 159.657,305.044 159.612,305.546C159.563,306.094 159.528,306.634 159.453,307.181C159.378,307.717 159.416,308.337 158.915,308.648C158.777,308.734 158.548,308.72 158.44,308.588C158.102,308.174 158.24,307.813 158.322,307.313Z" style="fill:rgb(240,175,126);fill-rule:nonzero;"/>
            </g>
        </g>
        <g transform="matrix(1,0,0,1,18,-31)">
            <g transform="matrix(0.0611064,0,0,0.0621153,175.935,241.401)">
                <path d="M1039.44,332.418C916.186,467.811 800.464,627.644 709.775,788.058C690.854,821.532 654.873,841.68 616.463,840.052C616.127,840.039 615.778,840.026 615.429,840.013C578.104,838.527 544.501,816.685 528.126,783.108C499.279,724.032 457.883,661.324 420.946,608.594C407.389,589.233 413.851,562.467 434.607,551.172C435.033,550.939 435.46,550.719 435.887,550.487C486.782,522.984 550.369,539.876 581.012,588.936C592.126,606.732 602.698,624.865 612.689,643.334C697.445,525.569 792.929,416.399 897.24,317.93C932.109,285.025 980.458,273.199 1024.99,284.185C1046.5,289.484 1054.36,316.043 1039.44,332.418Z" style="fill:rgb(224,205,157);fill-rule:nonzero;"/>
            </g>
        </g>
    </g>
</svg>
