<?xml version="1.0" encoding="UTF-8" standalone="no"?>
<!DOCTYPE svg PUBLIC "-//W3C//DTD SVG 1.1//EN" "http://www.w3.org/Graphics/SVG/1.1/DTD/svg11.dtd">
<svg width="100%" height="100%" viewBox="0 0 1024 1024" version="1.1" xmlns="http://www.w3.org/2000/svg" xmlns:xlink="http://www.w3.org/1999/xlink" xml:space="preserve" xmlns:serif="http://www.serif.com/" style="fill-rule:evenodd;clip-rule:evenodd;stroke-linejoin:round;stroke-miterlimit:2;">
    <g transform="matrix(1.01286,0,0,1.03539,-13.1672,-36.2386)">
        <path d="M1024,183.35L1024,875.65C1024,957.527 956.048,1024 872.35,1024L164.65,1024C80.952,1024 13,957.527 13,875.65L13,183.35C13,101.473 80.952,35 164.65,35L872.35,35C956.048,35 1024,101.473 1024,183.35Z" style="fill:rgb(230,97,26);"/>
    </g>
    <g transform="matrix(-1.81302,0,0,1.81302,1143.78,-95.6022)">
        <path d="M288.003,617.533L540.5,617.533C547.605,617.533 554.52,616.711 561.155,615.158L560.997,615L560.997,614L559.997,613L559.997,612L558.997,611L558.997,610L557.997,609L557.997,608L556.997,607L556.997,606L554.997,604L554.997,603L553.997,602L553.997,601L552.997,600L552.997,599L551.997,598L551.997,596L550.997,595L550.997,594L549.997,593L549.997,592L548.997,591L548.997,590L547.997,589L547.997,588L546.997,587L546.997,586L545.997,585L545.997,584L544.997,583L544.997,582L543.997,581L543.997,579L542.997,578L542.997,577L541.997,576L541.997,575L540.997,574L540.997,573L539.997,572L539.997,570L538.997,569L538.997,568L537.997,567L537.997,565L536.997,564L536.997,563L535.997,562L535.997,560L534.997,559L534.997,558L533.997,557L533.997,555L532.997,554L532.997,552L531.997,551L531.997,550L530.997,549L530.997,547L529.997,546L529.997,544L528.997,543L528.997,541L527.997,540L527.997,538L526.997,537L526.997,535L525.997,534L525.997,532L524.997,531L524.997,528L523.997,527L523.997,525L522.997,524L522.997,521L521.997,520L521.997,518L520.997,517L520.997,514L519.997,513L519.997,510L518.997,509L518.997,505L517.997,504L517.997,501L516.997,500L516.997,496L515.997,495L515.997,491L514.997,490L514.997,485L513.997,484L513.997,479L512.997,478L512.997,473L511.997,472L511.997,465L510.997,464L510.997,463L512,461.997L513,461.997L514,460.997L515,460.997L517,458.997L518,458.997L519,457.997L520,457.997L521,456.997L522,456.997L524,454.997L525,454.997L527,452.997L528,452.997L530,450.997L531,450.997L534,447.997L535,447.997L538,444.997L539,444.997L547,436.997L548,436.997L550.997,434L550.997,433L557.997,426L557.997,425L560.997,422L560.997,421L563.997,418L563.997,417L564.997,416L564.997,415L566.997,413L566.997,412L567.997,411L567.997,410L568.997,409L568.997,408L569.997,407L569.997,406L570.997,405L570.997,404L571.997,403L571.997,402L572.997,401L572.997,400L573.997,399L573.997,397L574.997,396L574.997,394L575.997,393L575.997,390L576.997,389L576.997,386L577.997,385L577.997,381L578.997,380L578.997,374L579.997,373L579.997,349L578.997,348L578.997,341L577.997,340L577.997,335L576.997,334L576.997,329L575.997,328L575.997,325L574.997,324L574.997,321L573.997,320L573.997,317L572.997,316L572.997,313L571.997,312L571.997,309L570.997,308L570.997,306L569.997,305L569.997,303L568.997,302L568.997,300L567.997,299L567.997,297L566.997,296L566.997,294L565.997,293L565.997,292L564.997,291L564.997,289L563.997,288L563.997,287L562.997,286L562.997,284L561.997,283L561.997,282L560.997,281L560.997,279L559.997,278L559.997,277L558.997,276L558.997,275L557.997,274L557.997,273L556.997,272L556.997,271L555.997,270L555.997,269L554.997,268L554.997,267L553.997,266L553.997,265L552.997,264L552.997,263L551.997,262L553.997,260L553.997,259L555.997,257L555.997,256L556.997,255L556.997,254L557.997,253L557.997,252L558.997,251L558.997,250L559.997,249L559.997,248L560.997,247L560.997,246L561.997,245L561.997,244L562.997,243L562.997,242L563.997,241L563.997,239L564.997,238L564.997,237L565.997,236L565.997,234L566.997,233L566.997,231L567.997,230L567.997,228L568.997,227L568.997,224L569.997,223L569.997,220L570.997,219L570.997,216L571.997,215L571.997,212L572.997,211L572.997,206L573.997,205L573.997,200L574.997,199L574.997,192L575.997,191L575.997,178L576.997,177L576.997,153L575.997,152L575.997,138L574.997,137L574.997,129L573.997,128L573.997,122L572.997,121L572.997,116L571.997,115L571.997,110L570.997,109L570.997,105L569.997,104L569.997,100L568.997,99L568.997,96L567.997,95L567.997,92L566.997,91L566.997,89L565.997,88L565.997,86L564.997,85L564.997,83L563.997,82L563.997,81L561,78.003L560,78.003L559,77.003L553,77.003L552,78.003L550,78.003L549,79.003L547,79.003L546,80.003L545,80.003L544,81.003L543,81.003L542,82.003L540,82.003L539,83.003L538,83.003L537,84.003L536,84.003L534,86.003L533,86.003L532,87.003L531,87.003L530,88.003L529,88.003L528,89.003L527,89.003L526,90.003L525,90.003L523,92.003L522,92.003L520,94.003L519,94.003L518,95.003L517,95.003L515,97.003L514,97.003L512,99.003L511,99.003L508,102.003L507,102.003L505,104.003L504,104.003L501,107.003L500,107.003L497,110.003L496,110.003L492,114.003L491,114.003L486,119.003L485,119.003L477,127.003L476,127.003L462.003,141L462.003,142L453.003,151L453.003,152L448.003,157L448.003,158L444.003,162L444.003,163L441.003,166L441.003,167L438.003,170L438.003,171L436.003,173L436.003,174L433.003,177L433.003,178L431.003,180L431.003,181L429.003,183L429.003,184L427.003,186L427.003,187L426.003,188L426.003,189L424.003,191L424.003,192L423,193.003L407,193.003L406,192.003L390,192.003L387.997,190L387.997,189L385.997,187L385.997,186L383.997,184L383.997,183L380.997,180L380.997,179L377.997,176L377.997,175L373.997,171L373.997,170L366.997,163L366.997,162L354,149.003L353,149.003L345,141.003L344,141.003L339,136.003L338,136.003L335,133.003L334,133.003L331,130.003L330,130.003L328,128.003L327,128.003L324,125.003L323,125.003L321,123.003L320,123.003L318,121.003L317,121.003L315,119.003L314,119.003L313,118.003L312,118.003L310,116.003L309,116.003L307,114.003L306,114.003L305,113.003L304,113.003L303,112.003L302,112.003L300,110.003L299,110.003L298,109.003L297,109.003L296,108.003L295,108.003L294,107.003L293,107.003L292,106.003L291,106.003L290,105.003L289,105.003L288,104.003L287,104.003L286,103.003L285,103.003L284,102.003L283,102.003L282,101.003L281,101.003L280,100.003L278,100.003L277,99.003L276,99.003L275,98.003L273,98.003L272,97.003L271,97.003L270,96.003L261,96.003L258.003,99L258.003,100L257.003,101L257.003,117L258.003,118L258.003,124L259.003,125L259.003,131L260.003,132L260.003,137L261.003,138L261.003,142L262.003,143L262.003,147L263.003,148L263.003,151L264.003,152L264.003,156L265.003,157L265.003,160L266.003,161L266.003,164L267.003,165L267.003,167L268.003,168L268.003,171L269.003,172L269.003,174L270.003,175L270.003,178L271.003,179L271.003,181L272.003,182L272.003,184L273.003,185L273.003,187L274.003,188L274.003,190L275.003,191L275.003,192L276.003,193L276.003,195L277.003,196L277.003,198L278.003,199L278.003,200L279.003,201L279.003,203L280.003,204L280.003,205L281.003,206L281.003,207L282.003,208L282.003,210L283.003,211L283.003,212L284.003,213L284.003,214L285.003,215L285.003,216L286.003,217L286.003,218L287.003,219L287.003,220L289.003,222L289.003,223L272.003,240L272.003,241L267.003,246L267.003,247L264.003,250L264.003,251L262.003,253L262.003,254L260.003,256L260.003,257L258.003,259L258.003,260L256.003,262L256.003,263L255.003,264L255.003,265L254.003,266L254.003,267L252.003,269L252.003,270L251.003,271L251.003,272L250.003,273L250.003,274L249.003,275L249.003,277L248.003,278L248.003,279L247.003,280L247.003,281L246.003,282L246.003,284L245.003,285L245.003,286L244.003,287L244.003,289L243.003,290L243.003,292L242.003,293L242.003,294L241.003,295L241.003,297L240.003,298L240.003,301L239.003,302L239.003,304L238.003,305L238.003,307L237.003,308L237.003,311L236.003,312L236.003,314L235.003,315L235.003,317L234.003,318L234.003,320L233.003,321L233.003,323L232.003,324L232.003,326L231.003,327L231.003,328L230.003,329L230.003,331L229.003,332L229.003,333L228.003,334L228.003,336L227.003,337L227.003,338L226.003,339L226.003,340L225.003,341L225.003,342L224.003,343L224.003,344L223.003,345L223.003,346L222.003,347L222.003,348L221.003,349L221.003,350L219.003,352L219.003,353L217.003,355L217.003,356L214.003,359L214.003,360L201,373.003L200,373.003L198,375.003L197,375.003L195,377.003L194,377.003L193,378.003L192,378.003L191,379.003L190,379.003L189,380.003L188,380.003L187,381.003L186,381.003L185,382.003L183,382.003L182,383.003L180,383.003L179,384.003L176,384.003L175,385.003L170,385.003L169,386.003L164,386.003L163,387.003L161,387.003L158.003,390L158.003,391L157.003,392L157.003,398L158.003,399L158.003,401L159.003,402L159.003,404L160.003,405L160.003,406L161.003,407L161.003,408L162.003,409L162.003,410L164.003,412L164.003,413L167.003,416L167.003,417L178,427.997L179,427.997L183,431.997L184,431.997L187,434.997L188,434.997L189,435.997L190,435.997L192,437.997L193,437.997L195,439.997L196,439.997L197,440.997L198,440.997L199,441.997L200,441.997L201,442.997L202,442.997L203,443.997L204,443.997L205,444.997L206,444.997L207,445.997L208,445.997L209,446.997L210,446.997L211,447.997L213,447.997L214,448.997L215,448.997L216,449.997L217,449.997L218,450.997L220,450.997L221,451.997L223,451.997L224,452.997L225,452.997L226,453.997L228,453.997L229,454.997L231,454.997L232,455.997L234,455.997L235,456.997L238,456.997L239,457.997L241,457.997L242,458.997L245,458.997L246,459.997L249,459.997L250,460.997L253,460.997L254,461.997L257,461.997L258,462.997L262,462.997L263,463.997L267,463.997L268,464.997L272,464.997L273,465.997L277,465.997L278,466.997L282,466.997L283,467.997L288,467.997L289,468.997L294,468.997L295,469.997L300,469.997L301,470.997L306,470.997L307,471.997L313,471.997L314,472.997L319,472.997L320,473.997L325,473.997L326,474.997L329,474.997L331,476.997L332,476.997L334.003,479L334.003,480L335.003,481L335.003,482L336.003,483L336.003,492L335.003,493L335.003,497L334.003,498L334.003,501L333.003,502L333.003,504L332.003,505L332.003,507L331.003,508L331.003,509L330.003,510L330.003,512L329.003,513L329.003,514L328.003,515L328.003,517L327.003,518L327.003,519L326.003,520L326.003,521L325.003,522L325.003,523L324.003,524L324.003,525L323.003,526L323.003,527L322.003,528L322.003,529L321.003,530L321.003,532L320.003,533L320.003,534L319.003,535L319.003,536L318.003,537L318.003,538L317.003,539L317.003,540L316.003,541L316.003,542L315.003,543L315.003,545L314.003,546L314.003,547L313.003,548L313.003,549L312.003,550L312.003,551L311.003,552L311.003,553L310.003,554L310.003,556L309.003,557L309.003,558L308.003,559L308.003,560L307.003,561L307.003,562L306.003,563L306.003,565L305.003,566L305.003,567L304.003,568L304.003,569L303.003,570L303.003,572L302.003,573L302.003,574L301.003,575L301.003,577L300.003,578L300.003,579L299.003,580L299.003,582L298.003,583L298.003,585L297.003,586L297.003,587L296.003,588L296.003,590L295.003,591L295.003,593L294.003,594L294.003,596L293.003,597L293.003,599L292.003,600L292.003,603L291.003,604L291.003,606L290.003,607L290.003,610L289.003,611L289.003,614L288.003,615L288.003,617.533Z" style="fill:white;"/>
    </g>
</svg>
