<?xml version="1.0" encoding="UTF-8" standalone="no"?>
<!DOCTYPE svg PUBLIC "-//W3C//DTD SVG 1.1//EN" "http://www.w3.org/Graphics/SVG/1.1/DTD/svg11.dtd">
<svg width="100%" height="100%" viewBox="0 0 223 195" version="1.1" xmlns="http://www.w3.org/2000/svg" xmlns:xlink="http://www.w3.org/1999/xlink" xml:space="preserve" xmlns:serif="http://www.serif.com/" style="fill-rule:evenodd;clip-rule:evenodd;stroke-linejoin:round;stroke-miterlimit:2;">
    <g transform="matrix(1,0,0,1,-224.575,-46.8847)">
        <path d="M310.298,111.41C312.656,123.029 307.063,135.902 306.762,147.59C306.622,153.016 306.423,159.84 310.113,164.315C312.075,166.694 324.979,174.076 326.294,172.224C318.659,182.978 299.051,187.756 286.75,185.734C260.792,181.467 252.942,159.778 255.368,136.613C256.824,122.709 263.381,101.779 256.51,88.703C250.587,77.425 235.175,66.264 224.575,60.072C232.428,48.454 249.047,44.935 262.755,47.864C274.755,50.429 285.141,58.15 292.682,67.904C293.761,69.298 294.789,70.736 295.747,72.211C303.407,83.953 307.505,97.666 310.298,111.41Z" style="fill:rgb(246,137,53);fill-rule:nonzero;"/>
        <path d="M270.572,129.415C271.493,149.703 277.22,171.971 292.285,186.181C290.334,186.162 288.469,186.017 286.75,185.734C260.792,181.467 252.942,159.778 255.368,136.613C256.824,122.709 263.381,101.779 256.51,88.703C250.587,77.425 235.175,66.264 224.575,60.072C232.428,48.454 249.047,44.935 262.755,47.864C271.743,49.785 279.825,54.6 286.484,60.994C274.832,81.24 269.488,105.552 270.572,129.415Z" style="fill:rgb(207,95,39);fill-rule:nonzero;"/>
        <path d="M295.747,72.211C303.407,83.953 307.505,97.666 310.298,111.41C312.656,123.029 307.063,135.902 306.762,147.59C306.622,153.016 306.423,159.84 310.113,164.315C312.075,166.694 324.979,174.076 326.294,172.224C319.726,181.475 304.301,186.299 292.285,186.181C277.22,171.971 271.493,149.703 270.572,129.415C269.488,105.552 274.832,81.24 286.484,60.994C288.716,63.136 290.788,65.456 292.682,67.904C293.761,69.298 294.789,70.736 295.747,72.211Z" style="fill:rgb(234,119,36);fill-rule:nonzero;"/>
        <path d="M262.755,47.864C274.755,50.429 285.141,58.15 292.682,67.904C292.957,70.053 293.084,72.228 293.057,74.396C286.988,67.594 277.688,63.813 268.592,64.441C272.326,69.644 274.276,76.089 274.073,82.487C270.248,76.815 263.184,73.5 256.379,74.178C260.062,80.591 260.971,88.522 258.877,95.601C250.936,80.952 238.974,68.484 224.575,60.072C232.428,48.454 249.047,44.935 262.755,47.864Z" style="fill:rgb(224,205,157);fill-rule:nonzero;"/>
        <path d="M304.043,130.282C303.438,130.734 303.338,131.539 303.135,132.225C302.91,132.982 302.71,133.756 302.598,134.538C302.531,135.001 303.154,135.065 303.336,134.707C303.721,133.952 304.006,133.149 304.276,132.348C304.503,131.679 304.78,131.089 304.558,130.393C304.487,130.176 304.195,130.168 304.043,130.282Z" style="fill:rgb(240,175,126);fill-rule:nonzero;"/>
        <path d="M304.342,117.967C304.029,118.587 304.183,119.168 304.199,119.839C304.219,120.653 304.159,121.46 304.034,122.264C303.943,122.85 304.908,123.078 305.054,122.497C305.264,121.658 305.4,120.822 305.422,119.956C305.439,119.207 305.456,118.428 304.9,117.869C304.715,117.683 304.456,117.74 304.342,117.967Z" style="fill:rgb(240,175,126);fill-rule:nonzero;"/>
        <path d="M302.95,105.958C302.789,106.971 303.074,108.035 303.21,109.046C303.365,110.193 303.546,111.336 303.769,112.472C303.879,113.035 304.662,112.87 304.626,112.322C304.551,111.163 304.434,110.008 304.29,108.856C304.163,107.842 304.16,106.758 303.743,105.818C303.566,105.419 303.013,105.568 302.95,105.958Z" style="fill:rgb(240,175,126);fill-rule:nonzero;"/>
        <path d="M301.255,96.135C300.932,96.552 301.19,96.992 301.348,97.436C301.581,98.1 301.821,98.76 302.073,99.418C302.272,99.937 303.181,99.654 303.013,99.118C302.835,98.551 302.654,97.987 302.461,97.424C302.29,96.929 302.213,96.165 301.631,96.018C301.482,95.98 301.352,96.011 301.255,96.135Z" style="fill:rgb(240,175,126);fill-rule:nonzero;"/>
        <path d="M301.145,124.219C300.609,124.602 300.729,125.424 300.667,126.015C300.585,126.804 300.365,127.572 300.28,128.358C300.241,128.719 300.737,128.904 300.941,128.602C301.39,127.937 301.599,127.161 301.772,126.388C301.924,125.717 302.188,124.673 301.55,124.201C301.423,124.107 301.266,124.133 301.145,124.219Z" style="fill:rgb(240,175,126);fill-rule:nonzero;"/>
        <path d="M300.09,114.034C299.893,114.442 299.986,114.987 299.951,115.437C299.912,115.927 299.807,116.406 299.713,116.887C299.61,117.415 300.379,117.517 300.577,117.085C300.804,116.594 300.93,116.07 301.017,115.539C301.094,115.063 301.198,114.424 300.94,113.996C300.727,113.642 300.271,113.659 300.09,114.034Z" style="fill:rgb(240,175,126);fill-rule:nonzero;"/>
        <path d="M298.931,100.813C298.771,101.302 298.97,101.743 299.07,102.235C299.21,102.919 299.271,103.634 299.272,104.331C299.273,104.882 300.084,104.981 300.14,104.413C300.209,103.701 300.207,103.012 300.121,102.303C300.049,101.707 299.986,101.022 299.495,100.636C299.309,100.491 299.003,100.591 298.931,100.813Z" style="fill:rgb(240,175,126);fill-rule:nonzero;"/>
        <path d="M298.424,121.217C298.469,121.49 298.554,121.73 298.548,122.011C298.54,122.346 298.384,122.604 298.467,122.944C298.515,123.141 298.705,123.318 298.923,123.264C299.495,123.121 299.65,122.66 299.761,122.127C299.856,121.661 299.735,121.11 299.454,120.733C299.093,120.247 298.332,120.663 298.424,121.217Z" style="fill:rgb(240,175,126);fill-rule:nonzero;"/>
        <path d="M297.307,108.338C297.247,108.726 297.37,109.131 297.452,109.51C297.539,109.909 297.604,110.313 297.711,110.707C297.874,111.306 298.708,111.159 298.656,110.541C298.622,110.134 298.546,109.731 298.491,109.327C298.438,108.942 298.416,108.52 298.229,108.176C297.995,107.748 297.38,107.856 297.307,108.338Z" style="fill:rgb(240,175,126);fill-rule:nonzero;"/>
        <path d="M343.922,211.365C357.001,211.281 370.074,208.349 381.894,202.763C399.726,194.335 413.993,169.728 405.257,149.926C399.432,136.724 386.188,136.13 371.285,139.177C356.691,142.16 343.835,148.508 329.936,153.309C318.133,157.385 309.776,165.375 307.17,178.395C303.229,198.078 312.368,207.744 330.333,210.412C334.828,211.079 339.375,211.395 343.922,211.365Z" style="fill:rgb(234,119,36);fill-rule:nonzero;"/>
        <path d="M335.861,221.199C335.538,213.333 334.635,205.487 333.587,197.688C333.462,196.763 333.3,195.366 333.072,193.693C332.95,193.759 332.826,193.823 332.689,193.872C328.141,195.797 325.279,190.349 324.271,185.782C322.536,188.5 322.611,194.666 318.3,191.659C318.972,196.165 319.646,200.669 320.33,205.172C321.627,213.697 322.933,222.221 324.249,230.743C324.249,230.743 328.847,246.555 334.179,237.885C336.928,233.416 336.065,226.148 335.861,221.199Z" style="fill:rgb(120,62,36);fill-rule:nonzero;"/>
        <path d="M407.704,159.187C409.58,176.815 397.023,195.613 381.894,202.763C370.074,208.349 357.001,211.281 343.922,211.365C339.375,211.395 334.828,211.079 330.333,210.412C312.368,207.744 303.229,198.078 307.17,178.395C308.16,173.45 309.983,169.234 312.506,165.679C319.28,169.084 326.575,171.604 334.485,173.01C360.287,177.892 386.085,173.104 407.704,159.187Z" style="fill:rgb(207,95,39);fill-rule:nonzero;"/>
        <path d="M366.71,186.95C367.628,191.537 370.38,197.041 374.967,195.206C375.104,195.161 375.229,195.099 375.353,195.036C374.297,185.897 371.479,168.502 361.898,174.033C357.406,176.627 359.534,184.223 360.067,188.426C360.248,189.854 360.439,191.28 360.624,192.708C364.875,195.799 364.922,189.633 366.71,186.95Z" style="fill:rgb(234,119,36);fill-rule:nonzero;"/>
        <path d="M377.593,222.592C377.426,214.721 376.68,206.858 375.787,199.04C375.681,198.112 375.546,196.712 375.353,195.036C375.229,195.099 375.104,195.161 374.967,195.206C370.38,197.041 367.628,191.537 366.71,186.95C364.922,189.633 364.875,195.799 360.624,192.708C361.205,197.225 361.79,201.742 362.385,206.258C363.51,214.807 364.646,223.355 365.793,231.901C365.793,231.901 370.074,247.802 375.578,239.241C378.415,234.828 377.698,227.543 377.593,222.592Z" style="fill:rgb(120,62,36);fill-rule:nonzero;"/>
        <path d="M393.302,185.681C393.6,190.349 395.593,196.171 400.383,194.965C400.525,194.938 400.657,194.894 400.788,194.848C400.961,185.649 400.49,168.035 390.257,172.238C385.459,174.209 386.555,182.02 386.521,186.257C386.511,187.696 386.51,189.135 386.502,190.575C390.303,194.206 391.172,188.101 393.302,185.681Z" style="fill:rgb(234,119,36);fill-rule:nonzero;"/>
        <path d="M399.332,222.456C400.217,214.633 400.526,206.741 400.685,198.874C400.703,197.94 400.757,196.535 400.788,194.848C400.657,194.894 400.525,194.938 400.383,194.965C395.593,196.171 393.6,190.349 393.302,185.681C391.172,188.101 390.303,194.206 386.502,190.575C386.476,195.129 386.452,199.684 386.438,204.239C386.414,212.862 386.399,221.485 386.395,230.108C386.395,230.108 388.516,246.438 395.113,238.688C398.514,234.692 398.775,227.377 399.332,222.456Z" style="fill:rgb(120,62,36);fill-rule:nonzero;"/>
        <path d="M329.936,153.309C343.835,148.508 356.691,142.16 371.285,139.177C386.188,136.13 399.432,136.724 405.257,149.926C406.58,152.927 407.368,156.038 407.704,159.187C386.085,173.104 360.287,177.892 334.485,173.01C326.575,171.604 319.28,169.084 312.506,165.679C316.625,159.874 322.615,155.837 329.936,153.309Z" style="fill:rgb(234,119,36);fill-rule:nonzero;"/>
        <path d="M378.698,148.054C374.325,152.299 370.292,157.376 367.098,161.737C381.418,162.467 395.567,159.112 408.839,153.55C408.433,151.797 407.847,150.089 407.077,148.463C397.791,150.304 387.967,149.995 378.698,148.054Z" style="fill:rgb(224,205,157);fill-rule:nonzero;"/>
        <path d="M407.077,148.463C406.609,147.474 406.072,146.515 405.466,145.596C397.947,134.204 387.616,139.399 378.698,148.054C387.967,149.995 397.791,150.304 407.077,148.463Z" style="fill:rgb(193,179,141);fill-rule:nonzero;"/>
        <path d="M367.098,161.737C365.185,164.347 363.571,166.703 362.366,168.468C367.05,166.463 371.732,164.459 376.415,162.455C371.594,170.611 369.006,180.073 369.006,189.548C382.031,187.155 394.197,180.31 403.004,170.419C403.135,172.473 403.267,174.526 403.398,176.58C408.79,170.391 410.681,161.51 408.839,153.55C395.567,159.112 381.418,162.467 367.098,161.737Z" style="fill:rgb(193,179,141);fill-rule:nonzero;"/>
        <path d="M409.487,100.741C410.392,101.589 411.344,102.389 412.331,103.126C415.558,105.56 419.194,107.424 423.062,108.578C424.591,109.044 426.155,109.398 427.748,109.635C437.053,100.359 439.813,85.144 434.361,73.19C420.989,76.055 410.662,87.119 409.487,100.741Z" style="fill:rgb(234,119,36);fill-rule:nonzero;"/>
        <path d="M412.331,103.126C415.558,105.56 419.194,107.424 423.062,108.578C423.305,108.397 423.534,108.182 423.75,107.932C429,101.93 430.981,92.918 428.771,85.082C420.968,88.204 415.016,94.824 412.331,103.126Z" style="fill:rgb(120,62,36);fill-rule:nonzero;"/>
        <path d="M368.91,100.741C368.006,101.589 367.054,102.389 366.066,103.126C362.84,105.56 359.203,107.424 355.336,108.578C353.807,109.044 352.242,109.398 350.649,109.635C341.345,100.359 338.584,85.144 344.036,73.19C357.408,76.055 367.735,87.119 368.91,100.741Z" style="fill:rgb(234,119,36);fill-rule:nonzero;"/>
        <path d="M366.066,103.126C362.84,105.56 359.203,107.424 355.336,108.578C355.093,108.397 354.863,108.182 354.647,107.932C349.397,101.93 347.416,92.918 349.627,85.082C357.43,88.204 363.382,94.824 366.066,103.126Z" style="fill:rgb(120,62,36);fill-rule:nonzero;"/>
        <path d="M332.852,136.514C367.998,154.496 411.629,154.835 447.052,137.403C439.742,112.073 417.274,88.679 390.917,88.791C364.552,88.903 339.948,111.128 332.852,136.514Z" style="fill:rgb(246,137,53);fill-rule:nonzero;"/>
        <path d="M332.852,136.514C367.998,154.496 411.629,154.835 447.052,137.403C447.052,137.403 407.53,87.093 392.418,145.272L386.416,144.439C386.416,144.439 378.556,80.603 332.852,136.514Z" style="fill:rgb(224,205,157);fill-rule:nonzero;"/>
        <path d="M381.495,145.091C382.78,143.1 388.2,143.506 389.941,143.596C391.569,143.68 396.044,143.837 397.087,145.294C399.57,148.762 392.405,152.592 389.874,152.54C387.916,152.499 386.03,151.643 384.53,150.417C383.548,149.612 380.977,147.134 381.253,145.696C381.295,145.473 381.378,145.272 381.495,145.091Z" style="fill:rgb(149,40,45);fill-rule:nonzero;"/>
        <path d="M385.91,145.896C386.57,144.947 387.573,144.991 388.651,144.912C389.793,144.827 391.254,144.738 392.207,145.468C392.645,145.803 392.868,146.659 392.207,146.941C391.297,147.329 390.406,147.23 389.434,147.246C388.384,147.262 387.17,147.784 386.244,147.167C385.849,146.904 385.609,146.33 385.91,145.896Z" style="fill:rgb(169,49,53);fill-rule:nonzero;"/>
        <path d="M409.375,127.441C410.418,126.068 412.061,126.068 413.104,127.441C413.845,128.417 413.7,130.223 413.672,131.419C413.652,132.217 413.236,133.164 412.467,133.52C411.559,133.94 410.921,133.94 410.012,133.52C409.242,133.164 408.826,132.217 408.808,131.419C408.778,130.223 408.634,128.417 409.375,127.441Z" style="fill:rgb(120,62,36);fill-rule:nonzero;"/>
        <path d="M367.046,127.441C368.089,126.068 369.731,126.068 370.774,127.441C371.516,128.417 371.371,130.223 371.343,131.419C371.323,132.217 370.907,133.164 370.138,133.52C369.229,133.94 368.592,133.94 367.683,133.52C366.913,133.164 366.497,132.217 366.479,131.419C366.449,130.223 366.305,128.417 367.046,127.441Z" style="fill:rgb(120,62,36);fill-rule:nonzero;"/>
        <path d="M392.79,116.547C392.878,115.883 392.96,115.213 393.095,114.558C393.202,114.041 394.041,114.157 394.013,114.682C393.975,115.394 393.874,116.106 393.785,116.813C393.716,117.354 393.746,117.977 393.303,118.351C393.152,118.479 392.96,118.454 392.847,118.292C392.491,117.787 392.715,117.121 392.79,116.547Z" style="fill:rgb(240,175,126);fill-rule:nonzero;"/>
        <path d="M385.02,116.683C385.022,115.898 385.025,115.109 385.116,114.329C385.175,113.822 385.845,113.822 385.904,114.329C385.983,115.013 385.99,115.701 386,116.388C386.009,117.036 386.129,117.748 385.813,118.331C385.688,118.559 385.331,118.559 385.207,118.331C384.927,117.814 385.018,117.259 385.02,116.683Z" style="fill:rgb(240,175,126);fill-rule:nonzero;"/>
        <path d="M390.232,124.947C390.234,124.305 390.242,123.659 390.318,123.021C390.38,122.498 391.07,122.498 391.133,123.021C391.209,123.659 391.217,124.305 391.218,124.947C391.22,125.438 391.36,126.023 390.937,126.362C390.798,126.473 390.652,126.473 390.515,126.362C390.091,126.023 390.231,125.438 390.232,124.947Z" style="fill:rgb(240,175,126);fill-rule:nonzero;"/>
        <path d="M400.684,114.401C400.815,113.756 400.95,113.118 401.127,112.483C401.254,112.028 402.033,112.103 401.976,112.598C401.904,113.212 401.804,113.816 401.69,114.424C401.585,114.988 401.567,115.561 401.2,116.016C401.009,116.253 400.633,116.099 400.556,115.846C400.408,115.36 400.585,114.887 400.684,114.401Z" style="fill:rgb(240,175,126);fill-rule:nonzero;"/>
        <path d="M396.949,108.53C397.059,107.807 397.226,107.093 397.588,106.454C397.803,106.075 398.293,106.353 398.238,106.728C398.149,107.34 397.995,107.941 397.892,108.551C397.805,109.057 397.905,109.636 397.518,110.016C397.409,110.123 397.209,110.137 397.103,110.016C396.731,109.595 396.869,109.052 396.949,108.53Z" style="fill:rgb(240,175,126);fill-rule:nonzero;"/>
        <path d="M395.918,124.908C396.145,124.416 396.407,123.938 396.727,123.499C396.998,123.126 397.66,123.333 397.512,123.83C397.372,124.295 397.18,124.742 396.961,125.176C396.801,125.495 396.554,126.019 396.096,125.86C395.675,125.715 395.776,125.216 395.918,124.908Z" style="fill:rgb(240,175,126);fill-rule:nonzero;"/>
        <path d="M383.189,123.09C383.525,123.703 383.865,124.534 383.903,125.235C383.929,125.688 383.307,125.809 383.087,125.456C382.717,124.86 382.537,123.979 382.461,123.288C382.417,122.891 383.012,122.767 383.189,123.09Z" style="fill:rgb(240,175,126);fill-rule:nonzero;"/>
        <path d="M389.279,106.147C389.43,105.921 389.796,105.94 389.87,106.224C389.963,106.576 389.932,106.934 389.921,107.294C389.907,107.758 389.943,108.22 389.948,108.683C389.956,109.349 389.027,109.302 388.946,108.683C388.847,107.919 388.838,106.812 389.279,106.147Z" style="fill:rgb(240,175,126);fill-rule:nonzero;"/>
        <path d="M380.264,106.696C380.318,106.335 380.93,106.337 380.986,106.696C381.079,107.281 381.158,107.866 381.294,108.444C381.412,108.943 381.635,109.383 381.475,109.896C381.432,110.035 381.289,110.083 381.164,110.022C380.142,109.537 380.122,107.644 380.264,106.696Z" style="fill:rgb(240,175,126);fill-rule:nonzero;"/>
        <path d="M395.428,102.58C395.503,102.093 395.568,101.583 395.714,101.111C395.857,100.647 396.57,100.726 396.567,101.227C396.565,101.763 396.463,102.313 396.382,102.843C396.341,103.109 396.01,103.253 395.773,103.188C395.491,103.11 395.387,102.846 395.428,102.58Z" style="fill:rgb(240,175,126);fill-rule:nonzero;"/>
        <path d="M403.556,103.975C403.887,103.63 404.382,104.066 404.187,104.462C403.853,105.14 403.58,105.8 403.435,106.545C403.311,107.183 402.391,106.898 402.479,106.282C402.6,105.429 402.955,104.599 403.556,103.975Z" style="fill:rgb(240,175,126);fill-rule:nonzero;"/>
        <path d="M382.977,103.587C383.081,102.947 383.246,102.331 383.396,101.703C383.512,101.224 384.312,101.318 384.267,101.82C384.218,102.368 384.184,102.908 384.107,103.455C384.033,103.991 384.07,104.611 383.569,104.923C383.432,105.008 383.203,104.994 383.096,104.862C382.757,104.448 382.895,104.087 382.977,103.587Z" style="fill:rgb(240,175,126);fill-rule:nonzero;"/>
        <path d="M313.455,224.341C315.964,216.879 317.926,209.228 319.734,201.57C319.948,200.661 320.296,199.298 320.682,197.656C320.544,197.673 320.405,197.688 320.261,197.685C315.323,197.857 314.599,191.747 315.289,187.12C312.697,189.039 310.564,194.824 307.612,190.475C306.629,194.923 305.649,199.371 304.679,203.821C302.842,212.247 301.016,220.673 299.198,229.103C299.198,229.103 297.84,245.514 305.919,239.323C310.084,236.132 311.876,229.036 313.455,224.341Z" style="fill:rgb(120,62,36);fill-rule:nonzero;"/>
    </g>
</svg>
