<?xml version="1.0" encoding="UTF-8" standalone="no"?>
<!DOCTYPE svg PUBLIC "-//W3C//DTD SVG 1.1//EN" "http://www.w3.org/Graphics/SVG/1.1/DTD/svg11.dtd">
<svg width="100%" height="100%" viewBox="0 0 174 182" version="1.1" xmlns="http://www.w3.org/2000/svg" xmlns:xlink="http://www.w3.org/1999/xlink" xml:space="preserve" xmlns:serif="http://www.serif.com/" style="fill-rule:evenodd;clip-rule:evenodd;stroke-linejoin:round;stroke-miterlimit:2;">
    <g transform="matrix(1,0,0,1,-49.154,-276.916)">
        <path d="M124.095,380.696C126.997,390.087 123.442,401.167 124.155,410.834C124.486,415.32 124.884,420.967 128.296,424.354C130.11,426.155 141.363,431.184 142.295,429.548C136.882,439.047 121.1,444.603 110.786,443.946C89.021,442.563 80.761,425.316 80.855,406.008C80.912,394.418 84.598,376.613 77.855,366.391C72.041,357.575 58.408,349.637 49.154,345.4C54.676,335.17 68.096,330.899 79.645,332.188C89.755,333.316 98.958,338.831 105.982,346.257C106.987,347.317 107.954,348.419 108.865,349.558C116.15,358.613 120.66,369.588 124.095,380.696Z" style="fill:rgb(246,137,53);fill-rule:nonzero;"/>
        <path d="M92.805,398.818C95.234,415.479 101.791,433.377 115.389,443.859C113.777,444.004 112.227,444.038 110.786,443.946C89.021,442.563 80.761,425.316 80.855,406.008C80.912,394.418 84.598,376.613 77.855,366.391C72.041,357.575 58.408,349.637 49.154,345.4C54.676,335.17 68.096,330.899 79.645,332.188C87.218,333.033 94.281,336.339 100.301,341.065C92.355,358.727 89.947,379.223 92.805,398.818Z" style="fill:rgb(207,95,39);fill-rule:nonzero;"/>
        <path d="M108.865,349.558C116.15,358.613 120.66,369.589 124.095,380.696C126.996,390.087 123.442,401.167 124.155,410.834C124.486,415.32 124.884,420.967 128.296,424.354C130.11,426.155 141.363,431.184 142.295,429.548C137.638,437.72 125.31,442.969 115.389,443.859C101.791,433.377 95.234,415.479 92.805,398.818C89.947,379.223 92.355,358.727 100.301,341.065C102.319,342.649 104.219,344.393 105.982,346.257C106.987,347.317 107.954,348.419 108.865,349.558Z" style="fill:rgb(234,119,36);fill-rule:nonzero;"/>
        <path d="M79.645,332.188C89.755,333.316 98.958,338.831 105.982,346.257C106.386,348.007 106.67,349.79 106.826,351.581C101.26,346.469 93.276,344.115 85.824,345.383C89.333,349.367 91.473,354.523 91.832,359.817C88.209,355.453 82.109,353.301 76.551,354.42C80.117,359.406 81.52,365.874 80.376,371.887C72.618,360.456 61.725,351.154 49.154,345.4C54.676,335.17 68.096,330.899 79.645,332.188Z" style="fill:rgb(224,205,157);fill-rule:nonzero;"/>
        <path d="M120.488,396.779C120.026,397.202 120.01,397.874 119.899,398.457C119.776,399.1 119.674,399.755 119.646,400.409C119.63,400.797 120.148,400.799 120.27,400.488C120.524,399.833 120.693,399.147 120.851,398.464C120.982,397.894 121.163,397.385 120.921,396.828C120.846,396.655 120.604,396.673 120.488,396.779Z" style="fill:rgb(240,175,126);fill-rule:nonzero;"/>
        <path d="M119.721,386.596C119.514,387.133 119.688,387.6 119.757,388.152C119.841,388.821 119.858,389.492 119.821,390.165C119.794,390.656 120.609,390.765 120.681,390.273C120.785,389.564 120.83,388.863 120.775,388.147C120.729,387.528 120.678,386.884 120.174,386.469C120.005,386.33 119.796,386.398 119.721,386.596Z" style="fill:rgb(240,175,126);fill-rule:nonzero;"/>
        <path d="M117.585,376.803C117.535,377.652 117.858,378.507 118.053,379.329C118.275,380.264 118.519,381.191 118.796,382.11C118.934,382.565 119.566,382.364 119.491,381.915C119.333,380.966 119.142,380.022 118.928,379.084C118.74,378.258 118.648,377.364 118.228,376.623C118.049,376.309 117.604,376.478 117.585,376.803Z" style="fill:rgb(240,175,126);fill-rule:nonzero;"/>
        <path d="M115.377,368.84C115.146,369.21 115.396,369.552 115.561,369.905C115.809,370.434 116.061,370.959 116.323,371.48C116.53,371.893 117.256,371.584 117.073,371.156C116.88,370.703 116.685,370.252 116.479,369.804C116.297,369.409 116.171,368.786 115.678,368.712C115.553,368.693 115.447,368.729 115.377,368.84Z" style="fill:rgb(240,175,126);fill-rule:nonzero;"/>
        <path d="M117.598,392.017C117.188,392.376 117.354,393.044 117.352,393.537C117.349,394.194 117.231,394.846 117.226,395.502C117.223,395.803 117.647,395.914 117.791,395.648C118.106,395.063 118.215,394.406 118.295,393.754C118.364,393.188 118.496,392.305 117.931,391.968C117.818,391.9 117.69,391.936 117.598,392.017Z" style="fill:rgb(240,175,126);fill-rule:nonzero;"/>
        <path d="M115.89,383.701C115.761,384.055 115.882,384.496 115.891,384.87C115.899,385.277 115.852,385.682 115.814,386.086C115.772,386.529 116.415,386.55 116.543,386.178C116.689,385.755 116.75,385.312 116.778,384.866C116.803,384.467 116.836,383.932 116.588,383.6C116.383,383.325 116.008,383.377 115.89,383.701Z" style="fill:rgb(240,175,126);fill-rule:nonzero;"/>
        <path d="M113.845,372.89C113.753,373.307 113.954,373.654 114.078,374.052C114.249,374.604 114.359,375.189 114.417,375.764C114.463,376.219 115.14,376.233 115.139,375.761C115.138,375.168 115.079,374.6 114.95,374.021C114.841,373.535 114.733,372.977 114.296,372.698C114.131,372.593 113.887,372.701 113.845,372.89Z" style="fill:rgb(240,175,126);fill-rule:nonzero;"/>
        <path d="M115.106,389.764C115.166,389.985 115.256,390.177 115.274,390.409C115.295,390.686 115.188,390.911 115.284,391.185C115.34,391.344 115.511,391.475 115.687,391.411C116.147,391.246 116.237,390.853 116.284,390.404C116.325,390.013 116.179,389.567 115.917,389.279C115.579,388.908 114.985,389.314 115.106,389.764Z" style="fill:rgb(240,175,126);fill-rule:nonzero;"/>
        <path d="M113.125,379.231C113.108,379.556 113.242,379.88 113.342,380.186C113.446,380.508 113.533,380.836 113.654,381.152C113.837,381.633 114.513,381.443 114.419,380.938C114.358,380.604 114.262,380.279 114.184,379.949C114.109,379.637 114.056,379.29 113.873,379.022C113.645,378.688 113.146,378.828 113.125,379.231Z" style="fill:rgb(240,175,126);fill-rule:nonzero;"/>
        <path d="M197.131,434.707C205.303,424.953 204.956,409.491 202.244,396.354C199.565,383.374 195.759,370.289 189.835,358.739C184.089,347.534 177.516,340.726 166.211,338.522C152.044,335.762 143.993,346.295 137.983,360.271C132.098,373.955 129.968,388.134 125.972,402.286C122.579,414.302 124.366,425.725 133.565,435.3C147.944,450.265 183.334,451.174 197.131,434.707Z" style="fill:rgb(234,119,36);fill-rule:nonzero;"/>
        <path d="M198.706,450.793C190.939,449.505 183.263,447.644 175.653,445.646C174.75,445.408 173.383,445.075 171.751,444.644C171.832,444.53 171.911,444.415 171.975,444.286C174.446,440.008 169.39,436.499 164.981,434.937C167.892,433.549 174.001,434.382 171.548,429.733C175.937,430.953 180.324,432.177 184.709,433.409C193.01,435.743 201.309,438.087 209.604,440.441C209.604,440.441 224.731,446.947 215.472,451.174C210.699,453.353 203.592,451.603 198.706,450.793Z" style="fill:rgb(120,62,36);fill-rule:nonzero;"/>
        <path d="M127.87,451.71C135.637,450.422 143.313,448.562 150.923,446.563C151.827,446.325 153.193,445.992 154.825,445.562C154.744,445.448 154.666,445.333 154.601,445.203C152.13,440.926 157.186,437.416 161.595,435.854C158.684,434.466 152.575,435.299 155.028,430.65C150.64,431.871 146.252,433.094 141.867,434.327C133.566,436.661 125.268,439.005 116.972,441.358C116.972,441.358 101.845,447.864 111.104,452.091C115.877,454.27 122.984,452.521 127.87,451.71Z" style="fill:rgb(120,62,36);fill-rule:nonzero;"/>
        <path d="M201.162,391.388C201.542,393.043 201.902,394.698 202.244,396.354C204.03,405.005 208.31,412.537 208.023,421.747C207.796,429.016 204.889,436.492 199.043,440.818C194.117,444.464 187.926,445.373 181.956,445.565C166.119,446.075 143.83,451.498 129.979,440.735C124.879,436.773 122.575,430.03 122.483,423.572C122.346,413.999 125.694,403.868 127.981,394.64C137.705,399.342 148.26,402.539 159.314,404.118C174.548,406.556 190.239,401.611 201.162,391.388Z" style="fill:rgb(207,95,39);fill-rule:nonzero;"/>
        <path d="M166.211,338.522C177.516,340.726 184.089,347.534 189.835,358.739C195.004,368.816 198.56,380.063 201.162,391.388C190.239,401.611 174.548,406.556 159.314,404.118C148.26,402.539 137.705,399.342 127.981,394.64C130.856,383.043 133.158,371.49 137.983,360.271C143.993,346.295 152.044,335.762 166.211,338.522Z" style="fill:rgb(234,119,36);fill-rule:nonzero;"/>
        <path d="M150.47,361.955C163.691,364.705 177.085,364.678 189.359,359.351C193.532,367.475 191.917,377.211 188.217,387.049C186.254,383.767 184.291,380.484 182.328,377.201C180.043,389.378 173.1,400.62 163.235,408.114C160.896,398.756 158.558,389.397 156.219,380.04C153.792,382.351 151.366,384.661 148.94,386.972C149.026,386.89 148.2,380.165 147.752,374.986C147.523,372.33 147.393,370.081 147.536,369.343C148.158,366.144 149.126,364.011 150.47,361.955Z" style="fill:rgb(224,205,157);fill-rule:nonzero;"/>
        <path d="M150.47,361.955C151.399,360.533 152.508,359.147 153.812,357.472C161.857,347.14 170.979,342.383 182.577,351.383C185.679,353.791 187.88,356.471 189.359,359.351C177.085,364.678 163.691,364.705 150.47,361.955Z" style="fill:rgb(193,179,141);fill-rule:nonzero;"/>
        <path d="M184.832,304.467C185.736,305.315 186.689,306.115 187.676,306.853C190.903,309.286 194.54,311.149 198.406,312.304C199.936,312.77 201.5,313.124 203.093,313.361C212.397,304.085 215.158,288.869 209.707,276.916C196.334,279.78 186.007,290.845 184.832,304.467Z" style="fill:rgb(234,119,36);fill-rule:nonzero;"/>
        <path d="M187.676,306.853C190.903,309.286 194.54,311.149 198.406,312.304C198.649,312.123 198.879,311.907 199.095,311.657C204.345,305.656 206.327,296.644 204.115,288.807C196.313,291.929 190.361,298.549 187.676,306.853Z" style="fill:rgb(120,62,36);fill-rule:nonzero;"/>
        <path d="M144.255,304.467C143.352,305.315 142.399,306.115 141.411,306.853C138.185,309.286 134.548,311.149 130.682,312.304C129.151,312.77 127.587,313.124 125.995,313.361C116.69,304.085 113.93,288.869 119.381,276.916C132.754,279.78 143.08,290.845 144.255,304.467Z" style="fill:rgb(234,119,36);fill-rule:nonzero;"/>
        <path d="M141.411,306.853C138.185,309.286 134.548,311.149 130.682,312.304C130.438,312.123 130.207,311.907 129.993,311.657C124.743,305.656 122.761,296.644 124.972,288.807C132.774,291.929 138.727,298.549 141.411,306.853Z" style="fill:rgb(120,62,36);fill-rule:nonzero;"/>
        <path d="M108.197,340.24C143.343,358.222 186.974,358.562 222.397,341.129C215.087,315.799 192.62,292.404 166.262,292.517C139.896,292.628 115.293,314.854 108.197,340.24Z" style="fill:rgb(246,137,53);fill-rule:nonzero;"/>
        <path d="M108.197,340.24C143.343,358.222 186.974,358.562 222.397,341.129C222.397,341.129 192.05,290.818 176.937,348.998L170.936,348.165C170.936,348.165 153.901,284.328 108.197,340.24Z" style="fill:rgb(224,205,157);fill-rule:nonzero;"/>
        <path d="M166.014,348.817C167.3,346.826 172.719,347.231 174.461,347.321C176.088,347.405 180.563,347.563 181.606,349.02C184.09,352.487 176.924,356.318 174.393,356.266C172.435,356.225 170.549,355.369 169.05,354.143C168.067,353.338 165.496,350.859 165.771,349.422C165.814,349.199 165.897,348.998 166.014,348.817Z" style="fill:rgb(149,40,45);fill-rule:nonzero;"/>
        <path d="M170.429,349.622C171.089,348.673 172.092,348.717 173.17,348.638C174.312,348.553 175.773,348.464 176.726,349.193C177.164,349.529 177.388,350.385 176.726,350.667C175.816,351.055 174.925,350.956 173.953,350.972C172.902,350.987 171.688,351.51 170.763,350.894C170.368,350.63 170.128,350.056 170.429,349.622Z" style="fill:rgb(169,49,53);fill-rule:nonzero;"/>
        <path d="M189.307,331.167C190.351,329.794 191.993,329.794 193.036,331.167C193.777,332.144 193.632,333.949 193.604,335.146C193.584,335.943 193.168,336.89 192.399,337.245C191.49,337.666 190.853,337.666 189.944,337.245C189.175,336.89 188.758,335.943 188.739,335.146C188.711,333.949 188.566,332.144 189.307,331.167Z" style="fill:rgb(120,62,36);fill-rule:nonzero;"/>
        <path d="M146.978,331.167C148.021,329.794 149.664,329.794 150.707,331.167C151.448,332.144 151.303,333.949 151.274,335.146C151.255,335.943 150.839,336.89 150.07,337.245C149.161,337.666 148.523,337.666 147.615,337.245C146.846,336.89 146.429,335.943 146.41,335.146C146.381,333.949 146.237,332.144 146.978,331.167Z" style="fill:rgb(120,62,36);fill-rule:nonzero;"/>
        <path d="M168.135,320.272C168.223,319.609 168.305,318.939 168.44,318.283C168.547,317.767 169.386,317.883 169.358,318.407C169.32,319.119 169.22,319.832 169.13,320.539C169.062,321.08 169.092,321.702 168.648,322.077C168.498,322.204 168.305,322.18 168.192,322.019C167.836,321.513 168.06,320.847 168.135,320.272Z" style="fill:rgb(240,175,126);fill-rule:nonzero;"/>
        <path d="M160.364,320.408C160.368,319.624 160.371,318.835 160.461,318.055C160.52,317.548 161.19,317.548 161.249,318.055C161.329,318.738 161.335,319.427 161.345,320.114C161.354,320.762 161.474,321.474 161.158,322.057C161.034,322.284 160.676,322.284 160.553,322.057C160.272,321.54 160.362,320.985 160.364,320.408Z" style="fill:rgb(240,175,126);fill-rule:nonzero;"/>
        <path d="M165.578,328.673C165.58,328.031 165.587,327.385 165.663,326.747C165.725,326.224 166.416,326.224 166.478,326.747C166.554,327.385 166.562,328.031 166.563,328.673C166.564,329.164 166.706,329.749 166.282,330.088C166.143,330.198 165.998,330.198 165.859,330.088C165.436,329.749 165.577,329.164 165.578,328.673Z" style="fill:rgb(240,175,126);fill-rule:nonzero;"/>
        <path d="M176.029,318.127C176.161,317.482 176.295,316.844 176.472,316.209C176.599,315.754 177.378,315.828 177.32,316.324C177.25,316.938 177.149,317.542 177.036,318.149C176.93,318.714 176.913,319.286 176.545,319.742C176.354,319.979 175.978,319.824 175.901,319.571C175.754,319.086 175.93,318.613 176.029,318.127Z" style="fill:rgb(240,175,126);fill-rule:nonzero;"/>
        <path d="M172.294,312.256C172.404,311.533 172.57,310.819 172.933,310.18C173.147,309.801 173.638,310.078 173.583,310.453C173.495,311.065 173.34,311.667 173.236,312.276C173.15,312.783 173.25,313.361 172.863,313.742C172.754,313.849 172.555,313.862 172.448,313.742C172.076,313.321 172.214,312.777 172.294,312.256Z" style="fill:rgb(240,175,126);fill-rule:nonzero;"/>
        <path d="M171.263,328.634C171.49,328.142 171.752,327.664 172.072,327.225C172.343,326.853 173.005,327.06 172.856,327.556C172.717,328.021 172.525,328.468 172.307,328.902C172.146,329.221 171.898,329.745 171.441,329.586C171.02,329.44 171.121,328.941 171.263,328.634Z" style="fill:rgb(240,175,126);fill-rule:nonzero;"/>
        <path d="M158.535,326.815C158.871,327.429 159.21,328.26 159.249,328.961C159.273,329.414 158.651,329.534 158.432,329.182C158.062,328.586 157.882,327.704 157.806,327.014C157.762,326.617 158.357,326.492 158.535,326.815Z" style="fill:rgb(240,175,126);fill-rule:nonzero;"/>
        <path d="M164.625,309.873C164.774,309.647 165.141,309.666 165.216,309.95C165.308,310.302 165.277,310.659 165.267,311.021C165.253,311.483 165.289,311.946 165.294,312.408C165.301,313.074 164.373,313.027 164.292,312.408C164.191,311.646 164.183,310.538 164.625,309.873Z" style="fill:rgb(240,175,126);fill-rule:nonzero;"/>
        <path d="M155.609,310.422C155.663,310.061 156.275,310.063 156.332,310.422C156.425,311.007 156.503,311.592 156.639,312.17C156.757,312.669 156.98,313.109 156.82,313.622C156.777,313.761 156.634,313.809 156.509,313.748C155.486,313.263 155.467,311.369 155.609,310.422Z" style="fill:rgb(240,175,126);fill-rule:nonzero;"/>
        <path d="M170.773,306.306C170.848,305.818 170.913,305.309 171.059,304.837C171.203,304.373 171.915,304.452 171.913,304.952C171.911,305.489 171.808,306.039 171.727,306.568C171.686,306.835 171.355,306.979 171.119,306.914C170.836,306.836 170.732,306.572 170.773,306.306Z" style="fill:rgb(240,175,126);fill-rule:nonzero;"/>
        <path d="M178.901,307.7C179.231,307.356 179.727,307.792 179.532,308.188C179.198,308.866 178.925,309.525 178.78,310.271C178.655,310.909 177.736,310.624 177.824,310.008C177.945,309.154 178.301,308.324 178.901,307.7Z" style="fill:rgb(240,175,126);fill-rule:nonzero;"/>
        <path d="M158.322,307.313C158.426,306.673 158.591,306.057 158.742,305.429C158.856,304.949 159.657,305.044 159.612,305.546C159.563,306.094 159.528,306.634 159.453,307.181C159.378,307.717 159.416,308.337 158.915,308.648C158.777,308.734 158.548,308.72 158.44,308.588C158.102,308.174 158.24,307.813 158.322,307.313Z" style="fill:rgb(240,175,126);fill-rule:nonzero;"/>
        <path d="M191.483,402.42C190.566,407.007 187.813,412.511 183.227,410.677C183.09,410.631 182.964,410.569 182.841,410.506C183.896,401.367 186.714,383.973 196.295,389.503C200.787,392.098 198.659,399.692 198.126,403.896C197.945,405.323 197.753,406.75 197.57,408.178C193.319,411.269 193.272,405.103 191.483,402.42Z" style="fill:rgb(234,119,36);fill-rule:nonzero;"/>
        <path d="M180.601,438.062C180.768,430.19 181.514,422.328 182.406,414.51C182.512,413.582 182.647,412.182 182.841,410.506C182.964,410.569 183.09,410.631 183.227,410.677C187.813,412.511 190.566,407.007 191.483,402.42C193.272,405.103 193.319,411.269 197.57,408.178C196.988,412.695 196.404,417.212 195.809,421.729C194.683,430.277 193.547,438.825 192.4,447.371C192.4,447.371 188.12,463.272 182.615,454.711C179.778,450.298 180.496,443.014 180.601,438.062Z" style="fill:rgb(120,62,36);fill-rule:nonzero;"/>
        <path d="M148.305,403.874C148.34,408.552 146.765,414.501 141.901,413.638C141.757,413.62 141.622,413.586 141.488,413.549C140.663,404.387 139.884,386.782 150.389,390.249C155.315,391.875 154.776,399.744 155.109,403.969C155.223,405.403 155.325,406.839 155.436,408.273C151.902,412.165 150.602,406.138 148.305,403.874Z" style="fill:rgb(234,119,36);fill-rule:nonzero;"/>
        <path d="M144.899,440.984C143.462,433.244 142.593,425.394 141.877,417.558C141.792,416.628 141.639,415.229 141.488,413.549C141.622,413.586 141.757,413.62 141.901,413.638C146.765,414.501 148.34,408.552 148.305,403.874C150.602,406.138 151.902,412.165 155.436,408.273C155.785,412.815 156.131,417.356 156.468,421.899C157.104,430.499 157.73,439.099 158.346,447.699C158.346,447.699 157.389,464.139 150.258,456.876C146.583,453.132 145.804,445.854 144.899,440.984Z" style="fill:rgb(120,62,36);fill-rule:nonzero;"/>
    </g>
</svg>
