<?xml version="1.0" encoding="UTF-8" standalone="no"?>
<!DOCTYPE svg PUBLIC "-//W3C//DTD SVG 1.1//EN" "http://www.w3.org/Graphics/SVG/1.1/DTD/svg11.dtd">
<svg width="100%" height="100%" viewBox="0 0 123 234" version="1.1" xmlns="http://www.w3.org/2000/svg" xmlns:xlink="http://www.w3.org/1999/xlink" xml:space="preserve" xmlns:serif="http://www.serif.com/" style="fill-rule:evenodd;clip-rule:evenodd;stroke-linejoin:round;stroke-miterlimit:2;">
    <g transform="matrix(1,0,0,1,-78.185,-47.94)">
        <path d="M173.688,217.384C182.463,206.91 182.09,190.306 179.178,176.198C176.301,162.26 172.214,148.209 165.854,135.806C159.683,123.773 152.624,116.461 140.484,114.096C125.271,111.131 116.625,122.442 110.171,137.451C103.852,152.146 101.565,167.372 97.272,182.569C93.628,195.473 95.548,207.739 105.427,218.021C120.868,234.09 158.872,235.067 173.688,217.384Z" style="fill:rgb(234,119,36);fill-rule:nonzero;"/>
        <path d="M178.016,170.866C178.424,172.643 178.812,174.421 179.178,176.198C182.09,190.306 182.463,206.91 173.688,217.384C158.872,235.067 120.868,234.09 105.427,218.021C95.548,207.739 93.628,195.472 97.272,182.569C98.045,179.832 98.752,177.094 99.431,174.357C109.873,179.408 121.207,182.84 133.078,184.536C149.437,187.153 166.286,181.844 178.016,170.866Z" style="fill:rgb(207,95,39);fill-rule:nonzero;"/>
        <path d="M109.915,182.578C110.652,187.547 109.868,194.109 104.566,193.919C104.411,193.922 104.262,193.906 104.114,193.887C101.865,184.267 98.399,165.665 110.09,167.777C115.572,168.769 116.177,177.217 117.164,181.659C117.499,183.167 117.823,184.679 118.155,186.188C114.981,190.855 112.696,184.641 109.915,182.578Z" style="fill:rgb(234,119,36);fill-rule:nonzero;"/>
        <path d="M111.851,222.55C109.163,214.534 107.063,206.317 105.128,198.091C104.898,197.115 104.527,195.651 104.114,193.887C104.262,193.906 104.411,193.922 104.566,193.919C109.868,194.109 110.652,187.547 109.915,182.578C112.696,184.641 114.981,190.855 118.155,186.188C119.207,190.965 120.256,195.743 121.293,200.522C123.258,209.571 125.212,218.623 127.155,227.676C127.155,227.676 128.599,245.3 119.929,238.645C115.46,235.214 113.542,227.593 111.851,222.55Z" style="fill:rgb(120,62,36);fill-rule:nonzero;"/>
        <path d="M161.1,181.034C158.953,185.576 154.657,190.597 150.354,187.495C150.223,187.411 150.108,187.315 149.996,187.217C153.468,177.968 160.918,160.574 169.466,168.824C173.474,172.693 169.285,180.055 167.639,184.296C167.08,185.737 166.51,187.174 165.948,188.613C160.716,190.731 162.267,184.294 161.1,181.034Z" style="fill:rgb(234,119,36);fill-rule:nonzero;"/>
        <path d="M140.509,215.349C142.726,207.19 145.544,199.191 148.503,191.276C148.855,190.337 149.358,188.913 149.996,187.217C150.108,187.315 150.223,187.411 150.354,187.495C154.657,190.597 158.953,185.576 161.1,181.034C162.267,184.294 160.716,190.731 165.948,188.613C164.169,193.17 162.388,197.725 160.596,202.276C157.204,210.893 153.801,219.504 150.389,228.112C150.389,228.112 141.801,243.57 138.287,233.221C136.476,227.885 139.114,220.481 140.509,215.349Z" style="fill:rgb(120,62,36);fill-rule:nonzero;"/>
        <path d="M140.484,114.096C152.624,116.461 159.683,123.773 165.854,135.806C171.403,146.628 175.221,158.704 178.016,170.866C166.286,181.844 149.437,187.153 133.078,184.536C121.207,182.84 109.873,179.408 99.431,174.357C102.518,161.904 104.99,149.499 110.171,137.451C116.625,122.442 125.271,111.131 140.484,114.096Z" style="fill:rgb(234,119,36);fill-rule:nonzero;"/>
        <path d="M115.737,153.253C116.217,158.814 117.104,166.035 117.012,166.124C119.617,163.642 122.223,161.161 124.828,158.68C127.339,168.729 129.851,178.778 132.362,188.828C142.956,180.78 150.412,168.707 152.865,155.632C154.974,159.157 157.082,162.682 159.19,166.207C164.571,151.896 165.86,137.783 153.133,127.907C140.678,118.242 130.882,123.35 122.244,134.445C118.819,138.843 116.634,141.379 115.504,147.193C115.351,147.986 115.49,150.401 115.737,153.253Z" style="fill:rgb(224,205,157);fill-rule:nonzero;"/>
        <path d="M118.654,139.259C132.853,142.213 147.235,142.183 160.416,136.463C164.897,145.187 163.163,155.642 159.19,166.207C157.082,162.682 154.973,159.157 152.865,155.632C150.412,168.707 142.956,180.78 132.362,188.828C129.851,178.778 127.339,168.729 124.828,158.68C122.223,161.161 119.617,163.642 117.012,166.124C117.104,166.035 116.217,158.814 115.737,153.253C115.49,150.401 115.351,147.986 115.504,147.192C116.172,143.757 117.211,141.467 118.654,139.259Z" style="fill:rgb(224,205,157);fill-rule:nonzero;"/>
        <path d="M118.654,139.259C119.653,137.732 120.843,136.244 122.244,134.445C130.882,123.35 140.678,118.242 153.133,127.907C156.464,130.492 158.828,133.37 160.416,136.463C147.235,142.183 132.853,142.213 118.654,139.259Z" style="fill:rgb(193,179,141);fill-rule:nonzero;"/>
        <path d="M160.48,77.526C161.451,78.437 162.474,79.296 163.535,80.087C167,82.701 170.905,84.702 175.057,85.942C176.7,86.442 178.38,86.823 180.09,87.077C190.082,77.115 193.046,60.776 187.191,47.94C172.832,51.017 161.742,62.897 160.48,77.526Z" style="fill:rgb(234,119,36);fill-rule:nonzero;"/>
        <path d="M163.535,80.087C167,82.701 170.905,84.702 175.057,85.942C175.318,85.748 175.564,85.516 175.796,85.248C181.434,78.803 183.563,69.125 181.188,60.709C172.809,64.062 166.417,71.171 163.535,80.087Z" style="fill:rgb(120,62,36);fill-rule:nonzero;"/>
        <path d="M116.907,77.526C115.936,78.437 114.913,79.296 113.853,80.087C110.388,82.701 106.482,84.702 102.331,85.942C100.688,86.442 99.007,86.823 97.297,87.077C87.306,77.115 84.341,60.776 90.195,47.94C104.556,51.017 115.645,62.897 116.907,77.526Z" style="fill:rgb(234,119,36);fill-rule:nonzero;"/>
        <path d="M113.853,80.087C110.388,82.701 106.482,84.702 102.331,85.942C102.069,85.748 101.823,85.516 101.591,85.248C95.953,78.803 93.825,69.125 96.199,60.709C104.578,64.062 110.97,71.171 113.853,80.087Z" style="fill:rgb(120,62,36);fill-rule:nonzero;"/>
        <path d="M78.185,115.941C115.928,135.25 162.781,135.615 200.819,116.896C192.97,89.695 168.843,64.573 140.539,64.693C112.226,64.813 85.805,88.68 78.185,115.941Z" style="fill:rgb(246,137,53);fill-rule:nonzero;"/>
        <path d="M78.185,115.941C115.928,135.25 162.781,135.615 200.819,116.896C200.819,116.896 158.379,62.87 142.151,125.346L135.706,124.451C135.706,124.451 127.265,55.9 78.185,115.941Z" style="fill:rgb(224,205,157);fill-rule:nonzero;"/>
        <path d="M130.421,125.151C131.802,123.013 137.622,123.449 139.492,123.545C141.24,123.635 146.044,123.804 147.165,125.369C149.832,129.093 142.137,133.206 139.419,133.149C137.316,133.106 135.291,132.187 133.681,130.87C132.626,130.006 129.865,127.344 130.16,125.8C130.207,125.561 130.295,125.345 130.421,125.151Z" style="fill:rgb(149,40,45);fill-rule:nonzero;"/>
        <path d="M135.163,126.016C135.872,124.996 136.948,125.044 138.105,124.958C139.332,124.867 140.901,124.772 141.924,125.556C142.395,125.916 142.635,126.834 141.924,127.137C140.947,127.554 139.991,127.448 138.946,127.464C137.818,127.482 136.515,128.043 135.521,127.38C135.096,127.098 134.839,126.481 135.163,126.016Z" style="fill:rgb(169,49,53);fill-rule:nonzero;"/>
        <path d="M160.36,106.198C161.48,104.723 163.244,104.723 164.364,106.198C165.161,107.246 165.005,109.185 164.974,110.47C164.954,111.327 164.506,112.342 163.681,112.725C162.705,113.177 162.02,113.177 161.044,112.725C160.218,112.342 159.771,111.327 159.75,110.47C159.72,109.185 159.564,107.246 160.36,106.198Z" style="fill:rgb(120,62,36);fill-rule:nonzero;"/>
        <path d="M114.905,106.198C116.025,104.723 117.789,104.723 118.909,106.198C119.705,107.246 119.549,109.185 119.519,110.47C119.499,111.327 119.051,112.342 118.225,112.725C117.25,113.177 116.564,113.177 115.589,112.725C114.763,112.342 114.315,111.327 114.295,110.47C114.265,109.185 114.109,107.246 114.905,106.198Z" style="fill:rgb(120,62,36);fill-rule:nonzero;"/>
        <path d="M142.55,94.499C142.645,93.787 142.732,93.067 142.878,92.363C142.993,91.808 143.894,91.933 143.863,92.496C143.822,93.261 143.715,94.026 143.619,94.785C143.545,95.366 143.577,96.035 143.101,96.436C142.939,96.574 142.733,96.547 142.611,96.373C142.229,95.83 142.469,95.115 142.55,94.499Z" style="fill:rgb(240,175,126);fill-rule:nonzero;"/>
        <path d="M134.206,94.645C134.209,93.803 134.212,92.955 134.31,92.118C134.373,91.573 135.092,91.573 135.156,92.118C135.241,92.852 135.248,93.591 135.258,94.329C135.268,95.024 135.397,95.789 135.058,96.415C134.924,96.659 134.541,96.659 134.408,96.415C134.106,95.86 134.204,95.264 134.206,94.645Z" style="fill:rgb(240,175,126);fill-rule:nonzero;"/>
        <path d="M139.804,103.519C139.806,102.83 139.814,102.136 139.896,101.451C139.962,100.889 140.704,100.889 140.771,101.451C140.852,102.136 140.86,102.83 140.862,103.519C140.864,104.047 141.015,104.675 140.56,105.039C140.411,105.158 140.255,105.158 140.106,105.039C139.651,104.675 139.803,104.047 139.804,103.519Z" style="fill:rgb(240,175,126);fill-rule:nonzero;"/>
        <path d="M151.027,92.195C151.169,91.502 151.313,90.816 151.503,90.136C151.639,89.646 152.476,89.727 152.414,90.259C152.337,90.918 152.23,91.567 152.108,92.219C151.995,92.825 151.976,93.44 151.582,93.929C151.376,94.184 150.972,94.018 150.89,93.746C150.731,93.225 150.92,92.717 151.027,92.195Z" style="fill:rgb(240,175,126);fill-rule:nonzero;"/>
        <path d="M147.016,85.89C147.134,85.114 147.313,84.347 147.703,83.66C147.933,83.254 148.459,83.552 148.401,83.955C148.306,84.612 148.139,85.257 148.028,85.913C147.936,86.456 148.043,87.078 147.627,87.486C147.51,87.601 147.296,87.615 147.182,87.486C146.783,87.034 146.931,86.45 147.016,85.89Z" style="fill:rgb(240,175,126);fill-rule:nonzero;"/>
        <path d="M145.909,103.478C146.153,102.948 146.435,102.436 146.778,101.964C147.069,101.564 147.78,101.786 147.621,102.319C147.47,102.82 147.264,103.299 147.03,103.765C146.857,104.107 146.591,104.67 146.101,104.5C145.648,104.344 145.757,103.808 145.909,103.478Z" style="fill:rgb(240,175,126);fill-rule:nonzero;"/>
        <path d="M132.241,101.525C132.602,102.183 132.966,103.075 133.007,103.828C133.034,104.314 132.366,104.444 132.131,104.065C131.733,103.426 131.54,102.479 131.458,101.737C131.411,101.312 132.05,101.177 132.241,101.525Z" style="fill:rgb(240,175,126);fill-rule:nonzero;"/>
        <path d="M138.781,83.331C138.941,83.089 139.335,83.109 139.415,83.414C139.515,83.791 139.481,84.176 139.47,84.563C139.455,85.061 139.494,85.557 139.499,86.054C139.507,86.769 138.51,86.719 138.423,86.054C138.315,85.235 138.307,84.045 138.781,83.331Z" style="fill:rgb(240,175,126);fill-rule:nonzero;"/>
        <path d="M129.099,83.92C129.157,83.533 129.813,83.536 129.875,83.92C129.975,84.549 130.06,85.177 130.205,85.797C130.332,86.333 130.571,86.807 130.399,87.357C130.353,87.506 130.2,87.557 130.065,87.493C128.966,86.972 128.946,84.938 129.099,83.92Z" style="fill:rgb(240,175,126);fill-rule:nonzero;"/>
        <path d="M145.383,79.5C145.463,78.977 145.533,78.43 145.69,77.923C145.845,77.425 146.609,77.51 146.607,78.047C146.604,78.623 146.495,79.214 146.407,79.783C146.363,80.069 146.008,80.224 145.754,80.154C145.451,80.07 145.339,79.787 145.383,79.5Z" style="fill:rgb(240,175,126);fill-rule:nonzero;"/>
        <path d="M154.111,80.998C154.466,80.629 154.999,81.097 154.789,81.521C154.43,82.25 154.137,82.958 153.981,83.759C153.847,84.444 152.86,84.137 152.954,83.476C153.084,82.56 153.466,81.668 154.111,80.998Z" style="fill:rgb(240,175,126);fill-rule:nonzero;"/>
        <path d="M132.012,80.582C132.125,79.894 132.302,79.233 132.463,78.559C132.586,78.044 133.446,78.145 133.397,78.685C133.344,79.272 133.308,79.853 133.227,80.44C133.146,81.017 133.187,81.682 132.648,82.017C132.5,82.108 132.255,82.092 132.14,81.951C131.776,81.506 131.924,81.119 132.012,80.582Z" style="fill:rgb(240,175,126);fill-rule:nonzero;"/>
        <path d="M128.687,195.749C138.188,191.154 150.525,193.142 160.673,190.827C165.383,189.752 171.314,188.421 174.36,184.251C175.98,182.035 179.505,169.278 177.618,168.552C188.575,172.769 197.017,188.629 197.983,199.685C200.021,223.015 183.043,234.564 162.528,237.576C150.214,239.383 130.716,238.339 120.95,247.146C112.527,254.739 106.296,270.492 103.291,281C91.538,276.786 84.841,263.227 84.348,250.757C83.917,239.841 88.288,229.182 95.041,220.529C96.005,219.29 97.019,218.087 98.08,216.936C106.521,207.742 117.447,201.185 128.687,195.749Z" style="fill:rgb(246,137,53);fill-rule:nonzero;"/>
        <path d="M152.969,226.047C170.266,220.783 188.212,210.938 197.149,194.812C197.563,196.499 197.848,198.14 197.983,199.685C200.021,223.015 183.043,234.564 162.528,237.576C150.214,239.383 130.716,238.339 120.95,247.146C112.527,254.739 106.296,270.492 103.291,281C91.538,276.786 84.841,263.227 84.348,250.757C84.025,242.581 86.397,234.549 90.445,227.396C110.476,232.986 132.625,232.239 152.969,226.047Z" style="fill:rgb(234,119,36);fill-rule:nonzero;"/>
        <path d="M98.08,216.936C106.521,207.742 117.447,201.185 128.687,195.749C138.188,191.154 150.525,193.142 160.673,190.827C165.383,189.752 171.314,188.421 174.36,184.251C175.98,182.035 179.505,169.278 177.618,168.552C187.044,172.18 194.604,184.422 197.149,194.812C188.212,210.938 170.266,220.783 152.969,226.047C132.625,232.239 110.476,232.986 90.445,227.396C91.801,224.999 93.346,222.701 95.041,220.529C96.005,219.29 97.019,218.087 98.08,216.936Z" style="fill:rgb(246,137,53);fill-rule:nonzero;"/>
        <path d="M84.348,250.757C83.917,239.841 88.288,229.182 95.041,220.529C96.833,219.817 98.681,219.229 100.558,218.775C96.027,225.507 94.815,234.363 97.361,242.07C101.026,237.703 106.156,234.601 111.719,233.366C107.669,237.916 106.367,244.739 108.451,250.459C113.17,245.87 119.811,243.338 126.378,243.584C115.493,253.662 107.374,266.727 103.291,281C91.538,276.786 84.841,263.227 84.348,250.757Z" style="fill:rgb(224,205,157);fill-rule:nonzero;"/>
        <path d="M146.343,196.985C146.866,197.407 147.582,197.317 148.219,197.341C148.921,197.368 149.633,197.37 150.332,197.294C150.746,197.25 150.665,196.698 150.315,196.62C149.579,196.455 148.824,196.386 148.073,196.329C147.446,196.281 146.876,196.171 146.325,196.518C146.153,196.625 146.211,196.879 146.343,196.985Z" style="fill:rgb(240,175,126);fill-rule:nonzero;"/>
        <path d="M135.655,199.441C136.258,199.574 136.725,199.313 137.301,199.151C137.999,198.955 138.708,198.829 139.428,198.76C139.954,198.709 139.938,197.827 139.405,197.829C138.635,197.833 137.883,197.898 137.132,198.071C136.481,198.221 135.806,198.378 135.447,198.981C135.327,199.182 135.433,199.393 135.655,199.441Z" style="fill:rgb(240,175,126);fill-rule:nonzero;"/>
        <path d="M125.602,203.287C126.512,203.203 127.367,202.723 128.207,202.382C129.164,201.996 130.11,201.588 131.041,201.146C131.502,200.927 131.187,200.288 130.722,200.439C129.739,200.76 128.77,201.115 127.807,201.493C126.96,201.826 126.026,202.067 125.307,202.634C125.002,202.874 125.253,203.319 125.602,203.287Z" style="fill:rgb(240,175,126);fill-rule:nonzero;"/>
        <path d="M117.503,206.914C117.934,207.101 118.256,206.78 118.604,206.547C119.126,206.199 119.643,205.847 120.154,205.485C120.559,205.198 120.114,204.478 119.689,204.74C119.239,205.019 118.792,205.299 118.349,205.589C117.959,205.846 117.318,206.08 117.319,206.615C117.319,206.751 117.374,206.858 117.503,206.914Z" style="fill:rgb(240,175,126);fill-rule:nonzero;"/>
        <path d="M141.751,200.821C142.199,201.199 142.882,200.915 143.405,200.837C144.104,200.735 144.815,200.754 145.512,200.655C145.832,200.609 145.882,200.141 145.576,200.031C144.904,199.791 144.189,199.781 143.484,199.802C142.872,199.819 141.913,199.821 141.646,200.476C141.593,200.606 141.651,200.736 141.751,200.821Z" style="fill:rgb(240,175,126);fill-rule:nonzero;"/>
        <path d="M133.199,203.975C133.595,204.055 134.044,203.854 134.439,203.786C134.871,203.711 135.307,203.697 135.743,203.671C136.221,203.644 136.139,202.958 135.723,202.882C135.25,202.795 134.77,202.802 134.292,202.844C133.865,202.882 133.291,202.933 132.979,203.25C132.72,203.512 132.835,203.902 133.199,203.975Z" style="fill:rgb(240,175,126);fill-rule:nonzero;"/>
        <path d="M122.05,207.888C122.507,207.918 122.844,207.649 123.247,207.454C123.805,207.183 124.408,206.972 125.009,206.818C125.485,206.695 125.391,205.974 124.889,206.052C124.26,206.149 123.666,206.303 123.073,206.533C122.575,206.727 121.999,206.931 121.773,207.44C121.689,207.632 121.843,207.875 122.05,207.888Z" style="fill:rgb(240,175,126);fill-rule:nonzero;"/>
        <path d="M139.761,203.83C139.987,203.73 140.175,203.604 140.419,203.548C140.709,203.48 140.966,203.559 141.242,203.412C141.401,203.327 141.512,203.125 141.417,202.948C141.168,202.486 140.736,202.453 140.252,202.476C139.829,202.496 139.38,202.722 139.117,203.047C138.777,203.466 139.304,204.031 139.761,203.83Z" style="fill:rgb(240,175,126);fill-rule:nonzero;"/>
        <path d="M128.899,207.631C129.246,207.597 129.569,207.402 129.877,207.247C130.201,207.084 130.537,206.939 130.853,206.76C131.333,206.488 131.022,205.801 130.502,205.981C130.158,206.1 129.828,206.254 129.491,206.391C129.171,206.521 128.812,206.633 128.556,206.871C128.238,207.167 128.466,207.674 128.899,207.631Z" style="fill:rgb(240,175,126);fill-rule:nonzero;"/>
    </g>
</svg>
