<?xml version="1.0" encoding="UTF-8" standalone="no"?>
<!DOCTYPE svg PUBLIC "-//W3C//DTD SVG 1.1//EN" "http://www.w3.org/Graphics/SVG/1.1/DTD/svg11.dtd">
<svg width="100%" height="100%" viewBox="0 0 152 180" version="1.1" xmlns="http://www.w3.org/2000/svg" xmlns:xlink="http://www.w3.org/1999/xlink" xml:space="preserve" xmlns:serif="http://www.serif.com/" style="fill-rule:evenodd;clip-rule:evenodd;stroke-linejoin:round;stroke-miterlimit:2;">
    <g transform="matrix(1,0,0,1,-287.192,-283)">
        <path d="M394.571,425.075C381.123,424.989 367.681,421.974 355.528,416.23C337.192,407.565 322.522,382.263 331.506,361.902C337.495,348.327 351.111,347.717 366.436,350.85C381.441,353.917 394.661,360.444 408.953,365.38C421.088,369.571 429.681,377.787 432.36,391.174C436.413,411.413 427.016,421.352 408.544,424.095C403.922,424.781 399.246,425.105 394.571,425.075Z" style="fill:rgb(234,119,36);fill-rule:nonzero;"/>
        <path d="M328.989,371.424C327.061,389.55 339.971,408.878 355.528,416.23C367.681,421.974 381.123,424.989 394.571,425.075C399.246,425.105 403.922,424.781 408.544,424.095C427.016,421.352 436.413,411.413 432.361,391.174C431.343,386.09 429.468,381.755 426.874,378.1C419.909,381.602 412.407,384.192 404.274,385.638C377.744,390.657 351.219,385.734 328.989,371.424Z" style="fill:rgb(207,95,39);fill-rule:nonzero;"/>
        <path d="M408.953,365.38C394.661,360.444 381.441,353.917 366.436,350.85C351.111,347.717 337.495,348.327 331.506,361.901C330.145,364.987 329.334,368.187 328.989,371.424C351.219,385.734 377.744,390.657 404.274,385.638C412.407,384.192 419.909,381.602 426.874,378.1C422.639,372.131 416.479,367.979 408.953,365.38Z" style="fill:rgb(234,119,36);fill-rule:nonzero;"/>
        <path d="M327.155,311.329C326.227,312.201 325.247,313.023 324.231,313.781C320.913,316.284 317.174,318.2 313.198,319.387C311.626,319.866 310.017,320.23 308.379,320.474C298.813,310.936 295.974,295.291 301.579,283C315.329,285.946 325.947,297.322 327.155,311.329Z" style="fill:rgb(234,119,36);fill-rule:nonzero;"/>
        <path d="M324.231,313.781C320.913,316.284 317.174,318.2 313.198,319.387C312.948,319.201 312.713,318.979 312.49,318.723C307.093,312.552 305.055,303.285 307.328,295.227C315.351,298.438 321.472,305.244 324.231,313.781Z" style="fill:rgb(120,62,36);fill-rule:nonzero;"/>
        <path d="M368.878,311.329C369.808,312.201 370.787,313.023 371.802,313.781C375.12,316.284 378.859,318.2 382.835,319.387C384.408,319.866 386.017,320.23 387.654,320.474C397.221,310.936 400.06,295.291 394.454,283C380.704,285.946 370.086,297.322 368.878,311.329Z" style="fill:rgb(234,119,36);fill-rule:nonzero;"/>
        <path d="M371.802,313.781C375.12,316.284 378.859,318.2 382.835,319.387C383.085,319.201 383.321,318.979 383.543,318.723C388.941,312.552 390.979,303.285 388.705,295.227C380.683,298.438 374.563,305.244 371.802,313.781Z" style="fill:rgb(120,62,36);fill-rule:nonzero;"/>
        <path d="M405.954,348.112C369.815,366.601 324.953,366.95 288.531,349.026C296.047,322.98 319.148,298.927 346.25,299.041C373.359,299.156 398.657,322.009 405.954,348.112Z" style="fill:rgb(246,137,53);fill-rule:nonzero;"/>
        <path d="M405.954,348.112C369.815,366.601 324.953,366.95 288.531,349.026C288.531,349.026 329.167,297.296 344.707,357.117L350.878,356.261C350.878,356.261 358.96,290.622 405.954,348.112Z" style="fill:rgb(224,205,157);fill-rule:nonzero;"/>
        <path d="M355.938,356.931C354.616,354.884 349.043,355.301 347.253,355.394C345.579,355.479 340.979,355.642 339.905,357.139C337.352,360.705 344.72,364.644 347.322,364.59C349.336,364.548 351.275,363.667 352.816,362.406C353.826,361.58 356.471,359.031 356.188,357.553C356.144,357.323 356.059,357.117 355.938,356.931Z" style="fill:rgb(149,40,45);fill-rule:nonzero;"/>
        <path d="M351.397,357.759C350.719,356.782 349.688,356.828 348.58,356.746C347.406,356.659 345.903,356.568 344.924,357.318C344.474,357.663 344.243,358.543 344.924,358.833C345.859,359.232 346.775,359.13 347.775,359.146C348.855,359.162 350.103,359.7 351.055,359.065C351.462,358.795 351.708,358.204 351.397,357.759Z" style="fill:rgb(169,49,53);fill-rule:nonzero;"/>
        <path d="M327.271,338.783C326.198,337.371 324.51,337.371 323.437,338.783C322.675,339.786 322.823,341.643 322.854,342.873C322.873,343.693 323.301,344.666 324.092,345.033C325.026,345.465 325.682,345.465 326.616,345.033C327.407,344.666 327.835,343.693 327.854,342.873C327.884,341.643 328.033,339.786 327.271,338.783Z" style="fill:rgb(120,62,36);fill-rule:nonzero;"/>
        <path d="M370.795,338.783C369.722,337.371 368.033,337.371 366.961,338.783C366.198,339.786 366.348,341.643 366.377,342.873C366.396,343.693 366.824,344.666 367.615,345.033C368.55,345.465 369.206,345.465 370.14,345.033C370.931,344.666 371.359,343.693 371.379,342.873C371.408,341.643 371.557,339.786 370.795,338.783Z" style="fill:rgb(120,62,36);fill-rule:nonzero;"/>
        <path d="M344.324,327.581C344.233,326.898 344.149,326.21 344.011,325.535C343.9,325.004 343.038,325.124 343.066,325.663C343.105,326.396 343.209,327.128 343.301,327.854C343.372,328.411 343.341,329.051 343.797,329.437C343.951,329.567 344.149,329.542 344.266,329.376C344.631,328.855 344.401,328.171 344.324,327.581Z" style="fill:rgb(240,175,126);fill-rule:nonzero;"/>
        <path d="M352.314,327.721C352.311,326.914 352.308,326.103 352.215,325.301C352.154,324.779 351.465,324.779 351.404,325.301C351.322,326.003 351.316,326.711 351.307,327.418C351.297,328.084 351.173,328.816 351.498,329.415C351.626,329.649 351.993,329.649 352.121,329.415C352.409,328.884 352.316,328.313 352.314,327.721Z" style="fill:rgb(240,175,126);fill-rule:nonzero;"/>
        <path d="M346.953,336.218C346.952,335.559 346.943,334.894 346.866,334.238C346.802,333.699 346.092,333.699 346.028,334.238C345.95,334.894 345.942,335.559 345.94,336.218C345.939,336.724 345.794,337.325 346.229,337.673C346.372,337.787 346.521,337.787 346.664,337.673C347.1,337.325 346.955,336.724 346.953,336.218Z" style="fill:rgb(240,175,126);fill-rule:nonzero;"/>
        <path d="M336.207,325.374C336.071,324.712 335.934,324.055 335.752,323.402C335.621,322.935 334.82,323.012 334.88,323.521C334.953,324.151 335.056,324.773 335.173,325.397C335.281,325.978 335.299,326.566 335.676,327.035C335.873,327.279 336.26,327.12 336.339,326.859C336.49,326.361 336.31,325.874 336.207,325.374Z" style="fill:rgb(240,175,126);fill-rule:nonzero;"/>
        <path d="M340.048,319.337C339.935,318.595 339.764,317.86 339.391,317.202C339.17,316.813 338.666,317.099 338.722,317.484C338.813,318.114 338.973,318.731 339.079,319.359C339.167,319.88 339.064,320.475 339.463,320.865C339.575,320.976 339.78,320.989 339.89,320.865C340.271,320.433 340.13,319.874 340.048,319.337Z" style="fill:rgb(240,175,126);fill-rule:nonzero;"/>
        <path d="M341.108,336.179C340.875,335.671 340.604,335.181 340.276,334.729C339.997,334.346 339.316,334.559 339.47,335.069C339.613,335.548 339.811,336.007 340.035,336.454C340.199,336.781 340.454,337.32 340.925,337.157C341.358,337.008 341.254,336.494 341.108,336.179Z" style="fill:rgb(240,175,126);fill-rule:nonzero;"/>
        <path d="M354.195,334.309C353.85,334.938 353.501,335.793 353.461,336.514C353.436,336.979 354.075,337.104 354.301,336.741C354.682,336.129 354.866,335.222 354.945,334.512C354.99,334.104 354.378,333.976 354.195,334.309Z" style="fill:rgb(240,175,126);fill-rule:nonzero;"/>
        <path d="M347.934,316.888C347.779,316.655 347.402,316.675 347.326,316.967C347.23,317.328 347.263,317.696 347.273,318.067C347.288,318.544 347.251,319.019 347.245,319.494C347.238,320.18 348.192,320.131 348.276,319.494C348.379,318.71 348.388,317.571 347.934,316.888Z" style="fill:rgb(240,175,126);fill-rule:nonzero;"/>
        <path d="M357.204,317.452C357.148,317.081 356.519,317.083 356.46,317.452C356.365,318.054 356.284,318.654 356.145,319.249C356.023,319.762 355.794,320.215 355.958,320.742C356.003,320.885 356.149,320.934 356.278,320.872C357.33,320.373 357.35,318.427 357.204,317.452Z" style="fill:rgb(240,175,126);fill-rule:nonzero;"/>
        <path d="M341.611,313.22C341.534,312.719 341.468,312.194 341.317,311.709C341.17,311.232 340.438,311.313 340.439,311.828C340.442,312.38 340.548,312.945 340.631,313.49C340.674,313.765 341.013,313.912 341.257,313.845C341.547,313.766 341.653,313.493 341.611,313.22Z" style="fill:rgb(240,175,126);fill-rule:nonzero;"/>
        <path d="M333.255,314.653C332.914,314.3 332.405,314.748 332.605,315.154C332.949,315.852 333.229,316.53 333.379,317.297C333.507,317.953 334.452,317.659 334.362,317.025C334.237,316.149 333.872,315.295 333.255,314.653Z" style="fill:rgb(240,175,126);fill-rule:nonzero;"/>
        <path d="M354.414,314.255C354.307,313.597 354.137,312.964 353.982,312.317C353.864,311.825 353.042,311.922 353.088,312.438C353.139,313.001 353.174,313.558 353.252,314.119C353.328,314.671 353.29,315.309 353.805,315.629C353.946,315.717 354.182,315.701 354.292,315.565C354.641,315.14 354.498,314.77 354.414,314.255Z" style="fill:rgb(240,175,126);fill-rule:nonzero;"/>
        <path d="M366.09,388.832C378.276,389.134 389.896,397.694 401.541,400.678C406.946,402.063 413.741,403.829 419.073,401.157C421.908,399.736 432.269,388.497 430.714,386.754C439.739,396.875 440.029,417.624 435.18,429.489C424.946,454.527 401.406,457.417 378.745,449.67C365.144,445.021 345.67,433.646 330.986,437.53C318.323,440.88 303.601,453.766 294.962,462.97C285.119,452.432 285.405,434.968 291.487,421.9C296.813,410.462 306.934,401.824 318.44,396.504C320.086,395.742 321.763,395.042 323.461,394.42C336.987,389.438 351.673,388.477 366.09,388.832Z" style="fill:rgb(246,137,53);fill-rule:nonzero;"/>
        <path d="M375.019,432.78C395.565,436.513 419.198,435.883 436.897,424.044C436.431,425.995 435.857,427.831 435.18,429.489C424.946,454.527 401.406,457.417 378.745,449.671C365.144,445.021 345.67,433.646 330.986,437.53C318.323,440.88 303.601,453.766 294.962,462.97C285.119,452.432 285.405,434.968 291.487,421.9C295.476,413.333 302.155,406.337 310.093,401.129C327.711,417.454 350.853,428.39 375.019,432.78Z" style="fill:rgb(234,119,36);fill-rule:nonzero;"/>
        <path d="M323.461,394.42C336.987,389.438 351.673,388.477 366.09,388.832C378.276,389.134 389.896,397.694 401.541,400.678C406.946,402.063 413.741,403.829 419.073,401.157C421.908,399.736 432.269,388.497 430.714,386.754C438.479,395.46 439.773,412.028 436.897,424.044C419.198,435.883 395.565,436.513 375.019,432.78C350.853,428.39 327.711,417.454 310.093,401.129C312.752,399.385 315.553,397.84 318.44,396.504C320.086,395.742 321.763,395.042 323.461,394.42Z" style="fill:rgb(246,137,53);fill-rule:nonzero;"/>
        <path d="M291.487,421.9C296.813,410.462 306.934,401.824 318.44,396.504C320.658,396.721 322.867,397.093 325.033,397.618C316.823,402.139 310.899,410.594 309.442,419.854C315.514,417.306 322.421,416.829 328.787,418.501C322.224,421.033 317.281,427.354 316.398,434.329C323.671,432.109 331.829,433.019 338.444,436.741C321.938,441.34 306.697,450.468 294.962,462.97C285.119,452.432 285.405,434.968 291.487,421.9Z" style="fill:rgb(224,205,157);fill-rule:nonzero;"/>
        <path d="M383.569,399.432C383.884,400.141 384.667,400.427 385.309,400.787C386.016,401.187 386.745,401.565 387.504,401.856C387.952,402.029 388.16,401.42 387.843,401.155C387.174,400.597 386.435,400.126 385.693,399.671C385.074,399.291 384.548,398.877 383.799,398.941C383.565,398.961 383.49,399.253 383.569,399.432Z" style="fill:rgb(240,175,126);fill-rule:nonzero;"/>
        <path d="M371.295,396.307C371.845,396.762 372.462,396.74 373.139,396.878C373.959,397.045 374.754,397.29 375.53,397.6C376.097,397.826 376.547,396.911 375.998,396.632C375.205,396.229 374.399,395.899 373.536,395.68C372.789,395.49 372.012,395.294 371.324,395.724C371.096,395.866 371.093,396.14 371.295,396.307Z" style="fill:rgb(240,175,126);fill-rule:nonzero;"/>
        <path d="M358.938,394.944C359.917,395.339 361.049,395.297 362.094,395.393C363.279,395.501 364.466,395.581 365.656,395.619C366.245,395.638 366.259,394.815 365.701,394.725C364.522,394.535 363.339,394.388 362.15,394.268C361.105,394.161 360.019,393.916 358.98,394.117C358.54,394.203 358.563,394.793 358.938,394.944Z" style="fill:rgb(240,175,126);fill-rule:nonzero;"/>
        <path d="M348.704,394.39C349.048,394.81 349.548,394.65 350.029,394.596C350.748,394.514 351.465,394.425 352.182,394.323C352.749,394.242 352.673,393.267 352.098,393.313C351.488,393.36 350.881,393.412 350.273,393.477C349.737,393.534 348.954,393.436 348.673,393.985C348.602,394.126 348.602,394.265 348.704,394.39Z" style="fill:rgb(240,175,126);fill-rule:nonzero;"/>
        <path d="M376.827,400.944C377.088,401.569 377.939,401.639 378.518,401.836C379.289,402.099 380.009,402.495 380.777,402.761C381.13,402.883 381.43,402.429 381.173,402.154C380.609,401.553 379.881,401.165 379.145,400.813C378.508,400.508 377.521,400.004 376.901,400.535C376.778,400.641 376.769,400.805 376.827,400.944Z" style="fill:rgb(240,175,126);fill-rule:nonzero;"/>
        <path d="M366.377,399.665C366.741,399.956 367.309,399.988 367.751,400.126C368.233,400.277 368.689,400.493 369.15,400.697C369.655,400.921 369.934,400.174 369.547,399.876C369.106,399.537 368.61,399.29 368.098,399.081C367.639,398.895 367.022,398.644 366.534,398.804C366.13,398.937 366.042,399.397 366.377,399.665Z" style="fill:rgb(240,175,126);fill-rule:nonzero;"/>
        <path d="M352.858,397.793C353.313,398.065 353.801,397.967 354.317,397.979C355.034,397.996 355.766,398.099 356.464,398.257C357.017,398.383 357.302,397.593 356.745,397.407C356.048,397.175 355.356,397.019 354.626,396.941C354.012,396.877 353.312,396.783 352.813,397.187C352.623,397.34 352.654,397.669 352.858,397.793Z" style="fill:rgb(240,175,126);fill-rule:nonzero;"/>
        <path d="M373.193,402.983C373.478,403 373.738,402.971 374.019,403.041C374.352,403.125 374.574,403.342 374.935,403.336C375.144,403.333 375.364,403.184 375.36,402.952C375.349,402.346 374.922,402.084 374.412,401.852C373.968,401.648 373.388,401.645 372.945,401.839C372.375,402.09 372.617,402.948 373.193,402.983Z" style="fill:rgb(240,175,126);fill-rule:nonzero;"/>
        <path d="M360.029,401.147C360.404,401.296 360.838,401.266 361.237,401.271C361.656,401.274 362.077,401.302 362.497,401.285C363.134,401.26 363.178,400.391 362.547,400.3C362.131,400.241 361.71,400.225 361.292,400.188C360.895,400.151 360.466,400.077 360.078,400.186C359.596,400.322 359.563,400.963 360.029,401.147Z" style="fill:rgb(240,175,126);fill-rule:nonzero;"/>
    </g>
</svg>
